<?xml version="1.0" encoding="UTF-8"?>
<svg xmlns="http://www.w3.org/2000/svg" xmlns:xlink="http://www.w3.org/1999/xlink" width="40px" height="40px" viewBox="0 0 40 40" version="1.1">
<g id="surface1">
<path style=" stroke:none;fill-rule:nonzero;fill:rgb(71.764706%,15.686275%,17.254902%);fill-opacity:1;" d="M 31.203125 30.09375 C 31.253906 30.1875 31.289062 30.289062 31.308594 30.390625 C 31.308594 30.402344 31.324219 30.421875 31.332031 30.421875 C 31.339844 30.421875 31.359375 30.410156 31.371094 30.398438 C 31.390625 30.378906 31.410156 30.359375 31.421875 30.332031 C 31.449219 30.28125 31.464844 30.21875 31.492188 30.167969 C 31.519531 30.117188 31.597656 30.078125 31.65625 30.039062 C 31.679688 30.019531 31.691406 29.992188 31.6875 29.960938 C 31.695312 29.898438 31.679688 29.839844 31.640625 29.789062 L 31.464844 29.589844 C 31.445312 29.5625 31.453125 29.535156 31.488281 29.523438 C 31.546875 29.507812 31.589844 29.457031 31.585938 29.398438 C 31.585938 29.261719 31.550781 29.117188 31.640625 29 C 31.660156 28.847656 31.65625 28.691406 31.625 28.542969 C 31.566406 28.453125 31.539062 28.34375 31.546875 28.238281 C 31.546875 28.164062 31.492188 28.140625 31.4375 28.117188 C 31.382812 28.09375 31.390625 28.066406 31.453125 28.03125 C 31.496094 28.015625 31.523438 27.980469 31.53125 27.9375 C 31.53125 27.878906 31.53125 27.8125 31.53125 27.753906 C 31.535156 27.617188 31.5 27.480469 31.425781 27.359375 C 31.40625 27.316406 31.40625 27.3125 31.335938 27.34375 C 31.265625 27.375 31.257812 27.328125 31.230469 27.300781 C 31.199219 27.265625 31.199219 27.21875 31.230469 27.183594 C 31.292969 27.097656 31.410156 27.101562 31.464844 27 C 31.484375 26.964844 31.488281 26.941406 31.464844 26.925781 C 31.445312 26.910156 31.414062 26.902344 31.390625 26.890625 C 31.367188 26.875 31.359375 26.867188 31.4375 26.804688 C 31.457031 26.789062 31.492188 26.769531 31.492188 26.746094 C 31.503906 26.671875 31.503906 26.59375 31.492188 26.515625 C 31.472656 26.460938 31.4375 26.414062 31.394531 26.371094 C 31.328125 26.304688 31.304688 26.207031 31.34375 26.121094 C 31.382812 26.039062 31.402344 25.949219 31.398438 25.859375 L 31.375 25.351562 C 31.371094 25.304688 31.355469 25.261719 31.324219 25.226562 C 31.304688 25.199219 31.304688 25.167969 31.324219 25.140625 C 31.363281 25.058594 31.371094 24.964844 31.351562 24.875 C 31.351562 24.824219 31.320312 24.789062 31.273438 24.78125 C 31.207031 24.769531 31.140625 24.75 31.078125 24.71875 C 31.046875 24.703125 31.011719 24.691406 30.976562 24.683594 L 30.976562 24.578125 C 30.984375 24.585938 30.996094 24.589844 31.007812 24.589844 C 31.089844 24.589844 31.171875 24.589844 31.253906 24.589844 C 31.300781 24.585938 31.335938 24.550781 31.335938 24.507812 C 31.347656 24.402344 31.316406 24.289062 31.382812 24.191406 C 31.382812 24.179688 31.375 24.136719 31.359375 24.113281 C 31.332031 24.078125 31.324219 24.027344 31.34375 23.988281 C 31.378906 23.9375 31.378906 23.871094 31.34375 23.824219 C 31.328125 23.796875 31.320312 23.769531 31.320312 23.738281 L 31.300781 23.367188 C 31.316406 23.226562 31.289062 23.089844 31.222656 22.96875 C 31.234375 22.929688 31.28125 22.890625 31.246094 22.84375 C 31.222656 22.808594 31.191406 22.78125 31.15625 22.757812 C 31.089844 22.730469 31.015625 22.742188 30.957031 22.707031 C 30.957031 22.628906 30.957031 22.546875 30.957031 22.46875 L 30.972656 22.46875 C 30.984375 22.472656 31 22.480469 31.007812 22.488281 L 31.140625 22.605469 C 31.164062 22.625 31.1875 22.613281 31.210938 22.585938 C 31.25 22.542969 31.277344 22.484375 31.277344 22.425781 C 31.277344 22.320312 31.265625 22.210938 31.277344 22.101562 L 31.277344 22.117188 C 31.28125 22.144531 31.296875 22.171875 31.320312 22.1875 C 31.34375 22.207031 31.375 22.210938 31.40625 22.207031 C 31.480469 22.191406 31.554688 22.238281 31.570312 22.308594 C 31.570312 22.320312 31.59375 22.328125 31.605469 22.335938 C 31.617188 22.3125 31.625 22.289062 31.628906 22.261719 C 31.625 22.199219 31.613281 22.136719 31.597656 22.078125 C 31.585938 22.03125 31.546875 22 31.5 21.996094 C 31.480469 21.996094 31.457031 21.988281 31.441406 21.96875 C 31.425781 21.953125 31.417969 21.933594 31.417969 21.910156 C 31.414062 21.867188 31.441406 21.828125 31.484375 21.8125 C 31.515625 21.800781 31.535156 21.765625 31.515625 21.75 C 31.445312 21.671875 31.488281 21.617188 31.527344 21.554688 C 31.542969 21.53125 31.554688 21.503906 31.5625 21.476562 C 31.558594 21.449219 31.546875 21.425781 31.527344 21.40625 C 31.464844 21.339844 31.421875 21.253906 31.414062 21.160156 L 31.359375 20.84375 C 31.320312 20.726562 31.320312 20.601562 31.359375 20.484375 C 31.335938 20.445312 31.289062 20.417969 31.308594 20.367188 C 31.34375 20.300781 31.332031 20.214844 31.273438 20.160156 C 31.25 20.140625 31.242188 20.105469 31.261719 20.078125 C 31.285156 20.019531 31.289062 19.957031 31.273438 19.894531 L 31.132812 19.101562 C 31.140625 19 31.132812 18.894531 31.113281 18.796875 C 31.09375 18.773438 31.078125 18.75 31.070312 18.722656 L 31.039062 18.535156 C 31.039062 18.503906 31.039062 18.46875 31.039062 18.4375 C 31.035156 18.386719 31.019531 18.339844 30.996094 18.292969 L 30.980469 18.195312 C 30.964844 18.152344 30.964844 18.105469 30.980469 18.0625 C 31 18.019531 31.007812 17.976562 31.003906 17.933594 C 31.007812 17.917969 31.007812 17.898438 31.003906 17.878906 L 30.980469 17.417969 C 30.96875 17.390625 30.949219 17.371094 30.921875 17.363281 L 30.90625 17.363281 L 30.757812 16.511719 L 30.644531 15.917969 C 30.644531 15.882812 30.613281 15.867188 30.59375 15.875 C 30.574219 15.878906 30.578125 15.898438 30.574219 15.910156 C 30.570312 15.925781 30.570312 15.941406 30.574219 15.957031 C 30.574219 16.144531 30.53125 16.222656 30.386719 16.246094 C 30.304688 16.261719 30.21875 16.28125 30.175781 16.160156 C 30.085938 16.097656 29.980469 16.058594 29.867188 16.046875 C 29.867188 16.011719 29.867188 15.972656 29.867188 15.933594 C 29.878906 15.921875 29.886719 15.910156 29.898438 15.902344 C 29.976562 15.835938 30.003906 15.835938 30.0625 15.921875 C 30.082031 15.949219 30.101562 15.980469 30.121094 15.988281 C 30.144531 16 30.171875 15.988281 30.199219 15.976562 C 30.210938 15.96875 30.21875 15.953125 30.21875 15.9375 C 30.214844 15.863281 30.207031 15.785156 30.195312 15.710938 C 30.171875 15.621094 30.191406 15.527344 30.25 15.453125 C 30.265625 15.433594 30.28125 15.40625 30.296875 15.382812 C 30.3125 15.355469 30.378906 15.335938 30.429688 15.382812 C 30.472656 15.425781 30.5 15.484375 30.507812 15.542969 C 30.511719 15.574219 30.527344 15.597656 30.554688 15.613281 C 30.574219 15.625 30.589844 15.558594 30.578125 15.5 L 30.539062 15.230469 L 30.484375 14.910156 C 30.484375 14.878906 30.457031 14.855469 30.429688 14.855469 C 30.40625 14.855469 30.40625 14.871094 30.398438 14.882812 C 30.367188 14.933594 30.347656 14.988281 30.339844 15.046875 C 30.320312 15.148438 30.265625 15.238281 30.1875 15.308594 C 30.15625 15.335938 30.085938 15.242188 30.0625 15.339844 C 30.058594 15.382812 30.046875 15.425781 30.03125 15.46875 C 30.019531 15.53125 30.015625 15.59375 30.023438 15.65625 C 30.03125 15.699219 30.003906 15.738281 29.957031 15.753906 C 29.929688 15.753906 29.898438 15.753906 29.878906 15.78125 L 29.867188 15.789062 C 29.867188 15.6875 29.851562 15.585938 29.839844 15.484375 C 29.882812 15.464844 29.90625 15.417969 29.890625 15.375 C 29.863281 15.21875 29.832031 15.070312 29.804688 14.917969 C 29.792969 14.898438 29.777344 14.882812 29.753906 14.878906 C 29.738281 14.773438 29.722656 14.671875 29.703125 14.570312 C 29.703125 14.539062 29.703125 14.523438 29.691406 14.515625 C 29.667969 14.371094 29.640625 14.230469 29.617188 14.089844 C 29.625 14.074219 29.625 14.050781 29.617188 14.035156 C 29.617188 14.007812 29.605469 13.984375 29.601562 13.957031 C 29.628906 13.84375 29.585938 13.714844 29.648438 13.605469 C 29.652344 13.574219 29.648438 13.546875 29.628906 13.519531 C 29.617188 13.5 29.582031 13.492188 29.554688 13.480469 L 29.554688 13.445312 C 29.570312 13.332031 29.550781 13.21875 29.503906 13.117188 C 29.460938 13.011719 29.496094 12.894531 29.589844 12.828125 L 29.605469 12.8125 C 29.65625 12.832031 29.707031 12.851562 29.757812 12.871094 C 29.773438 12.871094 29.785156 12.871094 29.796875 12.871094 C 29.8125 12.871094 29.820312 12.855469 29.828125 12.84375 C 29.832031 12.835938 29.832031 12.824219 29.828125 12.8125 C 29.800781 12.765625 29.753906 12.734375 29.703125 12.722656 C 29.710938 12.710938 29.71875 12.695312 29.726562 12.679688 C 29.75 12.589844 29.757812 12.496094 29.75 12.40625 C 29.75 12.398438 29.75 12.390625 29.75 12.386719 C 29.761719 12.371094 29.765625 12.355469 29.769531 12.339844 C 29.769531 12.292969 29.757812 12.246094 29.757812 12.203125 C 29.757812 12.195312 29.757812 12.183594 29.757812 12.175781 C 29.773438 12.160156 29.769531 12.136719 29.757812 12.101562 C 29.746094 12.066406 29.746094 12.082031 29.742188 12.074219 C 29.710938 12.003906 29.667969 11.933594 29.621094 11.875 C 29.59375 11.882812 29.570312 11.902344 29.554688 11.925781 C 29.519531 11.902344 29.488281 11.871094 29.464844 11.835938 C 29.445312 11.816406 29.4375 11.789062 29.441406 11.765625 C 29.445312 11.738281 29.457031 11.714844 29.480469 11.699219 C 29.511719 11.675781 29.539062 11.644531 29.585938 11.65625 C 29.585938 11.726562 29.609375 11.800781 29.621094 11.871094 C 29.679688 11.851562 29.703125 11.800781 29.730469 11.75 C 29.746094 11.734375 29.746094 11.703125 29.730469 11.6875 L 29.742188 11.664062 C 29.847656 11.535156 29.90625 11.378906 29.90625 11.21875 C 29.90625 11.144531 29.921875 11.070312 29.917969 10.996094 C 29.910156 10.941406 29.875 10.894531 29.820312 10.871094 C 29.742188 10.820312 29.742188 10.785156 29.820312 10.765625 C 29.898438 10.75 29.957031 10.730469 29.96875 10.644531 C 29.96875 10.515625 30.011719 10.394531 30.101562 10.296875 C 30.148438 10.117188 30.167969 9.933594 30.15625 9.75 C 30.042969 9.589844 30.109375 9.425781 30.109375 9.261719 C 30.113281 9.1875 30.066406 9.117188 29.992188 9.089844 C 29.945312 9.070312 29.9375 9.03125 29.96875 9.007812 C 30.050781 8.9375 30.128906 8.871094 30.214844 8.804688 C 30.265625 8.753906 30.292969 8.6875 30.289062 8.617188 C 30.296875 8.582031 30.285156 8.542969 30.257812 8.515625 C 30.171875 8.472656 30.097656 8.40625 30.046875 8.328125 L 30.046875 8.300781 C 30.078125 8.28125 30.105469 8.261719 30.132812 8.234375 C 30.195312 8.175781 30.265625 8.125 30.347656 8.089844 C 30.371094 8.078125 30.390625 8.058594 30.398438 8.03125 C 30.410156 8.007812 30.40625 7.980469 30.394531 7.957031 C 30.371094 7.847656 30.308594 7.746094 30.21875 7.675781 C 30.175781 7.648438 30.160156 7.628906 30.167969 7.589844 C 30.183594 7.539062 30.183594 7.484375 30.167969 7.433594 L 29.921875 6.875 C 29.878906 6.769531 29.804688 6.679688 29.714844 6.609375 C 29.621094 6.539062 29.59375 6.417969 29.644531 6.316406 C 29.675781 6.253906 29.695312 6.183594 29.691406 6.117188 C 29.667969 6.027344 29.628906 5.941406 29.574219 5.863281 C 29.5625 5.84375 29.507812 5.832031 29.472656 5.824219 C 29.339844 5.789062 29.335938 5.789062 29.367188 5.753906 C 29.398438 5.71875 29.421875 5.710938 29.445312 5.6875 C 29.46875 5.664062 29.460938 5.632812 29.414062 5.601562 C 29.300781 5.523438 29.164062 5.5625 29.042969 5.511719 C 29.03125 5.445312 29.015625 5.375 29.003906 5.3125 C 29.019531 5.289062 29.050781 5.28125 29.078125 5.285156 C 29.183594 5.285156 29.179688 5.285156 29.183594 5.226562 C 29.210938 5.066406 29.183594 4.902344 29.101562 4.757812 C 29.0625 4.695312 29.039062 4.625 29 4.558594 C 28.964844 4.511719 28.910156 4.488281 28.851562 4.488281 C 28.757812 4.480469 28.738281 4.449219 28.789062 4.40625 C 28.84375 4.359375 28.894531 4.3125 28.859375 4.230469 C 28.792969 4.117188 28.769531 3.984375 28.800781 3.855469 C 28.753906 3.679688 28.679688 3.507812 28.574219 3.351562 C 28.394531 3.261719 28.378906 3.085938 28.289062 2.941406 C 28.253906 2.871094 28.175781 2.832031 28.09375 2.84375 C 28.042969 2.84375 28.015625 2.820312 28.027344 2.78125 C 28.066406 2.683594 28.105469 2.59375 28.140625 2.492188 C 28.164062 2.421875 28.152344 2.347656 28.113281 2.289062 C 28.09375 2.25 28.070312 2.21875 28.03125 2.210938 C 27.933594 2.207031 27.835938 2.183594 27.75 2.140625 C 27.691406 2.09375 27.636719 2.035156 27.578125 1.988281 C 27.542969 1.964844 27.507812 1.949219 27.472656 1.9375 C 27.453125 1.929688 27.433594 1.929688 27.417969 1.9375 C 27.402344 1.949219 27.394531 1.964844 27.398438 1.980469 C 27.429688 2.101562 27.4375 2.226562 27.425781 2.351562 C 27.429688 2.402344 27.410156 2.453125 27.375 2.488281 C 27.308594 2.421875 27.242188 2.351562 27.179688 2.285156 C 27.191406 2.289062 27.203125 2.289062 27.214844 2.285156 C 27.230469 2.273438 27.234375 2.257812 27.230469 2.242188 L 27.09375 1.890625 C 27.0625 1.902344 27.027344 1.914062 26.996094 1.929688 C 26.945312 1.949219 26.917969 2.003906 26.9375 2.054688 C 26.9375 2.054688 26.9375 2.054688 26.9375 2.0625 C 26.789062 1.9375 26.636719 1.816406 26.472656 1.703125 L 26.484375 1.667969 L 26.351562 1.554688 C 26.339844 1.539062 26.328125 1.523438 26.320312 1.507812 L 26.292969 1.457031 C 26.277344 1.421875 26.25 1.394531 26.210938 1.378906 C 26.175781 1.367188 26.132812 1.367188 26.097656 1.382812 C 26.003906 1.417969 25.894531 1.382812 25.847656 1.296875 C 25.835938 1.285156 25.8125 1.28125 25.792969 1.273438 C 25.777344 1.265625 25.78125 1.308594 25.777344 1.328125 C 25.65625 1.277344 25.53125 1.234375 25.402344 1.195312 C 25.390625 1.144531 25.375 1.089844 25.351562 1.039062 C 25.3125 0.96875 25.289062 0.894531 25.28125 0.820312 C 25.28125 0.765625 25.230469 0.738281 25.167969 0.730469 C 25.058594 0.703125 24.941406 0.710938 24.835938 0.75 C 24.808594 0.773438 24.765625 0.773438 24.734375 0.75 C 24.691406 0.71875 24.636719 0.699219 24.582031 0.691406 L 23.953125 0.652344 C 23.84375 0.644531 23.730469 0.660156 23.628906 0.703125 C 23.519531 0.742188 23.398438 0.714844 23.320312 0.640625 C 23.269531 0.589844 23.210938 0.550781 23.140625 0.523438 C 23.046875 0.507812 22.953125 0.5 22.859375 0.507812 C 22.828125 0.507812 22.804688 0.546875 22.78125 0.570312 C 22.707031 0.65625 22.703125 0.65625 22.679688 0.617188 C 22.65625 0.582031 22.65625 0.5625 22.640625 0.53125 C 22.625 0.503906 22.589844 0.503906 22.546875 0.523438 C 22.453125 0.570312 22.433594 0.65625 22.375 0.726562 L 22.121094 0.695312 C 22.121094 0.683594 22.125 0.671875 22.128906 0.660156 C 22.171875 0.582031 22.164062 0.582031 22.113281 0.554688 C 21.96875 0.472656 21.800781 0.429688 21.632812 0.429688 C 21.597656 0.429688 21.566406 0.429688 21.53125 0.429688 C 21.539062 0.410156 21.546875 0.390625 21.550781 0.371094 C 21.550781 0.351562 21.539062 0.328125 21.515625 0.3125 C 21.492188 0.296875 21.441406 0.273438 21.429688 0.296875 L 21.382812 0.390625 C 21.359375 0.429688 21.335938 0.433594 21.308594 0.390625 C 21.246094 0.300781 21.164062 0.320312 21.09375 0.300781 C 21.09375 0.300781 21.078125 0.316406 21.070312 0.328125 L 21.039062 0.40625 C 20.90625 0.410156 20.777344 0.375 20.667969 0.304688 C 20.480469 0.269531 20.289062 0.257812 20.101562 0.273438 C 19.953125 0.371094 19.773438 0.320312 19.605469 0.320312 C 19.53125 0.320312 19.46875 0.363281 19.445312 0.425781 C 19.429688 0.464844 19.394531 0.476562 19.363281 0.453125 L 19.125 0.25 C 19.0625 0.207031 18.988281 0.1875 18.914062 0.191406 C 18.875 0.1875 18.839844 0.199219 18.8125 0.222656 C 18.765625 0.289062 18.734375 0.363281 18.648438 0.398438 C 18.558594 0.4375 18.507812 0.445312 18.449219 0.472656 C 18.417969 0.488281 18.390625 0.507812 18.367188 0.53125 C 18.351562 0.539062 18.335938 0.558594 18.339844 0.570312 C 18.34375 0.582031 18.359375 0.597656 18.375 0.601562 C 18.5 0.625 18.621094 0.667969 18.738281 0.722656 C 18.808594 0.761719 18.863281 0.792969 18.859375 0.859375 C 18.859375 0.878906 18.859375 0.894531 18.859375 0.914062 C 18.617188 0.960938 18.382812 1.019531 18.15625 1.078125 C 18.167969 1.058594 18.15625 1.03125 18.136719 1.019531 C 18.105469 0.984375 18.058594 0.96875 18.007812 0.96875 L 17.890625 0.996094 L 17.792969 1.042969 C 17.769531 1.054688 17.777344 1.117188 17.792969 1.140625 C 17.8125 1.164062 17.820312 1.152344 17.820312 1.140625 C 17.859375 1.082031 17.898438 1.09375 17.945312 1.128906 L 17.777344 1.179688 L 17.738281 1.152344 L 17.585938 1.207031 L 17.570312 1.207031 C 17.5625 1.183594 17.535156 1.175781 17.515625 1.179688 L 17.292969 1.238281 L 17.09375 1.292969 C 17.050781 1.304688 17.015625 1.339844 17.03125 1.355469 C 17.046875 1.371094 17.070312 1.378906 17.09375 1.371094 C 17.125 1.363281 17.160156 1.363281 17.191406 1.371094 L 16.710938 1.539062 C 16.734375 1.5 16.769531 1.472656 16.8125 1.453125 C 16.8125 1.453125 16.835938 1.453125 16.84375 1.441406 C 16.851562 1.433594 16.859375 1.421875 16.859375 1.410156 C 16.859375 1.398438 16.851562 1.390625 16.839844 1.382812 C 16.832031 1.378906 16.820312 1.378906 16.808594 1.382812 L 16.363281 1.4375 L 15.4375 1.691406 C 15.378906 1.703125 15.332031 1.734375 15.300781 1.78125 C 15.28125 1.808594 15.25 1.828125 15.21875 1.832031 L 14.800781 1.945312 L 14.035156 2.160156 C 13.992188 2.167969 13.953125 2.191406 13.929688 2.226562 C 13.914062 2.253906 13.898438 2.257812 13.875 2.246094 C 13.847656 2.230469 13.820312 2.226562 13.792969 2.234375 C 13.761719 2.246094 13.742188 2.261719 13.730469 2.289062 C 13.703125 2.324219 13.667969 2.289062 13.636719 2.289062 C 13.585938 2.378906 13.496094 2.390625 13.410156 2.414062 L 13.195312 2.472656 C 13.128906 2.492188 13.058594 2.488281 12.996094 2.460938 C 12.980469 2.460938 12.953125 2.460938 12.9375 2.480469 C 12.921875 2.496094 12.90625 2.515625 12.898438 2.539062 C 12.875 2.59375 12.859375 2.652344 12.78125 2.617188 C 12.765625 2.617188 12.75 2.636719 12.753906 2.664062 C 12.753906 2.695312 12.753906 2.738281 12.71875 2.753906 C 12.679688 2.769531 12.648438 2.753906 12.632812 2.710938 C 12.613281 2.671875 12.578125 2.65625 12.546875 2.660156 C 12.5 2.667969 12.457031 2.675781 12.417969 2.691406 C 12.402344 2.691406 12.390625 2.722656 12.382812 2.742188 C 12.371094 2.757812 12.402344 2.761719 12.410156 2.761719 C 12.476562 2.761719 12.515625 2.796875 12.539062 2.867188 C 12.5625 2.9375 12.59375 2.957031 12.648438 2.945312 L 12.679688 2.945312 C 12.691406 2.945312 12.699219 2.945312 12.710938 2.945312 L 12.8125 2.976562 L 12.882812 2.851562 C 12.902344 2.816406 12.90625 2.816406 12.957031 2.871094 C 12.972656 2.890625 12.992188 2.917969 13.011719 2.917969 C 13.042969 2.925781 13.078125 2.921875 13.105469 2.90625 C 13.140625 2.875 13.171875 2.84375 13.203125 2.8125 C 13.222656 2.796875 13.253906 2.785156 13.28125 2.789062 C 13.3125 2.792969 13.335938 2.808594 13.355469 2.828125 C 13.378906 2.871094 13.425781 2.894531 13.472656 2.898438 C 13.503906 2.898438 13.515625 2.921875 13.507812 2.949219 C 13.496094 3 13.496094 3.050781 13.507812 3.097656 C 13.523438 3.144531 13.507812 3.195312 13.46875 3.226562 C 13.421875 3.28125 13.359375 3.332031 13.289062 3.367188 C 13.28125 3.371094 13.277344 3.382812 13.277344 3.394531 C 13.28125 3.40625 13.289062 3.417969 13.300781 3.421875 C 13.320312 3.4375 13.339844 3.453125 13.363281 3.460938 C 13.40625 3.476562 13.453125 3.484375 13.496094 3.5 L 13.515625 3.511719 C 13.433594 3.59375 13.355469 3.683594 13.28125 3.777344 L 13.25 3.777344 L 13.128906 3.804688 C 13.078125 3.816406 13.066406 3.835938 13.097656 3.902344 C 13.113281 3.929688 13.125 3.957031 13.132812 3.984375 C 12.878906 4.390625 12.714844 4.839844 12.648438 5.308594 C 12.605469 5.539062 12.515625 5.914062 12.386719 5.941406 C 11.710938 6.070312 11.714844 6.484375 11.707031 6.898438 C 11.679688 6.941406 11.664062 6.988281 11.65625 7.039062 C 11.65625 7.085938 11.628906 7.132812 11.625 7.175781 C 11.625 7.203125 11.636719 7.230469 11.660156 7.25 L 11.675781 7.25 C 11.675781 7.265625 11.675781 7.28125 11.675781 7.296875 C 11.652344 7.382812 11.628906 7.480469 11.609375 7.5625 C 11.570312 7.578125 11.539062 7.601562 11.515625 7.628906 C 11.511719 7.640625 11.511719 7.652344 11.515625 7.664062 C 11.523438 7.675781 11.53125 7.6875 11.542969 7.695312 C 11.554688 7.695312 11.566406 7.695312 11.574219 7.695312 L 11.539062 7.828125 C 11.535156 7.824219 11.53125 7.824219 11.53125 7.828125 C 11.53125 7.828125 11.53125 7.828125 11.53125 7.84375 C 11.484375 8.015625 11.4375 8.1875 11.390625 8.359375 C 11.386719 8.347656 11.378906 8.339844 11.367188 8.332031 C 11.339844 8.304688 11.277344 8.332031 11.265625 8.371094 C 11.238281 8.441406 11.21875 8.515625 11.203125 8.589844 C 11.203125 8.609375 11.226562 8.636719 11.242188 8.652344 C 11.261719 8.667969 11.292969 8.667969 11.3125 8.652344 C 11.273438 8.800781 11.234375 8.953125 11.191406 9.101562 C 11.191406 9.101562 11.191406 9.101562 11.191406 9.089844 C 11.191406 9.03125 11.179688 8.972656 11.171875 8.914062 C 11.164062 8.859375 11.152344 8.859375 11.121094 8.875 C 11.046875 8.90625 10.984375 8.90625 10.941406 8.828125 C 10.921875 8.796875 10.90625 8.789062 10.875 8.808594 C 10.816406 8.832031 10.773438 8.875 10.75 8.929688 C 10.734375 8.972656 10.71875 9.015625 10.695312 9.085938 C 10.695312 9.117188 10.679688 9.175781 10.671875 9.238281 C 10.664062 9.296875 10.726562 9.308594 10.761719 9.292969 C 10.773438 9.285156 10.78125 9.277344 10.785156 9.265625 C 10.753906 9.171875 10.804688 9.128906 10.878906 9.097656 C 10.902344 9.085938 10.933594 9.082031 10.957031 9.09375 C 10.984375 9.105469 11 9.128906 11.007812 9.152344 C 11.007812 9.179688 11.007812 9.210938 11.007812 9.242188 C 11.007812 9.253906 11.015625 9.269531 11.023438 9.277344 C 11.035156 9.289062 11.050781 9.292969 11.066406 9.289062 C 11.09375 9.296875 11.125 9.289062 11.140625 9.265625 C 11.144531 9.257812 11.148438 9.25 11.148438 9.246094 C 11.121094 9.351562 11.09375 9.460938 11.066406 9.570312 C 11.054688 9.550781 11.042969 9.535156 11.03125 9.515625 C 11.015625 9.523438 11.007812 9.53125 10.996094 9.539062 C 10.980469 9.5625 10.964844 9.585938 10.945312 9.613281 C 10.921875 9.632812 10.902344 9.652344 10.886719 9.679688 C 10.871094 9.699219 10.886719 9.726562 10.914062 9.738281 C 10.941406 9.75 10.941406 9.753906 10.953125 9.75 L 11.03125 9.710938 C 11.003906 9.816406 10.976562 9.921875 10.953125 10.03125 C 10.953125 10.046875 10.953125 10.066406 10.9375 10.085938 C 10.921875 10.101562 10.871094 10.105469 10.855469 10.085938 C 10.785156 10.007812 10.742188 9.910156 10.734375 9.808594 C 10.734375 9.75 10.71875 9.691406 10.695312 9.636719 C 10.695312 9.625 10.679688 9.609375 10.664062 9.609375 C 10.652344 9.609375 10.617188 9.625 10.609375 9.65625 L 10.511719 9.96875 L 10.433594 10.265625 C 10.417969 10.320312 10.421875 10.390625 10.445312 10.382812 C 10.472656 10.371094 10.496094 10.34375 10.5 10.316406 C 10.515625 10.257812 10.550781 10.203125 10.597656 10.164062 C 10.65625 10.113281 10.707031 10.113281 10.734375 10.164062 C 10.746094 10.1875 10.757812 10.214844 10.769531 10.242188 C 10.820312 10.320312 10.828125 10.414062 10.792969 10.5 C 10.773438 10.570312 10.753906 10.648438 10.742188 10.722656 C 10.742188 10.734375 10.742188 10.757812 10.757812 10.761719 C 10.734375 10.84375 10.714844 10.929688 10.695312 11.011719 C 10.644531 11.035156 10.582031 11.035156 10.53125 11.011719 C 10.390625 10.96875 10.351562 10.886719 10.378906 10.703125 C 10.382812 10.6875 10.382812 10.671875 10.378906 10.65625 C 10.378906 10.640625 10.375 10.628906 10.363281 10.617188 C 10.347656 10.605469 10.320312 10.617188 10.304688 10.65625 L 10.125 11.234375 L 9.734375 12.523438 C 9.703125 12.597656 9.699219 12.675781 9.71875 12.75 C 9.730469 12.792969 9.726562 12.839844 9.707031 12.882812 L 9.578125 13.3125 C 9.554688 13.308594 9.53125 13.308594 9.507812 13.3125 C 9.433594 13.34375 9.359375 13.394531 9.289062 13.433594 C 9.25 13.453125 9.210938 13.46875 9.175781 13.488281 C 9.136719 13.507812 9.121094 13.539062 9.175781 13.589844 C 9.296875 13.695312 9.308594 13.875 9.203125 13.996094 C 9.203125 13.996094 9.203125 14.023438 9.203125 14.039062 C 9.191406 14.074219 9.214844 14.109375 9.253906 14.121094 C 9.285156 14.132812 9.316406 14.136719 9.351562 14.144531 L 9.316406 14.257812 C 9.101562 14.65625 8.996094 15.101562 9.011719 15.550781 L 8.945312 15.773438 C 8.921875 15.863281 8.875 15.945312 8.804688 16.007812 C 8.785156 16.03125 8.78125 16.0625 8.78125 16.09375 C 8.785156 16.121094 8.792969 16.152344 8.808594 16.175781 C 8.839844 16.242188 8.875 16.304688 8.796875 16.363281 C 8.777344 16.375 8.796875 16.410156 8.820312 16.429688 C 8.863281 16.453125 8.882812 16.503906 8.859375 16.546875 C 8.859375 16.566406 8.847656 16.585938 8.832031 16.601562 C 8.8125 16.617188 8.789062 16.625 8.765625 16.621094 C 8.753906 16.625 8.738281 16.628906 8.722656 16.632812 C 8.722656 16.558594 8.722656 16.484375 8.722656 16.414062 C 8.722656 16.339844 8.777344 16.28125 8.78125 16.207031 C 8.78125 16.207031 8.761719 16.1875 8.75 16.1875 C 8.707031 16.179688 8.664062 16.203125 8.65625 16.242188 C 8.652344 16.316406 8.632812 16.390625 8.59375 16.453125 C 8.585938 16.464844 8.578125 16.480469 8.578125 16.496094 C 8.578125 16.507812 8.585938 16.523438 8.59375 16.535156 C 8.632812 16.574219 8.660156 16.625 8.714844 16.632812 C 8.691406 16.644531 8.671875 16.667969 8.664062 16.691406 C 8.640625 16.75 8.621094 16.8125 8.609375 16.875 C 8.609375 16.902344 8.613281 16.929688 8.625 16.953125 C 8.625 16.964844 8.625 16.980469 8.625 16.992188 C 8.625 17.039062 8.625 17.085938 8.625 17.128906 C 8.632812 17.15625 8.652344 17.179688 8.675781 17.195312 C 8.71875 17.203125 8.757812 17.207031 8.800781 17.210938 C 8.835938 17.214844 8.875 17.207031 8.902344 17.183594 C 8.933594 17.164062 8.949219 17.128906 8.953125 17.09375 C 8.953125 17.054688 8.988281 17.046875 9.011719 17.070312 C 9.035156 17.09375 9.070312 17.132812 9.097656 17.164062 L 9.097656 17.351562 C 9.082031 17.367188 9.066406 17.382812 9.054688 17.402344 C 9.015625 17.453125 9.015625 17.519531 9.054688 17.570312 C 9.074219 17.589844 9.078125 17.621094 9.066406 17.648438 C 9 17.789062 8.984375 17.945312 9.027344 18.09375 C 9.03125 18.105469 9.039062 18.121094 9.046875 18.132812 C 9.0625 18.191406 9.0625 18.191406 9.007812 18.226562 C 8.984375 18.242188 8.953125 18.253906 8.9375 18.273438 C 8.925781 18.300781 8.925781 18.332031 8.9375 18.359375 C 9.023438 18.472656 8.984375 18.632812 9.058594 18.746094 C 9 18.824219 9.035156 18.847656 9.082031 18.878906 C 9.082031 18.933594 9.082031 18.988281 9.082031 19.042969 L 9.070312 19.257812 C 9.015625 19.257812 9.011719 19.28125 9.03125 19.324219 C 9.046875 19.367188 9.054688 19.382812 9.0625 19.40625 C 9.0625 19.480469 9.0625 19.558594 9.046875 19.632812 C 9.019531 19.644531 9 19.667969 8.996094 19.695312 C 8.996094 19.847656 8.984375 20 8.980469 20.15625 C 8.976562 20.183594 8.984375 20.214844 9.003906 20.234375 L 8.980469 20.542969 C 8.9375 20.535156 8.902344 20.5 8.898438 20.453125 C 8.898438 20.390625 8.886719 20.328125 8.863281 20.269531 C 8.84375 20.226562 8.828125 20.1875 8.8125 20.144531 C 8.773438 20.054688 8.71875 20.144531 8.683594 20.128906 C 8.59375 20.074219 8.523438 19.988281 8.488281 19.890625 C 8.472656 19.832031 8.441406 19.78125 8.402344 19.734375 C 8.402344 19.726562 8.378906 19.714844 8.367188 19.714844 C 8.355469 19.71875 8.324219 19.742188 8.324219 19.773438 L 8.324219 20.378906 C 8.324219 20.4375 8.347656 20.503906 8.363281 20.492188 C 8.390625 20.472656 8.402344 20.445312 8.402344 20.414062 C 8.398438 20.351562 8.417969 20.292969 8.453125 20.242188 C 8.492188 20.183594 8.546875 20.167969 8.585938 20.214844 C 8.625 20.257812 8.621094 20.261719 8.644531 20.28125 C 8.710938 20.347656 8.742188 20.433594 8.734375 20.523438 C 8.734375 20.601562 8.734375 20.679688 8.734375 20.753906 C 8.734375 20.765625 8.75 20.785156 8.761719 20.789062 C 8.773438 20.789062 8.820312 20.804688 8.839844 20.789062 C 8.859375 20.773438 8.871094 20.742188 8.886719 20.71875 C 8.917969 20.652344 8.941406 20.632812 8.980469 20.640625 C 8.980469 20.714844 8.980469 20.785156 8.964844 20.859375 C 8.910156 20.890625 8.855469 20.925781 8.804688 20.96875 C 8.78125 21.09375 8.695312 21.085938 8.609375 21.082031 C 8.464844 21.082031 8.402344 21.007812 8.382812 20.820312 C 8.382812 20.804688 8.382812 20.789062 8.382812 20.773438 C 8.382812 20.761719 8.367188 20.742188 8.355469 20.742188 C 8.347656 20.742188 8.3125 20.757812 8.3125 20.792969 L 8.292969 21.394531 L 8.265625 22.738281 C 8.257812 22.8125 8.273438 22.890625 8.3125 22.957031 C 8.335938 23 8.34375 23.046875 8.335938 23.089844 L 8.335938 23.101562 C 8.324219 23.109375 8.316406 23.121094 8.304688 23.132812 C 8.261719 23.191406 8.253906 23.21875 8.28125 23.246094 L 8.335938 23.300781 L 8.335938 23.464844 C 8.269531 23.523438 8.273438 23.621094 8.25 23.703125 C 8.25 23.703125 8.265625 23.730469 8.273438 23.738281 L 8.328125 23.789062 L 8.308594 24.808594 C 8.300781 24.867188 8.3125 24.929688 8.34375 24.984375 C 8.367188 25.007812 8.367188 25.042969 8.34375 25.066406 C 8.300781 25.128906 8.300781 25.214844 8.34375 25.277344 C 8.375 25.324219 8.332031 25.359375 8.3125 25.394531 C 8.371094 25.503906 8.390625 25.628906 8.371094 25.75 L 8.371094 26.078125 C 8.375 26.167969 8.347656 26.257812 8.296875 26.335938 C 8.285156 26.363281 8.285156 26.394531 8.296875 26.421875 C 8.304688 26.449219 8.324219 26.476562 8.34375 26.496094 C 8.390625 26.554688 8.445312 26.601562 8.382812 26.683594 C 8.371094 26.703125 8.394531 26.730469 8.425781 26.742188 C 8.46875 26.75 8.503906 26.785156 8.503906 26.828125 C 8.511719 26.875 8.480469 26.917969 8.4375 26.925781 C 8.390625 26.9375 8.359375 26.972656 8.355469 27.015625 C 8.347656 27.078125 8.347656 27.140625 8.355469 27.203125 C 8.363281 27.226562 8.375 27.25 8.390625 27.269531 C 8.390625 27.261719 8.417969 27.25 8.421875 27.238281 C 8.425781 27.203125 8.441406 27.171875 8.46875 27.148438 C 8.496094 27.125 8.535156 27.113281 8.570312 27.117188 C 8.601562 27.117188 8.632812 27.109375 8.652344 27.085938 C 8.675781 27.066406 8.683594 27.039062 8.683594 27.011719 L 8.683594 26.964844 C 8.679688 26.949219 8.679688 26.933594 8.683594 26.917969 L 8.742188 26.796875 L 8.640625 26.652344 C 8.609375 26.613281 8.613281 26.605469 8.683594 26.5625 C 8.707031 26.546875 8.742188 26.535156 8.75 26.511719 C 8.765625 26.46875 8.769531 26.425781 8.765625 26.378906 C 8.75 26.320312 8.71875 26.269531 8.699219 26.214844 C 8.6875 26.175781 8.6875 26.136719 8.699219 26.097656 C 8.699219 26.109375 8.699219 26.125 8.699219 26.136719 C 8.710938 26.160156 8.730469 26.179688 8.757812 26.191406 C 8.800781 26.195312 8.84375 26.195312 8.882812 26.191406 C 8.921875 26.191406 8.957031 26.179688 8.980469 26.152344 C 9.007812 26.128906 9.023438 26.09375 9.019531 26.058594 C 9.019531 26.015625 9.046875 26.003906 9.074219 26.023438 C 9.128906 26.066406 9.179688 26.113281 9.234375 26.160156 C 9.234375 26.183594 9.246094 26.207031 9.253906 26.230469 L 9.253906 26.25 C 9.230469 26.285156 9.203125 26.320312 9.183594 26.355469 C 9.148438 26.410156 9.15625 26.476562 9.203125 26.523438 C 9.226562 26.542969 9.234375 26.570312 9.226562 26.601562 C 9.179688 26.746094 9.1875 26.90625 9.253906 27.046875 C 9.253906 27.0625 9.269531 27.070312 9.277344 27.085938 C 9.304688 27.140625 9.304688 27.140625 9.25 27.179688 C 9.230469 27.199219 9.199219 27.210938 9.191406 27.238281 C 9.179688 27.265625 9.179688 27.296875 9.191406 27.324219 C 9.292969 27.421875 9.277344 27.585938 9.367188 27.695312 C 9.308594 27.800781 9.367188 27.804688 9.445312 27.839844 C 9.488281 27.863281 9.527344 27.894531 9.5625 27.929688 L 9.5625 28.160156 C 9.535156 28.179688 9.5 28.191406 9.464844 28.195312 C 9.390625 28.210938 9.382812 28.226562 9.410156 28.273438 C 9.480469 28.398438 9.507812 28.4375 9.566406 28.449219 L 9.566406 28.554688 C 9.535156 28.558594 9.507812 28.566406 9.476562 28.578125 C 9.453125 28.589844 9.433594 28.617188 9.433594 28.644531 C 9.449219 28.796875 9.464844 28.953125 9.484375 29.105469 C 9.484375 29.160156 9.515625 29.1875 9.566406 29.199219 C 9.566406 29.292969 9.566406 29.382812 9.566406 29.484375 L 9.546875 29.484375 C 9.5 29.488281 9.457031 29.457031 9.449219 29.414062 C 9.4375 29.351562 9.417969 29.292969 9.386719 29.242188 C 9.359375 29.203125 9.335938 29.164062 9.316406 29.125 C 9.265625 29.039062 9.226562 29.144531 9.1875 29.125 C 9.09375 29.078125 9.015625 29.003906 8.96875 28.914062 C 8.941406 28.859375 8.90625 28.8125 8.859375 28.773438 C 8.859375 28.761719 8.832031 28.753906 8.820312 28.757812 C 8.8125 28.757812 8.785156 28.789062 8.789062 28.820312 L 8.828125 29.144531 L 8.863281 29.421875 C 8.863281 29.480469 8.90625 29.542969 8.921875 29.527344 C 8.945312 29.503906 8.953125 29.476562 8.949219 29.445312 C 8.9375 29.386719 8.945312 29.324219 8.972656 29.269531 C 9.003906 29.203125 9.054688 29.183594 9.101562 29.222656 C 9.121094 29.246094 9.144531 29.261719 9.167969 29.28125 C 9.242188 29.335938 9.289062 29.421875 9.296875 29.511719 C 9.304688 29.589844 9.320312 29.664062 9.339844 29.738281 C 9.34375 29.75 9.355469 29.761719 9.371094 29.765625 C 9.394531 29.773438 9.421875 29.773438 9.445312 29.765625 C 9.464844 29.742188 9.476562 29.71875 9.484375 29.6875 C 9.507812 29.613281 9.527344 29.59375 9.578125 29.601562 C 9.578125 29.675781 9.578125 29.75 9.578125 29.820312 C 9.527344 29.859375 9.480469 29.902344 9.441406 29.949219 C 9.441406 30.074219 9.347656 30.082031 9.265625 30.089844 C 9.121094 30.101562 9.050781 30.039062 9 29.859375 C 9 29.84375 9 29.828125 9 29.8125 C 9 29.800781 8.980469 29.785156 8.96875 29.785156 C 8.957031 29.785156 8.929688 29.804688 8.933594 29.839844 L 9.003906 30.4375 L 9.171875 31.773438 C 9.175781 31.847656 9.203125 31.921875 9.253906 31.984375 C 9.28125 32.019531 9.296875 32.066406 9.296875 32.109375 L 9.375 32.710938 L 9.519531 33.8125 C 9.519531 33.875 9.542969 33.933594 9.578125 33.980469 C 9.605469 34.003906 9.609375 34.035156 9.59375 34.0625 C 9.554688 34.132812 9.570312 34.214844 9.625 34.273438 C 9.660156 34.316406 9.625 34.355469 9.609375 34.398438 C 9.683594 34.5 9.71875 34.621094 9.71875 34.742188 L 9.757812 35.0625 C 9.773438 35.152344 9.761719 35.246094 9.722656 35.328125 C 9.714844 35.359375 9.722656 35.390625 9.734375 35.414062 C 9.75 35.441406 9.769531 35.464844 9.796875 35.484375 C 9.851562 35.53125 9.910156 35.574219 9.863281 35.667969 C 9.863281 35.6875 9.882812 35.714844 9.914062 35.71875 C 9.960938 35.722656 10 35.753906 10.007812 35.796875 C 10.015625 35.820312 10.011719 35.839844 10.003906 35.859375 C 9.992188 35.878906 9.972656 35.894531 9.953125 35.902344 C 9.910156 35.921875 9.882812 35.960938 9.882812 36.003906 C 9.886719 36.066406 9.894531 36.128906 9.90625 36.191406 C 9.90625 36.210938 9.9375 36.234375 9.953125 36.253906 C 9.953125 36.242188 9.976562 36.234375 9.976562 36.21875 C 9.972656 36.144531 10.027344 36.082031 10.105469 36.078125 C 10.136719 36.074219 10.164062 36.058594 10.183594 36.039062 C 10.199219 36.015625 10.207031 35.984375 10.203125 35.957031 L 10.203125 35.910156 C 10.199219 35.894531 10.199219 35.878906 10.203125 35.867188 C 10.214844 35.824219 10.230469 35.78125 10.246094 35.738281 L 10.125 35.609375 C 10.085938 35.570312 10.085938 35.566406 10.152344 35.511719 C 10.171875 35.492188 10.203125 35.476562 10.210938 35.453125 C 10.222656 35.410156 10.222656 35.363281 10.210938 35.320312 C 10.183594 35.265625 10.152344 35.214844 10.121094 35.164062 C 10.089844 35.097656 10.101562 35.015625 10.15625 34.960938 C 10.207031 34.929688 10.238281 34.875 10.242188 34.820312 C 10.242188 34.796875 10.242188 34.785156 10.261719 34.78125 C 10.457031 35.128906 10.726562 35.4375 11.046875 35.6875 C 11.019531 35.6875 10.988281 35.695312 10.960938 35.707031 C 10.890625 35.734375 10.820312 35.765625 10.761719 35.679688 C 10.75 35.664062 10.710938 35.679688 10.691406 35.703125 C 10.667969 35.738281 10.621094 35.757812 10.578125 35.746094 C 10.53125 35.738281 10.5 35.699219 10.503906 35.65625 C 10.503906 35.609375 10.476562 35.570312 10.4375 35.554688 C 10.378906 35.527344 10.316406 35.507812 10.253906 35.492188 C 10.226562 35.492188 10.199219 35.492188 10.171875 35.503906 C 10.171875 35.515625 10.171875 35.535156 10.195312 35.542969 C 10.226562 35.554688 10.257812 35.582031 10.269531 35.613281 C 10.285156 35.644531 10.285156 35.679688 10.273438 35.714844 C 10.261719 35.742188 10.261719 35.769531 10.273438 35.796875 C 10.289062 35.820312 10.3125 35.839844 10.34375 35.847656 L 10.386719 35.867188 C 10.402344 35.871094 10.417969 35.878906 10.429688 35.886719 L 10.535156 35.976562 L 10.710938 35.929688 C 10.761719 35.914062 10.765625 35.929688 10.789062 35.996094 C 10.789062 36.023438 10.789062 36.054688 10.820312 36.070312 C 10.859375 36.097656 10.902344 36.117188 10.949219 36.125 C 11.011719 36.125 11.070312 36.117188 11.136719 36.125 C 11.214844 36.128906 11.285156 36.171875 11.3125 36.242188 C 11.316406 36.300781 11.351562 36.351562 11.40625 36.378906 C 11.441406 36.398438 11.441406 36.421875 11.40625 36.4375 C 11.355469 36.46875 11.320312 36.511719 11.296875 36.5625 C 11.273438 36.617188 11.222656 36.621094 11.152344 36.628906 C 11.042969 36.640625 10.933594 36.636719 10.824219 36.613281 C 10.808594 36.613281 10.796875 36.617188 10.785156 36.625 C 10.78125 36.640625 10.78125 36.652344 10.785156 36.664062 C 10.796875 36.691406 10.8125 36.71875 10.832031 36.738281 C 10.875 36.78125 10.929688 36.816406 10.96875 36.859375 C 11.011719 36.914062 11.035156 36.976562 11.039062 37.042969 C 11.039062 37.074219 11.074219 37.085938 11.105469 37.101562 C 11.167969 37.132812 11.238281 37.136719 11.304688 37.121094 L 11.5625 37.035156 C 11.59375 37.035156 11.617188 37.035156 11.617188 37.082031 C 11.613281 37.140625 11.648438 37.191406 11.707031 37.210938 C 11.839844 37.265625 11.996094 37.28125 12.082031 37.398438 C 12.226562 37.46875 12.378906 37.519531 12.539062 37.546875 C 12.648438 37.527344 12.765625 37.539062 12.867188 37.585938 C 12.925781 37.601562 12.992188 37.582031 13.027344 37.535156 C 13.066406 37.5 13.09375 37.507812 13.101562 37.574219 C 13.101562 37.617188 13.128906 37.660156 13.167969 37.679688 C 13.226562 37.703125 13.289062 37.71875 13.351562 37.746094 C 13.484375 37.796875 13.628906 37.816406 13.773438 37.796875 C 13.824219 37.796875 13.828125 37.796875 13.824219 37.71875 C 13.816406 37.644531 13.863281 37.660156 13.902344 37.644531 C 13.945312 37.625 13.996094 37.644531 14.015625 37.679688 C 14.078125 37.765625 14.035156 37.867188 14.113281 37.953125 C 14.140625 37.980469 14.164062 37.992188 14.1875 37.972656 C 14.210938 37.953125 14.226562 37.933594 14.25 37.917969 C 14.269531 37.898438 14.28125 37.894531 14.3125 37.984375 C 14.3125 38.011719 14.332031 38.046875 14.351562 38.054688 C 14.421875 38.09375 14.5 38.117188 14.578125 38.132812 C 14.640625 38.136719 14.703125 38.121094 14.757812 38.097656 C 14.847656 38.0625 14.953125 38.082031 15.023438 38.144531 C 15.09375 38.207031 15.175781 38.257812 15.265625 38.285156 L 15.777344 38.449219 C 15.824219 38.460938 15.871094 38.460938 15.917969 38.449219 C 15.949219 38.445312 15.980469 38.457031 15.996094 38.480469 C 16.0625 38.546875 16.152344 38.589844 16.25 38.601562 C 16.292969 38.617188 16.34375 38.605469 16.371094 38.566406 C 16.402344 38.511719 16.449219 38.457031 16.5 38.414062 L 16.628906 38.464844 C 16.609375 38.519531 16.585938 38.574219 16.566406 38.628906 C 16.554688 38.671875 16.578125 38.714844 16.621094 38.730469 C 16.71875 38.78125 16.84375 38.789062 16.914062 38.886719 C 16.914062 38.898438 16.972656 38.898438 17 38.886719 C 17.046875 38.875 17.09375 38.886719 17.128906 38.917969 C 17.164062 38.96875 17.226562 38.992188 17.289062 38.976562 C 17.320312 38.96875 17.351562 38.96875 17.382812 38.976562 L 17.753906 39.09375 C 17.882812 39.15625 18.03125 39.183594 18.175781 39.171875 C 18.207031 39.195312 18.226562 39.246094 18.285156 39.234375 C 18.328125 39.226562 18.371094 39.210938 18.40625 39.183594 C 18.429688 39.15625 18.449219 39.128906 18.46875 39.097656 L 18.570312 39.125 L 18.703125 39 C 18.734375 38.96875 18.746094 38.96875 18.792969 39.011719 C 18.804688 39.050781 18.789062 39.089844 18.757812 39.113281 C 18.746094 39.125 18.734375 39.132812 18.722656 39.140625 L 18.5625 39.214844 C 18.539062 39.226562 18.539062 39.253906 18.5625 39.28125 C 18.589844 39.335938 18.636719 39.378906 18.695312 39.398438 L 18.933594 39.476562 L 18.933594 39.277344 L 19.546875 39.277344 C 19.546875 39.335938 19.515625 39.367188 19.457031 39.402344 C 19.375 39.457031 19.285156 39.5 19.191406 39.53125 L 19.992188 39.613281 L 20.023438 39.582031 C 20.03125 39.570312 20.046875 39.566406 20.0625 39.566406 C 20.078125 39.570312 20.089844 39.578125 20.09375 39.59375 C 20.101562 39.605469 20.109375 39.617188 20.121094 39.628906 L 20.347656 39.652344 C 20.453125 39.621094 20.5625 39.625 20.664062 39.664062 C 20.824219 39.660156 20.988281 39.636719 21.140625 39.585938 C 21.226562 39.519531 21.335938 39.476562 21.449219 39.46875 C 21.523438 39.453125 21.542969 39.410156 21.5625 39.355469 C 21.578125 39.300781 21.605469 39.304688 21.648438 39.355469 C 21.671875 39.394531 21.710938 39.414062 21.757812 39.414062 C 21.820312 39.414062 21.886719 39.394531 21.953125 39.390625 C 22.097656 39.378906 22.234375 39.328125 22.347656 39.242188 C 22.390625 39.21875 22.394531 39.214844 22.347656 39.15625 C 22.300781 39.09375 22.347656 39.09375 22.367188 39.070312 C 22.429688 39.070312 22.492188 39.070312 22.5625 39.070312 C 22.613281 39.121094 22.640625 39.191406 22.722656 39.21875 C 22.761719 39.234375 22.789062 39.234375 22.800781 39.203125 C 22.8125 39.171875 22.816406 39.152344 22.828125 39.128906 C 22.839844 39.101562 22.84375 39.09375 22.917969 39.160156 C 22.9375 39.179688 22.964844 39.203125 22.988281 39.203125 C 23.070312 39.203125 23.148438 39.191406 23.226562 39.167969 C 23.265625 39.152344 23.296875 39.128906 23.324219 39.097656 C 23.785156 39.089844 24.246094 39 24.675781 38.835938 C 24.761719 38.847656 24.847656 38.839844 24.929688 38.816406 C 24.980469 38.804688 25.015625 38.773438 25.015625 38.730469 C 25.015625 38.71875 25.015625 38.703125 25.015625 38.6875 L 25.210938 38.59375 C 25.210938 38.621094 25.222656 38.652344 25.226562 38.6875 C 25.242188 38.726562 25.28125 38.753906 25.328125 38.75 C 25.4375 38.75 25.554688 38.703125 25.664062 38.75 C 25.675781 38.75 25.71875 38.734375 25.738281 38.71875 C 25.773438 38.683594 25.824219 38.671875 25.871094 38.6875 C 25.925781 38.714844 25.996094 38.707031 26.042969 38.664062 C 26.066406 38.648438 26.097656 38.636719 26.125 38.628906 L 26.171875 38.621094 L 26.171875 38.410156 L 26.152344 38.410156 C 26.085938 38.382812 26.074219 38.367188 26.097656 38.324219 C 26.140625 38.238281 26.140625 38.140625 26.097656 38.054688 C 26.097656 38.046875 26.074219 38.035156 26.058594 38.027344 L 26.480469 37.683594 C 26.5 37.722656 26.527344 37.753906 26.5625 37.78125 C 26.613281 37.816406 26.609375 37.867188 26.59375 37.929688 C 26.574219 38.035156 26.542969 38.132812 26.492188 38.226562 C 26.484375 38.242188 26.484375 38.253906 26.492188 38.265625 C 26.492188 38.265625 26.515625 38.265625 26.53125 38.265625 C 26.5625 38.261719 26.589844 38.253906 26.617188 38.242188 C 26.671875 38.214844 26.722656 38.171875 26.777344 38.148438 C 26.84375 38.125 26.917969 38.121094 26.988281 38.136719 C 27.019531 38.136719 27.042969 38.117188 27.0625 38.089844 C 27.105469 38.042969 27.132812 37.984375 27.132812 37.921875 L 27.117188 37.664062 C 27.117188 37.632812 27.140625 37.617188 27.175781 37.625 C 27.234375 37.648438 27.300781 37.628906 27.335938 37.578125 C 27.421875 37.472656 27.480469 37.332031 27.628906 37.289062 C 27.738281 37.175781 27.828125 37.050781 27.902344 36.914062 C 27.910156 36.808594 27.953125 36.707031 28.023438 36.625 C 28.0625 36.578125 28.0625 36.515625 28.023438 36.46875 C 27.996094 36.421875 28.023438 36.402344 28.085938 36.410156 C 28.128906 36.421875 28.175781 36.410156 28.207031 36.378906 C 28.25 36.332031 28.28125 36.277344 28.324219 36.230469 C 28.359375 36.191406 28.390625 36.148438 28.414062 36.101562 C 28.398438 36.144531 28.378906 36.191406 28.355469 36.234375 C 28.347656 36.246094 28.347656 36.257812 28.355469 36.269531 C 28.371094 36.273438 28.382812 36.273438 28.398438 36.269531 C 28.425781 36.265625 28.457031 36.257812 28.484375 36.246094 C 28.535156 36.214844 28.585938 36.175781 28.640625 36.148438 C 28.710938 36.128906 28.78125 36.125 28.851562 36.140625 C 28.882812 36.140625 28.90625 36.117188 28.929688 36.09375 C 28.972656 36.046875 28.996094 35.988281 28.996094 35.925781 C 28.996094 35.839844 28.988281 35.753906 28.980469 35.667969 C 28.980469 35.636719 29.003906 35.617188 29.039062 35.628906 C 29.097656 35.652344 29.164062 35.632812 29.199219 35.582031 C 29.289062 35.476562 29.347656 35.335938 29.492188 35.289062 C 29.601562 35.179688 29.695312 35.054688 29.765625 34.917969 C 29.773438 34.808594 29.816406 34.707031 29.890625 34.625 C 29.925781 34.582031 29.925781 34.515625 29.890625 34.46875 C 29.867188 34.425781 29.890625 34.402344 29.953125 34.410156 C 29.996094 34.421875 30.042969 34.410156 30.074219 34.378906 C 30.117188 34.332031 30.148438 34.28125 30.191406 34.234375 C 30.28125 34.125 30.339844 33.996094 30.355469 33.859375 C 30.355469 33.8125 30.367188 33.808594 30.289062 33.792969 C 30.265625 33.792969 30.242188 33.773438 30.242188 33.75 L 30.324219 33.601562 C 30.417969 33.578125 30.503906 33.636719 30.601562 33.589844 C 30.640625 33.574219 30.65625 33.558594 30.644531 33.527344 C 30.628906 33.496094 30.613281 33.480469 30.605469 33.457031 C 30.59375 33.433594 30.589844 33.421875 30.695312 33.417969 C 30.722656 33.417969 30.761719 33.417969 30.777344 33.398438 C 30.832031 33.34375 30.878906 33.28125 30.914062 33.214844 C 30.933594 33.160156 30.9375 33.101562 30.925781 33.042969 C 30.914062 32.949219 30.957031 32.859375 31.042969 32.8125 C 31.125 32.765625 31.199219 32.703125 31.25 32.625 L 31.507812 32.210938 C 31.507812 32.207031 31.507812 32.203125 31.507812 32.199219 L 31.074219 32.199219 L 31.074219 32.171875 C 31.09375 32.164062 31.109375 32.140625 31.109375 32.117188 C 31.113281 32.078125 31.105469 32.035156 31.085938 31.996094 C 31.085938 31.988281 31.078125 31.980469 31.074219 31.976562 L 31.074219 31.613281 C 31.089844 31.621094 31.101562 31.636719 31.109375 31.652344 C 31.117188 31.664062 31.125 31.675781 31.125 31.691406 L 31.160156 31.859375 C 31.160156 31.886719 31.191406 31.890625 31.226562 31.882812 C 31.289062 31.871094 31.34375 31.839844 31.382812 31.792969 C 31.433594 31.726562 31.476562 31.660156 31.527344 31.59375 L 31.328125 31.539062 L 31.601562 30.605469 C 31.558594 30.617188 31.515625 30.628906 31.472656 30.644531 C 31.410156 30.664062 31.371094 30.71875 31.375 30.78125 C 31.378906 30.808594 31.363281 30.839844 31.335938 30.855469 C 31.199219 30.9375 31.097656 31.058594 31.046875 31.203125 C 31.046875 31.21875 31.046875 31.234375 31.046875 31.25 C 31.03125 31.296875 31.027344 31.304688 30.984375 31.308594 C 31.015625 30.917969 31 30.523438 30.949219 30.136719 C 30.945312 30.070312 30.945312 30.003906 30.949219 29.941406 C 30.988281 29.964844 31.03125 29.976562 31.078125 29.976562 C 31.125 29.96875 31.152344 30.015625 31.183594 30.074219 Z M 31.429688 28.328125 C 31.429688 28.328125 31.453125 28.351562 31.449219 28.355469 C 31.4375 28.390625 31.417969 28.390625 31.410156 28.355469 C 31.40625 28.347656 31.421875 28.335938 31.429688 28.328125 Z M 31.363281 28.796875 C 31.363281 28.796875 31.382812 28.816406 31.382812 28.820312 C 31.367188 28.859375 31.351562 28.859375 31.34375 28.820312 C 31.335938 28.8125 31.355469 28.804688 31.363281 28.796875 Z M 31.195312 21.699219 C 31.25 21.722656 31.25 21.730469 31.230469 21.773438 L 31.203125 21.824219 C 31.1875 21.789062 31.171875 21.753906 31.15625 21.71875 C 31.171875 21.714844 31.183594 21.710938 31.195312 21.699219 Z M 31.109375 21.652344 C 31.117188 21.660156 31.128906 21.667969 31.140625 21.671875 C 31.148438 21.6875 31.152344 21.703125 31.152344 21.71875 C 31.125 21.722656 31.097656 21.703125 31.089844 21.679688 C 31.09375 21.667969 31.097656 21.660156 31.109375 21.652344 Z M 8.609375 24.804688 C 8.609375 24.804688 8.589844 24.785156 8.589844 24.777344 C 8.59375 24.769531 8.605469 24.761719 8.613281 24.753906 L 8.632812 24.78125 C 8.632812 24.78125 8.617188 24.804688 8.609375 24.804688 Z M 8.953125 25.230469 C 8.953125 25.230469 8.964844 25.257812 8.972656 25.265625 C 9.007812 25.300781 9.007812 25.351562 8.972656 25.382812 C 8.921875 25.453125 8.871094 25.519531 8.960938 25.613281 L 8.832031 25.460938 C 8.804688 25.421875 8.804688 25.371094 8.832031 25.335938 C 8.871094 25.285156 8.871094 25.21875 8.832031 25.171875 C 8.804688 25.125 8.792969 25.058594 8.765625 25.007812 C 8.746094 24.984375 8.746094 24.949219 8.765625 24.925781 C 8.835938 24.804688 8.835938 24.65625 8.765625 24.53125 C 8.730469 24.480469 8.738281 24.414062 8.777344 24.367188 C 8.800781 24.335938 8.804688 24.3125 8.777344 24.285156 C 8.75 24.261719 8.703125 24.191406 8.675781 24.140625 C 8.660156 24.117188 8.65625 24.085938 8.664062 24.054688 C 8.691406 24.023438 8.707031 23.980469 8.703125 23.9375 C 8.699219 23.890625 8.675781 23.851562 8.640625 23.824219 C 8.570312 23.757812 8.585938 23.746094 8.640625 23.679688 L 8.667969 23.648438 C 8.707031 23.597656 8.71875 23.582031 8.707031 23.550781 C 8.730469 23.519531 8.746094 23.484375 8.753906 23.449219 C 8.753906 23.433594 8.753906 23.417969 8.753906 23.402344 C 8.753906 23.390625 8.738281 23.371094 8.730469 23.371094 C 8.664062 23.351562 8.605469 23.320312 8.558594 23.277344 C 8.53125 23.21875 8.496094 23.164062 8.453125 23.117188 C 8.453125 23.117188 8.453125 23.085938 8.453125 23.078125 C 8.558594 22.890625 8.492188 22.683594 8.519531 22.492188 C 8.53125 22.398438 8.496094 22.308594 8.425781 22.246094 C 8.417969 22.234375 8.40625 22.222656 8.398438 22.210938 C 8.359375 22.160156 8.359375 22.09375 8.398438 22.042969 C 8.464844 21.972656 8.484375 21.871094 8.441406 21.78125 C 8.382812 21.640625 8.371094 21.484375 8.40625 21.335938 C 8.433594 21.269531 8.492188 21.222656 8.5625 21.199219 C 8.59375 21.199219 8.617188 21.199219 8.644531 21.199219 C 8.703125 21.195312 8.757812 21.210938 8.804688 21.246094 C 8.84375 21.28125 8.878906 21.265625 8.914062 21.246094 C 8.917969 21.238281 8.929688 21.234375 8.9375 21.234375 C 8.945312 21.234375 8.953125 21.238281 8.960938 21.246094 C 8.960938 21.417969 8.9375 21.589844 8.929688 21.757812 L 8.84375 21.78125 C 8.8125 21.789062 8.796875 21.871094 8.820312 21.898438 C 8.828125 21.910156 8.839844 21.921875 8.851562 21.929688 C 8.875 21.945312 8.910156 21.945312 8.921875 21.96875 L 8.921875 22.007812 C 8.921875 22.03125 8.878906 22.035156 8.851562 22.03125 C 8.824219 22.027344 8.792969 22.03125 8.769531 22.042969 C 8.746094 22.058594 8.730469 22.085938 8.722656 22.109375 C 8.707031 22.160156 8.789062 22.296875 8.828125 22.285156 C 8.867188 22.273438 8.875 22.214844 8.890625 22.175781 C 8.898438 22.167969 8.90625 22.160156 8.914062 22.15625 L 8.914062 22.367188 L 8.835938 22.425781 C 8.804688 22.453125 8.765625 22.472656 8.730469 22.496094 C 8.695312 22.519531 8.6875 22.550781 8.746094 22.59375 C 8.882812 22.683594 8.921875 22.859375 8.835938 22.992188 C 8.835938 23.003906 8.835938 23.023438 8.835938 23.039062 C 8.832031 23.066406 8.851562 23.097656 8.882812 23.105469 L 8.917969 23.105469 C 8.917969 23.292969 8.929688 23.464844 8.945312 23.640625 L 8.886719 23.707031 C 8.859375 23.742188 8.863281 23.765625 8.90625 23.820312 C 8.925781 23.839844 8.945312 23.855469 8.964844 23.871094 C 8.957031 23.890625 8.957031 23.914062 8.964844 23.933594 C 8.964844 24.007812 8.984375 24.085938 8.992188 24.164062 C 8.984375 24.183594 8.980469 24.203125 8.976562 24.222656 C 8.976562 24.269531 8.984375 24.3125 9 24.355469 C 9.007812 24.367188 9.015625 24.375 9.023438 24.382812 C 9.042969 24.507812 9.0625 24.640625 9.089844 24.765625 C 9.066406 24.808594 9.078125 24.859375 9.117188 24.890625 L 9.136719 24.964844 C 9.050781 25.035156 8.984375 25.128906 8.953125 25.230469 Z M 9.128906 25.367188 C 9.117188 25.335938 9.109375 25.308594 9.105469 25.277344 C 9.105469 25.210938 9.105469 25.183594 9.160156 25.203125 L 9.1875 25.210938 C 9.1875 25.246094 9.203125 25.277344 9.214844 25.3125 C 9.183594 25.324219 9.152344 25.34375 9.128906 25.367188 Z M 9.550781 27.601562 C 9.503906 27.625 9.484375 27.601562 9.476562 27.535156 C 9.457031 27.464844 9.492188 27.390625 9.5625 27.359375 C 9.5625 27.433594 9.570312 27.511719 9.574219 27.589844 Z M 9.417969 32.109375 C 9.417969 32.109375 9.417969 32.082031 9.417969 32.074219 C 9.492188 31.875 9.398438 31.679688 9.394531 31.484375 C 9.390625 31.390625 9.34375 31.304688 9.265625 31.253906 C 9.253906 31.242188 9.242188 31.234375 9.234375 31.222656 C 9.1875 31.179688 9.175781 31.113281 9.207031 31.058594 C 9.257812 30.980469 9.257812 30.878906 9.207031 30.796875 C 9.125 30.664062 9.089844 30.511719 9.109375 30.359375 C 9.125 30.292969 9.175781 30.234375 9.242188 30.203125 C 9.269531 30.203125 9.296875 30.203125 9.320312 30.1875 C 9.375 30.175781 9.4375 30.183594 9.484375 30.214844 C 9.53125 30.246094 9.5625 30.226562 9.59375 30.199219 C 9.597656 30.195312 9.605469 30.195312 9.609375 30.199219 L 9.609375 30.265625 C 9.609375 30.425781 9.609375 30.585938 9.609375 30.75 L 9.589844 30.75 C 9.5625 30.757812 9.5625 30.84375 9.589844 30.867188 C 9.597656 30.875 9.605469 30.882812 9.613281 30.886719 C 9.613281 30.925781 9.613281 30.960938 9.613281 30.996094 C 9.59375 31 9.574219 31.003906 9.554688 31.015625 C 9.535156 31.039062 9.523438 31.0625 9.519531 31.089844 C 9.527344 31.152344 9.566406 31.207031 9.621094 31.242188 C 9.636719 31.644531 9.652344 32.050781 9.6875 32.449219 C 9.582031 32.351562 9.535156 32.195312 9.414062 32.109375 Z M 9.710938 32.785156 C 9.632812 32.726562 9.640625 32.71875 9.695312 32.640625 L 9.695312 32.625 L 9.710938 32.796875 L 9.707031 32.785156 Z M 9.808594 33.761719 C 9.808594 33.761719 9.785156 33.742188 9.785156 33.734375 C 9.785156 33.726562 9.796875 33.71875 9.804688 33.710938 L 9.828125 33.734375 C 9.828125 33.734375 9.8125 33.761719 9.808594 33.761719 Z M 10.648438 12.582031 C 10.636719 12.589844 10.625 12.59375 10.609375 12.597656 C 10.5625 12.597656 10.523438 12.628906 10.507812 12.671875 L 10.359375 13.171875 C 10.257812 13.289062 10.148438 13.394531 10.023438 13.488281 C 9.957031 13.542969 9.894531 13.59375 9.828125 13.652344 C 9.789062 13.582031 9.804688 13.570312 9.882812 13.523438 L 9.917969 13.5 C 9.992188 13.445312 9.996094 13.441406 9.957031 13.355469 C 9.898438 13.222656 9.917969 13.058594 9.84375 12.933594 C 9.84375 12.933594 9.84375 12.90625 9.855469 12.898438 C 10.007812 12.742188 10 12.523438 10.078125 12.335938 C 10.109375 12.253906 10.105469 12.160156 10.058594 12.085938 C 10.050781 12.070312 10.046875 12.058594 10.042969 12.042969 C 10.019531 11.988281 10.035156 11.921875 10.085938 11.882812 C 10.164062 11.824219 10.203125 11.730469 10.183594 11.640625 C 10.164062 11.488281 10.195312 11.332031 10.273438 11.199219 C 10.320312 11.140625 10.390625 11.105469 10.46875 11.105469 C 10.496094 11.109375 10.519531 11.113281 10.546875 11.121094 C 10.605469 11.128906 10.65625 11.160156 10.6875 11.203125 C 10.652344 11.382812 10.636719 11.5625 10.644531 11.742188 L 10.578125 11.742188 C 10.546875 11.742188 10.511719 11.816406 10.527344 11.851562 C 10.53125 11.863281 10.539062 11.875 10.546875 11.886719 C 10.570312 11.914062 10.625 11.921875 10.597656 11.976562 C 10.574219 12.027344 10.546875 11.996094 10.519531 11.984375 C 10.496094 11.972656 10.464844 11.96875 10.4375 11.980469 C 10.410156 11.988281 10.386719 12.007812 10.375 12.03125 C 10.347656 12.074219 10.390625 12.21875 10.433594 12.21875 C 10.476562 12.21875 10.496094 12.160156 10.523438 12.128906 C 10.554688 12.101562 10.605469 12.101562 10.636719 12.128906 C 10.660156 12.160156 10.675781 12.195312 10.691406 12.234375 C 10.691406 12.351562 10.679688 12.46875 10.652344 12.582031 Z M 19.667969 0.707031 C 19.695312 0.683594 19.730469 0.671875 19.765625 0.667969 C 19.828125 0.660156 19.890625 0.667969 19.949219 0.695312 L 19.882812 0.695312 C 19.871094 0.691406 19.863281 0.6875 19.859375 0.683594 C 19.828125 0.667969 19.8125 0.671875 19.804688 0.699219 L 19.65625 0.71875 Z M 17.324219 13.789062 C 17.367188 14.867188 17.355469 15.976562 17.289062 17.113281 C 17.246094 18.03125 17.113281 18.941406 16.894531 19.835938 C 16.847656 20.039062 16.660156 20.136719 16.328125 20.136719 C 15.90625 20.136719 15.71875 19.976562 15.765625 19.65625 C 16.140625 18.378906 16.28125 16.425781 16.1875 13.789062 C 16.1875 13.667969 16.253906 13.554688 16.363281 13.492188 C 16.476562 13.410156 16.617188 13.371094 16.757812 13.371094 C 17.132812 13.371094 17.320312 13.511719 17.320312 13.792969 Z M 16.757812 6.675781 L 16.757812 9.660156 C 16.777344 10.109375 16.691406 10.558594 16.507812 10.976562 C 16.292969 11.375 16.046875 11.753906 15.769531 12.113281 C 15.160156 12.792969 14.855469 13.472656 14.855469 14.148438 C 14.855469 16.863281 14.644531 18.78125 14.21875 19.898438 C 14.171875 20.097656 14.007812 20.195312 13.726562 20.195312 C 13.5625 20.203125 13.398438 20.148438 13.269531 20.046875 C 13.152344 19.949219 13.109375 19.796875 13.164062 19.65625 C 13.539062 18.582031 13.726562 16.746094 13.726562 14.148438 C 13.710938 13.710938 13.796875 13.269531 13.976562 12.863281 C 14.175781 12.46875 14.421875 12.097656 14.714844 11.753906 C 15.003906 11.453125 15.242188 11.109375 15.417969 10.738281 C 15.566406 10.394531 15.636719 10.027344 15.632812 9.660156 L 15.632812 6.675781 C 15.632812 6.554688 15.699219 6.441406 15.808594 6.375 C 15.921875 6.296875 16.058594 6.253906 16.203125 6.257812 C 16.34375 6.253906 16.480469 6.296875 16.59375 6.375 C 16.699219 6.445312 16.757812 6.554688 16.753906 6.675781 Z M 14.171875 2.40625 C 14.171875 2.40625 14.1875 2.417969 14.195312 2.421875 L 14.179688 2.449219 C 14.179688 2.449219 14.160156 2.4375 14.160156 2.429688 C 14.160156 2.421875 14.167969 2.40625 14.171875 2.40625 Z M 13.710938 2.933594 L 13.78125 2.769531 C 13.785156 2.753906 13.796875 2.742188 13.8125 2.734375 C 13.832031 2.730469 13.847656 2.730469 13.863281 2.738281 C 13.914062 2.757812 13.945312 2.757812 13.976562 2.710938 C 14.007812 2.664062 14.042969 2.652344 14.070312 2.617188 C 14.09375 2.578125 14.097656 2.589844 14.125 2.601562 C 14.222656 2.640625 14.339844 2.605469 14.394531 2.519531 C 14.40625 2.5 14.425781 2.488281 14.445312 2.484375 C 14.46875 2.476562 14.492188 2.484375 14.511719 2.496094 C 14.539062 2.507812 14.558594 2.511719 14.570312 2.484375 C 14.589844 2.445312 14.613281 2.402344 14.640625 2.363281 C 14.640625 2.347656 14.679688 2.328125 14.691406 2.335938 C 14.773438 2.375 14.8125 2.347656 14.84375 2.265625 C 14.875 2.183594 14.882812 2.199219 14.945312 2.242188 L 14.976562 2.261719 C 15.039062 2.296875 15.046875 2.300781 15.078125 2.234375 C 15.128906 2.125 15.230469 2.066406 15.273438 1.949219 C 15.273438 1.949219 15.292969 1.949219 15.304688 1.949219 C 15.460938 2.007812 15.582031 1.90625 15.726562 1.886719 C 15.796875 1.875 15.835938 1.820312 15.863281 1.75 C 15.867188 1.742188 15.871094 1.730469 15.878906 1.71875 C 15.902344 1.679688 15.9375 1.65625 15.992188 1.683594 C 16.019531 1.703125 16.054688 1.710938 16.089844 1.707031 C 16.125 1.699219 16.15625 1.683594 16.175781 1.65625 C 16.25 1.574219 16.359375 1.527344 16.472656 1.53125 C 16.488281 1.53125 16.515625 1.542969 16.542969 1.5625 C 16.003906 1.765625 15.558594 2.171875 15.054688 2.496094 C 15.035156 2.484375 15.011719 2.472656 14.992188 2.460938 C 14.960938 2.4375 14.941406 2.449219 14.921875 2.5 C 14.90625 2.527344 14.898438 2.558594 14.90625 2.589844 C 14.828125 2.636719 14.746094 2.679688 14.664062 2.722656 C 14.585938 2.765625 14.46875 2.828125 14.378906 2.878906 L 14.328125 2.863281 C 14.28125 2.847656 14.257812 2.878906 14.246094 2.941406 C 14.171875 2.988281 14.097656 3.039062 14.027344 3.089844 C 14 3.054688 13.96875 3.019531 13.933594 2.992188 C 13.875 2.953125 13.851562 2.949219 13.789062 3.011719 C 13.769531 3.03125 13.753906 3.046875 13.738281 3.027344 C 13.722656 3.007812 13.714844 2.984375 13.710938 2.960938 C 13.707031 2.949219 13.707031 2.941406 13.710938 2.929688 Z M 13.027344 10.617188 C 13.40625 9.578125 13.523438 8.300781 13.382812 6.785156 C 13.382812 6.46875 13.59375 6.304688 14.015625 6.304688 C 14.144531 6.304688 14.269531 6.34375 14.367188 6.425781 C 14.457031 6.5 14.511719 6.609375 14.507812 6.726562 C 14.648438 8.402344 14.507812 9.777344 14.085938 10.855469 C 14.039062 11.09375 13.851562 11.214844 13.519531 11.214844 C 13.355469 11.222656 13.195312 11.152344 13.097656 11.027344 C 13.007812 10.910156 12.980469 10.757812 13.027344 10.617188 Z M 12.351562 37.25 C 12.324219 37.226562 12.328125 37.210938 12.371094 37.214844 C 12.371094 37.214844 12.371094 37.234375 12.382812 37.242188 C 12.375 37.246094 12.363281 37.25 12.351562 37.25 Z M 12.789062 37.476562 C 12.757812 37.449219 12.765625 37.4375 12.808594 37.4375 C 12.808594 37.4375 12.808594 37.457031 12.824219 37.46875 C 12.835938 37.476562 12.792969 37.480469 12.789062 37.476562 Z M 13.378906 37.328125 C 13.300781 37.339844 13.222656 37.347656 13.144531 37.347656 C 13.097656 37.34375 13.050781 37.328125 13.007812 37.304688 C 12.96875 37.285156 12.945312 37.246094 12.949219 37.203125 C 12.949219 37.160156 12.917969 37.121094 12.871094 37.109375 C 12.808594 37.085938 12.75 37.0625 12.683594 37.042969 C 12.609375 37.019531 12.539062 36.976562 12.488281 36.917969 C 12.441406 36.875 12.390625 36.878906 12.328125 36.917969 C 12.292969 36.941406 12.257812 36.964844 12.21875 36.984375 C 12.148438 37.019531 12.0625 37.011719 11.992188 36.96875 C 11.96875 36.957031 11.933594 36.929688 11.929688 36.910156 C 11.925781 36.855469 11.910156 36.800781 11.886719 36.753906 C 11.847656 36.683594 11.8125 36.664062 11.691406 36.667969 C 11.652344 36.667969 11.621094 36.667969 11.617188 36.644531 C 11.617188 36.617188 11.621094 36.59375 11.636719 36.574219 C 11.636719 36.5625 11.65625 36.554688 11.671875 36.550781 L 11.882812 36.476562 C 11.929688 36.457031 11.980469 36.472656 12.015625 36.507812 C 12.046875 36.554688 12.113281 36.578125 12.171875 36.5625 C 12.234375 36.550781 12.300781 36.5625 12.371094 36.554688 C 12.402344 36.546875 12.433594 36.558594 12.453125 36.582031 C 12.519531 36.648438 12.609375 36.691406 12.707031 36.703125 C 12.722656 36.757812 12.738281 36.8125 12.742188 36.867188 C 12.765625 37.03125 13.136719 37.28125 13.394531 37.320312 L 13.382812 37.328125 Z M 13.9375 37.375 C 13.921875 37.398438 13.914062 37.425781 13.898438 37.445312 C 13.890625 37.457031 13.882812 37.46875 13.867188 37.472656 C 13.855469 37.476562 13.84375 37.476562 13.828125 37.472656 C 13.816406 37.464844 13.800781 37.453125 13.792969 37.441406 C 13.777344 37.417969 13.761719 37.394531 13.757812 37.367188 C 13.757812 37.347656 13.757812 37.328125 13.757812 37.308594 C 13.835938 37.308594 13.917969 37.320312 13.996094 37.332031 C 13.96875 37.339844 13.941406 37.355469 13.925781 37.378906 L 13.9375 37.378906 Z M 14.703125 37.679688 C 14.6875 37.65625 14.679688 37.632812 14.671875 37.609375 C 14.675781 37.601562 14.675781 37.597656 14.671875 37.589844 L 14.839844 37.675781 C 14.792969 37.664062 14.738281 37.664062 14.691406 37.679688 Z M 15.570312 38.132812 C 15.539062 38.105469 15.546875 38.09375 15.589844 38.09375 C 15.589844 38.09375 15.589844 38.113281 15.605469 38.125 C 15.617188 38.132812 15.566406 38.132812 15.5625 38.132812 Z M 15.964844 38.320312 C 15.953125 38.320312 15.9375 38.332031 15.925781 38.328125 C 15.914062 38.328125 15.894531 38.304688 15.894531 38.277344 C 15.894531 38.253906 15.910156 38.230469 15.945312 38.234375 C 15.957031 38.234375 15.964844 38.242188 15.972656 38.25 C 15.976562 38.261719 15.976562 38.273438 15.972656 38.28125 C 15.96875 38.285156 15.957031 38.296875 15.953125 38.308594 Z M 17.640625 38.851562 C 17.640625 38.863281 17.609375 38.875 17.605469 38.871094 C 17.578125 38.863281 17.554688 38.847656 17.539062 38.828125 C 17.5 38.785156 17.492188 38.765625 17.515625 38.742188 L 17.675781 38.773438 C 17.652344 38.789062 17.640625 38.820312 17.628906 38.84375 Z M 18.269531 38.835938 C 18.210938 38.839844 18.15625 38.847656 18.097656 38.863281 L 18.085938 38.863281 C 18.074219 38.855469 18.066406 38.84375 18.058594 38.835938 L 18.046875 38.8125 C 18.125 38.8125 18.199219 38.824219 18.277344 38.824219 Z M 20.574219 39.265625 C 20.53125 39.324219 20.457031 39.359375 20.378906 39.355469 C 20.347656 39.355469 20.316406 39.347656 20.292969 39.328125 C 20.269531 39.296875 20.238281 39.265625 20.210938 39.238281 L 20.621094 39.207031 C 20.601562 39.222656 20.582031 39.242188 20.5625 39.257812 Z M 20.828125 39.429688 C 20.789062 39.429688 20.789062 39.402344 20.828125 39.390625 C 20.828125 39.390625 20.84375 39.398438 20.851562 39.40625 C 20.859375 39.414062 20.820312 39.421875 20.8125 39.417969 Z M 21.324219 39.429688 C 21.285156 39.417969 21.285156 39.402344 21.324219 39.386719 C 21.324219 39.386719 21.339844 39.398438 21.351562 39.40625 C 21.363281 39.410156 21.320312 39.421875 21.3125 39.421875 Z M 21.5625 39.15625 C 21.519531 39.175781 21.46875 39.183594 21.421875 39.183594 C 21.386719 39.183594 21.355469 39.167969 21.335938 39.144531 L 21.625 39.125 Z M 26.773438 37.492188 C 26.773438 37.527344 26.757812 37.554688 26.730469 37.550781 C 26.71875 37.550781 26.707031 37.546875 26.695312 37.539062 L 26.78125 37.472656 Z M 27.167969 37.304688 C 27.148438 37.324219 27.121094 37.339844 27.09375 37.34375 C 27.046875 37.339844 27.003906 37.339844 26.957031 37.34375 L 27.242188 37.105469 C 27.246094 37.179688 27.210938 37.246094 27.148438 37.289062 Z M 27.132812 36.289062 C 26.921875 36.386719 26.667969 36.351562 26.5 36.199219 L 25.914062 35.773438 C 25.023438 34.902344 24.082031 34.441406 23.097656 34.394531 L 18.171875 34.097656 C 17.398438 34.085938 16.652344 33.820312 16.058594 33.351562 C 15.515625 32.9375 15.207031 32.308594 15.214844 31.648438 L 15.214844 25.167969 C 15.199219 25.035156 15.269531 24.90625 15.390625 24.835938 C 15.511719 24.777344 15.648438 24.746094 15.785156 24.75 C 16.160156 24.75 16.347656 24.890625 16.347656 25.167969 L 16.347656 31.632812 C 16.339844 32.050781 16.535156 32.449219 16.878906 32.710938 C 17.269531 33.007812 17.753906 33.175781 18.257812 33.191406 L 19.3125 33.25 L 19.3125 23.070312 C 18.089844 23.070312 16.261719 23.113281 13.820312 23.191406 C 13.441406 23.191406 13.253906 23.03125 13.253906 22.710938 C 13.292969 22.480469 13.5 22.300781 13.75 22.292969 C 16.566406 22.214844 18.652344 22.171875 20.015625 22.171875 C 21.375 22.171875 23.464844 22.214844 26.28125 22.292969 C 26.429688 22.292969 26.570312 22.34375 26.675781 22.441406 C 26.769531 22.503906 26.835938 22.601562 26.851562 22.710938 C 26.851562 23.03125 26.640625 23.1875 26.21875 23.1875 C 23.683594 23.109375 21.757812 23.070312 20.445312 23.070312 L 20.445312 29.898438 L 22.46875 29.898438 C 22.886719 29.910156 23.304688 29.804688 23.664062 29.597656 C 23.964844 29.441406 24.152344 29.144531 24.15625 28.820312 L 24.15625 24.925781 C 24.15625 24.648438 24.34375 24.507812 24.71875 24.507812 C 24.863281 24.507812 25 24.550781 25.113281 24.628906 C 25.222656 24.691406 25.289062 24.804688 25.289062 24.925781 L 25.289062 28.820312 C 25.300781 29.398438 24.992188 29.941406 24.480469 30.253906 C 23.886719 30.628906 23.179688 30.820312 22.46875 30.792969 L 20.421875 30.792969 L 20.421875 33.308594 L 23.164062 33.492188 C 23.800781 33.527344 24.421875 33.679688 24.996094 33.941406 C 25.65625 34.273438 26.253906 34.707031 26.757812 35.230469 L 27.25 35.585938 C 27.339844 35.664062 27.394531 35.773438 27.390625 35.886719 C 27.382812 36.054688 27.273438 36.203125 27.109375 36.269531 L 27.128906 36.289062 Z M 19.878906 14.765625 C 19.976562 14.640625 20.136719 14.570312 20.300781 14.578125 C 20.464844 14.570312 20.625 14.640625 20.726562 14.765625 C 21.214844 15.246094 21.664062 15.769531 22.0625 16.320312 C 22.160156 16.496094 22.132812 16.714844 21.992188 16.859375 C 21.859375 16.953125 21.699219 16.992188 21.535156 16.980469 C 21.359375 16.992188 21.191406 16.921875 21.078125 16.792969 C 20.757812 16.246094 20.355469 15.742188 19.882812 15.300781 C 19.671875 15.085938 19.671875 14.90625 19.859375 14.746094 L 19.882812 14.765625 Z M 27.511719 37.015625 C 27.511719 37.015625 27.53125 37.015625 27.542969 37.015625 C 27.554688 37.015625 27.542969 37.046875 27.542969 37.046875 C 27.488281 37.046875 27.476562 37.035156 27.492188 37 Z M 27.589844 13.359375 C 27.460938 13.460938 27.300781 13.515625 27.132812 13.507812 C 26.710938 13.464844 26.078125 13.445312 25.230469 13.445312 L 25.230469 14.464844 C 25.324219 15.742188 25.195312 16.832031 24.835938 17.726562 C 24.480469 18.625 23.765625 19.453125 22.691406 20.210938 C 22.644531 20.292969 22.523438 20.335938 22.335938 20.335938 C 22.121094 20.34375 21.921875 20.238281 21.808594 20.0625 C 21.691406 19.878906 21.75 19.714844 21.984375 19.554688 C 22.875 18.878906 23.476562 18.152344 23.78125 17.371094 C 24.085938 16.589844 24.1875 15.636719 24.085938 14.507812 L 24.085938 13.371094 C 21.503906 13.371094 19.507812 13.410156 18.097656 13.492188 C 17.953125 13.492188 17.8125 13.4375 17.703125 13.34375 C 17.605469 13.261719 17.546875 13.140625 17.546875 13.015625 C 17.5625 12.910156 17.625 12.8125 17.71875 12.75 C 17.828125 12.652344 17.96875 12.601562 18.113281 12.601562 C 19.476562 12.519531 21.445312 12.476562 24.023438 12.476562 L 23.953125 11.402344 L 23.953125 11.335938 L 18.726562 11.335938 C 18.578125 11.339844 18.4375 11.285156 18.332031 11.1875 C 18.226562 11.109375 18.160156 10.988281 18.15625 10.859375 C 18.15625 10.582031 18.367188 10.441406 18.792969 10.441406 L 21.609375 10.441406 C 23.15625 10.441406 24.308594 10.421875 25.058594 10.382812 C 25.621094 10.382812 25.902344 10.183594 25.902344 9.78125 L 25.902344 9.242188 C 25.152344 9.203125 24.121094 9.183594 22.804688 9.179688 C 21.300781 9.179688 20.128906 9.199219 19.285156 9.242188 C 18.921875 9.242188 18.726562 9.101562 18.726562 8.820312 C 18.726562 8.699219 18.777344 8.582031 18.867188 8.492188 C 18.957031 8.394531 19.085938 8.339844 19.21875 8.339844 C 20.113281 8.300781 21.308594 8.28125 22.8125 8.28125 C 24.125 8.28125 25.15625 8.300781 25.910156 8.339844 L 25.910156 7.804688 C 25.910156 7.402344 25.628906 7.203125 25.0625 7.203125 C 24.3125 7.164062 23.164062 7.144531 21.617188 7.144531 C 20.347656 7.144531 19.40625 7.164062 18.796875 7.203125 C 18.628906 7.210938 18.464844 7.15625 18.339844 7.054688 C 18.230469 6.972656 18.167969 6.855469 18.164062 6.726562 C 18.164062 6.601562 18.230469 6.488281 18.339844 6.425781 C 18.453125 6.347656 18.589844 6.304688 18.734375 6.304688 C 19.390625 6.265625 20.351562 6.246094 21.621094 6.246094 C 23.167969 6.246094 24.339844 6.265625 25.140625 6.304688 C 25.640625 6.324219 26.125 6.492188 26.519531 6.785156 C 26.851562 7.03125 27.046875 7.40625 27.046875 7.804688 L 27.046875 9.78125 C 27.046875 10.179688 26.851562 10.554688 26.519531 10.796875 C 26.125 11.09375 25.640625 11.257812 25.140625 11.277344 L 25.070312 11.277344 L 25.070312 11.339844 L 25.140625 12.539062 C 26.03125 12.539062 26.71875 12.5625 27.183594 12.601562 C 27.328125 12.597656 27.46875 12.652344 27.578125 12.75 C 27.671875 12.8125 27.734375 12.910156 27.753906 13.015625 C 27.746094 13.148438 27.675781 13.265625 27.566406 13.34375 L 27.585938 13.359375 Z M 27.855469 36.671875 C 27.855469 36.671875 27.875 36.671875 27.886719 36.671875 C 27.894531 36.671875 27.886719 36.703125 27.886719 36.703125 C 27.832031 36.703125 27.820312 36.703125 27.835938 36.660156 Z M 29.546875 9.609375 C 29.5 9.632812 29.453125 9.652344 29.402344 9.667969 L 29.378906 9.679688 C 29.363281 9.664062 29.34375 9.65625 29.320312 9.652344 C 29.277344 9.652344 29.261719 9.625 29.265625 9.59375 L 29.335938 9.570312 C 29.359375 9.515625 29.367188 9.457031 29.367188 9.398438 C 29.363281 9.308594 29.390625 9.21875 29.445312 9.144531 C 29.492188 9.191406 29.546875 9.234375 29.609375 9.273438 C 29.632812 9.300781 29.648438 9.332031 29.652344 9.371094 C 29.660156 9.460938 29.613281 9.546875 29.527344 9.59375 L 29.546875 9.601562 Z M 29.140625 9.03125 C 29.109375 9.015625 29.085938 8.992188 29.0625 8.96875 L 29.078125 8.953125 L 29.289062 8.792969 C 29.300781 8.78125 29.320312 8.773438 29.339844 8.773438 C 29.363281 8.773438 29.386719 8.78125 29.410156 8.789062 C 29.40625 8.832031 29.390625 8.878906 29.367188 8.921875 C 29.351562 8.953125 29.339844 8.984375 29.324219 9.015625 C 29.273438 9.070312 29.203125 9.070312 29.121094 9.023438 Z M 29.449219 8.144531 C 29.453125 8.148438 29.457031 8.15625 29.460938 8.160156 C 29.476562 8.171875 29.492188 8.191406 29.507812 8.191406 C 29.523438 8.1875 29.539062 8.175781 29.542969 8.160156 C 29.621094 8.171875 29.695312 8.167969 29.769531 8.148438 C 29.742188 8.214844 29.703125 8.277344 29.664062 8.335938 C 29.648438 8.359375 29.628906 8.378906 29.609375 8.398438 C 29.578125 8.398438 29.542969 8.378906 29.488281 8.335938 C 29.464844 8.308594 29.433594 8.289062 29.398438 8.273438 C 29.363281 8.273438 29.328125 8.285156 29.296875 8.304688 C 29.28125 8.316406 29.273438 8.332031 29.277344 8.351562 L 29.3125 8.457031 L 29.285156 8.457031 C 29.246094 8.476562 29.21875 8.457031 29.210938 8.410156 C 29.199219 8.335938 29.152344 8.273438 29.085938 8.234375 C 29.019531 8.175781 28.992188 8.085938 29.023438 8.003906 C 29.113281 7.964844 29.21875 7.996094 29.269531 8.078125 C 29.324219 8.101562 29.375 8.117188 29.429688 8.132812 Z M 29.023438 7.460938 L 29.179688 7.320312 C 29.164062 7.277344 29.148438 7.234375 29.128906 7.195312 C 29.191406 7.203125 29.246094 7.246094 29.265625 7.304688 C 29.285156 7.335938 29.292969 7.371094 29.292969 7.40625 C 29.269531 7.515625 29.28125 7.625 29.324219 7.722656 C 29.339844 7.765625 29.308594 7.789062 29.269531 7.78125 C 29.230469 7.769531 29.183594 7.773438 29.148438 7.792969 C 29.15625 7.75 29.15625 7.703125 29.148438 7.65625 C 29.148438 7.628906 29.101562 7.605469 29.070312 7.582031 C 28.96875 7.5 28.957031 7.492188 29.003906 7.449219 Z M 28.925781 9.46875 C 28.960938 9.410156 28.996094 9.351562 29.039062 9.296875 C 29.046875 9.285156 29.054688 9.273438 29.0625 9.257812 L 29.140625 9.433594 C 29.097656 9.519531 29.03125 9.59375 28.953125 9.652344 C 28.921875 9.578125 28.914062 9.515625 28.90625 9.453125 L 28.925781 9.464844 Z M 29.292969 11.492188 C 29.257812 11.449219 29.21875 11.414062 29.171875 11.378906 L 29.171875 11.332031 C 29.183594 11.339844 29.195312 11.34375 29.203125 11.347656 C 29.234375 11.363281 29.257812 11.40625 29.28125 11.433594 C 29.292969 11.449219 29.296875 11.46875 29.300781 11.484375 Z M 29.234375 10.964844 C 29.203125 10.945312 29.171875 10.925781 29.144531 10.902344 L 29.101562 10.875 C 29.070312 10.511719 29.011719 10.148438 28.953125 9.789062 C 28.988281 9.824219 29.03125 9.851562 29.082031 9.863281 C 29.09375 9.863281 29.109375 9.863281 29.121094 9.863281 C 29.273438 9.875 29.285156 9.886719 29.25 10.050781 C 29.25 10.085938 29.25 10.105469 29.285156 10.113281 C 29.296875 10.117188 29.3125 10.117188 29.324219 10.113281 L 29.34375 10.101562 C 29.335938 10.171875 29.335938 10.242188 29.328125 10.3125 C 29.324219 10.371094 29.351562 10.425781 29.40625 10.453125 C 29.460938 10.472656 29.496094 10.519531 29.507812 10.578125 C 29.511719 10.632812 29.503906 10.6875 29.484375 10.738281 C 29.441406 10.816406 29.390625 10.890625 29.335938 10.957031 C 29.308594 10.984375 29.265625 10.988281 29.234375 10.964844 Z M 29.351562 35.007812 L 29.378906 35.007812 C 29.378906 35.019531 29.378906 35.039062 29.378906 35.039062 C 29.378906 35.039062 29.339844 35.039062 29.351562 35.007812 Z M 29.699219 34.664062 C 29.699219 34.664062 29.71875 34.664062 29.730469 34.664062 C 29.742188 34.664062 29.730469 34.695312 29.730469 34.695312 C 29.695312 34.710938 29.683594 34.699219 29.699219 34.660156 Z M 29.996094 19.542969 C 29.996094 19.542969 30.023438 19.554688 30.019531 19.5625 C 30.019531 19.601562 30.003906 19.605469 29.980469 19.574219 C 29.976562 19.570312 29.988281 19.554688 29.996094 19.542969 Z M 29.863281 19.476562 C 29.894531 19.578125 29.886719 19.6875 29.847656 19.789062 C 29.847656 19.867188 29.855469 19.941406 29.867188 20.015625 C 29.8125 19.761719 29.820312 19.5 29.882812 19.25 L 29.914062 19.25 C 29.980469 19.269531 29.988281 19.296875 29.941406 19.328125 C 29.882812 19.355469 29.851562 19.414062 29.867188 19.476562 Z M 30.144531 20.015625 C 30.144531 20.015625 30.144531 20 30.15625 19.988281 C 30.171875 19.980469 30.1875 20 30.1875 20.007812 C 30.179688 20.046875 30.164062 20.046875 30.152344 20.015625 Z M 30.476562 20.332031 C 30.511719 20.367188 30.511719 20.414062 30.476562 20.449219 C 30.46875 20.457031 30.457031 20.46875 30.449219 20.480469 L 30.425781 20.46875 C 30.402344 20.46875 30.382812 20.429688 30.375 20.402344 C 30.339844 20.332031 30.347656 20.25 30.394531 20.1875 C 30.421875 20.15625 30.453125 20.128906 30.484375 20.101562 C 30.539062 20.050781 30.554688 20 30.519531 19.953125 C 30.46875 19.894531 30.433594 19.828125 30.421875 19.75 C 30.410156 19.691406 30.394531 19.628906 30.382812 19.566406 C 30.378906 19.519531 30.34375 19.484375 30.296875 19.476562 C 30.253906 19.472656 30.214844 19.441406 30.199219 19.402344 C 30.183594 19.359375 30.175781 19.3125 30.179688 19.265625 C 30.195312 19.195312 30.214844 19.121094 30.238281 19.050781 C 30.246094 19.023438 30.273438 19.007812 30.304688 19.011719 C 30.332031 19.019531 30.359375 19.027344 30.382812 19.039062 C 30.488281 19.070312 30.503906 19.066406 30.554688 18.980469 C 30.609375 18.898438 30.59375 18.894531 30.554688 18.867188 C 30.476562 18.78125 30.375 18.722656 30.261719 18.695312 C 30.25 18.691406 30.242188 18.6875 30.234375 18.679688 L 30.28125 18.667969 C 30.292969 18.667969 30.308594 18.667969 30.320312 18.667969 C 30.386719 18.636719 30.4375 18.582031 30.453125 18.511719 C 30.457031 18.496094 30.457031 18.480469 30.453125 18.464844 C 30.453125 18.453125 30.441406 18.433594 30.433594 18.429688 C 30.398438 18.417969 30.371094 18.402344 30.339844 18.382812 L 30.257812 17.890625 C 30.246094 17.847656 30.210938 17.8125 30.164062 17.804688 C 30.140625 17.796875 30.117188 17.785156 30.097656 17.765625 C 30.148438 17.671875 30.097656 17.554688 30.132812 17.457031 C 30.152344 17.417969 30.175781 17.382812 30.203125 17.347656 C 30.21875 17.332031 30.238281 17.324219 30.261719 17.324219 C 30.28125 17.324219 30.300781 17.332031 30.316406 17.347656 C 30.34375 17.382812 30.355469 17.4375 30.394531 17.445312 C 30.4375 17.457031 30.5 17.308594 30.476562 17.261719 C 30.464844 17.234375 30.445312 17.214844 30.421875 17.199219 C 30.394531 17.191406 30.363281 17.191406 30.335938 17.199219 C 30.308594 17.199219 30.269531 17.199219 30.261719 17.179688 C 30.25 17.160156 30.292969 17.121094 30.320312 17.097656 C 30.332031 17.085938 30.339844 17.074219 30.34375 17.0625 C 30.363281 17.03125 30.34375 16.953125 30.308594 16.949219 L 30.1875 16.9375 C 30.125 16.929688 30.078125 16.882812 30.074219 16.820312 C 30.066406 16.792969 30.066406 16.761719 30.074219 16.734375 C 30.109375 16.648438 30.117188 16.554688 30.101562 16.464844 C 30.101562 16.425781 30.125 16.410156 30.15625 16.421875 C 30.183594 16.433594 30.230469 16.449219 30.261719 16.410156 C 30.300781 16.367188 30.355469 16.34375 30.414062 16.34375 L 30.492188 16.34375 C 30.566406 16.355469 30.628906 16.394531 30.667969 16.457031 C 30.730469 16.597656 30.742188 16.753906 30.703125 16.902344 C 30.675781 16.992188 30.699219 17.089844 30.773438 17.152344 C 30.816406 17.199219 30.824219 17.265625 30.796875 17.320312 C 30.789062 17.332031 30.78125 17.34375 30.773438 17.359375 C 30.757812 17.378906 30.746094 17.398438 30.734375 17.421875 L 30.605469 17.507812 C 30.570312 17.527344 30.53125 17.546875 30.496094 17.566406 C 30.460938 17.585938 30.445312 17.617188 30.496094 17.671875 C 30.625 17.769531 30.644531 17.949219 30.546875 18.074219 C 30.546875 18.074219 30.546875 18.101562 30.546875 18.117188 C 30.539062 18.144531 30.558594 18.175781 30.585938 18.1875 C 30.628906 18.199219 30.667969 18.207031 30.707031 18.210938 C 30.761719 18.222656 30.808594 18.253906 30.835938 18.300781 C 30.8125 18.355469 30.792969 18.410156 30.777344 18.46875 L 30.746094 18.46875 C 30.648438 18.429688 30.632812 18.441406 30.632812 18.542969 C 30.632812 18.648438 30.632812 18.757812 30.632812 18.867188 C 30.632812 18.898438 30.621094 18.925781 30.605469 18.953125 C 30.578125 18.988281 30.585938 19.039062 30.617188 19.070312 C 30.644531 19.109375 30.648438 19.15625 30.632812 19.199219 C 30.613281 19.238281 30.59375 19.28125 30.578125 19.320312 C 30.574219 19.367188 30.578125 19.414062 30.59375 19.457031 C 30.605469 19.480469 30.625 19.5 30.65625 19.511719 C 30.714844 19.53125 30.753906 19.585938 30.75 19.644531 C 30.75 19.695312 30.757812 19.742188 30.765625 19.792969 C 30.761719 19.855469 30.773438 19.917969 30.800781 19.976562 C 30.773438 20.007812 30.738281 20.035156 30.703125 20.058594 C 30.597656 20.113281 30.515625 20.199219 30.46875 20.300781 C 30.46875 20.300781 30.472656 20.328125 30.480469 20.335938 Z M 30.675781 21.359375 L 30.648438 21.390625 C 30.625 21.34375 30.597656 21.296875 30.570312 21.25 C 30.574219 21.242188 30.574219 21.238281 30.570312 21.234375 C 30.570312 21.214844 30.582031 21.199219 30.585938 21.1875 L 30.675781 21.277344 C 30.6875 21.285156 30.695312 21.300781 30.699219 21.316406 C 30.699219 21.328125 30.695312 21.34375 30.683594 21.355469 L 30.675781 21.355469 Z M 30.816406 20.496094 C 30.804688 20.503906 30.792969 20.507812 30.78125 20.515625 C 30.675781 20.554688 30.605469 20.492188 30.601562 20.355469 C 30.601562 20.289062 30.617188 20.261719 30.664062 20.28125 L 30.699219 20.300781 C 30.726562 20.328125 30.773438 20.332031 30.804688 20.3125 C 30.789062 20.363281 30.800781 20.421875 30.84375 20.460938 C 30.84375 20.460938 30.84375 20.460938 30.84375 20.46875 Z M 31.09375 32.304688 C 31.09375 32.304688 31.113281 32.304688 31.125 32.304688 C 31.132812 32.304688 31.125 32.335938 31.125 32.335938 C 31.125 32.339844 31.085938 32.339844 31.101562 32.304688 Z M 30.972656 31.769531 C 31.003906 31.769531 31.019531 31.796875 31 31.828125 C 30.996094 31.835938 30.988281 31.847656 30.984375 31.855469 C 30.976562 31.84375 30.972656 31.828125 30.96875 31.816406 C 30.96875 31.816406 30.953125 31.804688 30.933594 31.804688 L 30.933594 31.765625 Z M 31.0625 25.273438 C 31.070312 25.265625 31.082031 25.261719 31.09375 25.257812 C 31.105469 25.257812 31.121094 25.257812 31.132812 25.257812 C 31.132812 25.257812 31.15625 25.277344 31.15625 25.289062 C 31.15625 25.296875 31.144531 25.324219 31.117188 25.335938 C 31.105469 25.339844 31.089844 25.339844 31.078125 25.335938 C 31.066406 25.328125 31.058594 25.320312 31.054688 25.304688 C 31.054688 25.292969 31.0625 25.28125 31.070312 25.273438 Z M 31.078125 25.648438 C 31.078125 25.65625 31.101562 25.671875 31.097656 25.675781 C 31.085938 25.710938 31.066406 25.710938 31.054688 25.675781 C 31.0625 25.660156 31.078125 25.648438 31.085938 25.640625 Z M 30.960938 26.605469 Z M 31.019531 27.402344 C 31.050781 27.402344 31.070312 27.425781 31.070312 27.453125 C 31.066406 27.46875 31.0625 27.480469 31.054688 27.492188 C 31.03125 27.515625 31.015625 27.542969 30.992188 27.554688 L 30.960938 27.566406 C 30.960938 27.507812 30.960938 27.449219 30.960938 27.390625 L 31.023438 27.398438 Z M 31.0625 23.59375 C 31.074219 23.59375 31.09375 23.609375 31.09375 23.617188 C 31.09375 23.640625 31.085938 23.667969 31.078125 23.691406 C 31.039062 23.75 31.015625 23.757812 30.976562 23.730469 L 30.953125 23.714844 C 30.953125 23.671875 30.953125 23.632812 30.953125 23.589844 C 30.992188 23.585938 31.03125 23.585938 31.070312 23.585938 Z M 31.046875 29.695312 C 31.023438 29.707031 30.996094 29.707031 30.972656 29.707031 C 30.964844 29.703125 30.957031 29.699219 30.949219 29.695312 C 30.949219 29.097656 30.949219 28.5 30.949219 27.90625 C 30.96875 27.890625 30.988281 27.882812 31.007812 27.875 C 31.039062 27.863281 31.070312 27.875 31.082031 27.902344 C 31.121094 27.964844 31.15625 28.035156 31.1875 28.101562 C 31.195312 28.148438 31.195312 28.195312 31.1875 28.238281 C 31.179688 28.28125 31.148438 28.316406 31.105469 28.328125 C 31.058594 28.34375 31.035156 28.386719 31.039062 28.433594 C 31.039062 28.492188 31.039062 28.554688 31.039062 28.617188 C 31.042969 28.695312 31.023438 28.769531 30.984375 28.835938 C 30.957031 28.890625 30.984375 28.933594 31.046875 28.972656 C 31.085938 28.992188 31.121094 29.015625 31.152344 29.042969 C 31.210938 29.09375 31.238281 29.171875 31.21875 29.25 C 31.21875 29.277344 31.203125 29.304688 31.183594 29.324219 C 31.132812 29.347656 31.085938 29.378906 31.046875 29.417969 C 30.992188 29.484375 30.980469 29.515625 31.03125 29.621094 C 31.070312 29.648438 31.082031 29.671875 31.054688 29.6875 Z M 31.046875 29.695312 "/>
<path style=" stroke:none;fill-rule:nonzero;fill:rgb(71.764706%,15.686275%,17.254902%);fill-opacity:1;" d="M 11 15.597656 C 11 15.597656 11 15.621094 11.015625 15.628906 C 11.046875 15.667969 11.074219 15.703125 11.109375 15.742188 C 11.125 15.753906 11.144531 15.769531 11.164062 15.777344 C 11.171875 15.78125 11.183594 15.78125 11.195312 15.777344 C 11.222656 15.765625 11.226562 15.75 11.214844 15.722656 C 11.167969 15.59375 11.171875 15.582031 11.292969 15.554688 C 11.304688 15.554688 11.316406 15.554688 11.324219 15.554688 C 11.378906 15.527344 11.421875 15.484375 11.4375 15.425781 C 11.4375 15.414062 11.4375 15.398438 11.4375 15.386719 C 11.4375 15.375 11.4375 15.359375 11.421875 15.355469 C 11.3125 15.3125 11.265625 15.199219 11.171875 15.117188 C 11.15625 15.101562 11.136719 15.117188 11.117188 15.132812 C 11.097656 15.148438 11.066406 15.199219 11.085938 15.226562 C 11.101562 15.25 11.125 15.285156 11.148438 15.3125 C 11.167969 15.34375 11.171875 15.375 11.125 15.394531 C 11.039062 15.425781 11.039062 15.523438 11 15.597656 Z M 11 15.597656 "/>
<path style=" stroke:none;fill-rule:nonzero;fill:rgb(71.764706%,15.686275%,17.254902%);fill-opacity:1;" d="M 10.867188 19.574219 C 10.867188 19.574219 10.882812 19.550781 10.878906 19.546875 C 10.835938 19.476562 10.867188 19.433594 10.914062 19.390625 C 10.929688 19.375 10.953125 19.367188 10.972656 19.371094 C 10.996094 19.375 11.015625 19.386719 11.023438 19.40625 C 11.035156 19.429688 11.039062 19.457031 11.050781 19.476562 C 11.054688 19.488281 11.058594 19.5 11.070312 19.503906 C 11.082031 19.511719 11.09375 19.511719 11.105469 19.507812 C 11.128906 19.507812 11.148438 19.492188 11.15625 19.472656 C 11.171875 19.421875 11.171875 19.371094 11.15625 19.324219 C 11.140625 19.277344 11.121094 19.230469 11.101562 19.183594 C 11.085938 19.136719 11.078125 19.144531 11.054688 19.164062 C 11.035156 19.183594 11.007812 19.195312 10.980469 19.195312 C 10.953125 19.195312 10.925781 19.183594 10.90625 19.164062 C 10.886719 19.140625 10.871094 19.136719 10.851562 19.164062 C 10.816406 19.195312 10.789062 19.238281 10.78125 19.285156 C 10.78125 19.324219 10.78125 19.363281 10.78125 19.425781 C 10.78125 19.453125 10.789062 19.5 10.796875 19.550781 C 10.800781 19.601562 10.84375 19.59375 10.867188 19.574219 Z M 10.867188 19.574219 "/>
<path style=" stroke:none;fill-rule:nonzero;fill:rgb(71.764706%,15.686275%,17.254902%);fill-opacity:1;" d="M 11.054688 18.730469 C 11.050781 18.792969 11.050781 18.855469 11.054688 18.917969 C 11.054688 18.9375 11.085938 18.953125 11.101562 18.960938 C 11.117188 18.972656 11.167969 18.945312 11.171875 18.910156 C 11.175781 18.875 11.171875 18.859375 11.179688 18.828125 C 11.183594 18.792969 11.183594 18.757812 11.179688 18.722656 C 11.171875 18.703125 11.15625 18.6875 11.132812 18.679688 C 11.09375 18.664062 11.058594 18.695312 11.054688 18.730469 Z M 11.054688 18.730469 "/>
<path style=" stroke:none;fill-rule:nonzero;fill:rgb(71.764706%,15.686275%,17.254902%);fill-opacity:1;" d="M 11.304688 18 C 11.304688 17.992188 11.289062 17.976562 11.28125 17.976562 C 11.203125 17.949219 11.117188 17.992188 11.085938 18.066406 C 11.082031 18.078125 11.082031 18.085938 11.085938 18.09375 C 11.09375 18.101562 11.101562 18.109375 11.113281 18.113281 C 11.125 18.113281 11.136719 18.113281 11.144531 18.113281 C 11.191406 18.085938 11.242188 18.058594 11.289062 18.027344 C 11.296875 18.023438 11.300781 18.011719 11.304688 18 Z M 11.304688 18 "/>
<path style=" stroke:none;fill-rule:nonzero;fill:rgb(71.764706%,15.686275%,17.254902%);fill-opacity:1;" d="M 11.105469 19.726562 C 11.09375 19.746094 11.089844 19.769531 11.082031 19.792969 C 11.066406 19.8125 11.058594 19.835938 11.046875 19.859375 C 11.046875 19.878906 11.058594 19.898438 11.082031 19.902344 C 11.109375 19.90625 11.105469 19.902344 11.113281 19.902344 C 11.121094 19.902344 11.164062 19.859375 11.191406 19.835938 C 11.199219 19.824219 11.203125 19.816406 11.203125 19.800781 C 11.203125 19.789062 11.199219 19.777344 11.191406 19.769531 C 11.167969 19.746094 11.144531 19.722656 11.117188 19.699219 C 11.113281 19.707031 11.109375 19.714844 11.105469 19.726562 Z M 11.105469 19.726562 "/>
<path style=" stroke:none;fill-rule:nonzero;fill:rgb(71.764706%,15.686275%,17.254902%);fill-opacity:1;" d="M 10.859375 18.125 C 10.863281 18.089844 10.863281 18.054688 10.859375 18.015625 C 10.859375 18.003906 10.835938 17.992188 10.828125 17.980469 C 10.816406 17.96875 10.808594 18 10.808594 18.007812 C 10.804688 18.042969 10.804688 18.078125 10.808594 18.113281 C 10.808594 18.128906 10.828125 18.140625 10.84375 18.148438 C 10.855469 18.160156 10.851562 18.140625 10.859375 18.125 Z M 10.859375 18.125 "/>
<path style=" stroke:none;fill-rule:nonzero;fill:rgb(71.764706%,15.686275%,17.254902%);fill-opacity:1;" d="M 10.980469 20.46875 C 10.972656 20.472656 10.964844 20.480469 10.960938 20.488281 C 10.960938 20.488281 10.972656 20.5 10.976562 20.507812 L 11 20.492188 C 10.992188 20.484375 10.988281 20.46875 10.980469 20.46875 Z M 10.980469 20.46875 "/>
<path style=" stroke:none;fill-rule:nonzero;fill:rgb(71.764706%,15.686275%,17.254902%);fill-opacity:1;" d="M 11.15625 18.257812 L 11.175781 18.242188 L 11.160156 18.21875 C 11.160156 18.21875 11.140625 18.226562 11.140625 18.234375 C 11.140625 18.242188 11.148438 18.25 11.15625 18.257812 Z M 11.15625 18.257812 "/>
<path style=" stroke:none;fill-rule:nonzero;fill:rgb(71.764706%,15.686275%,17.254902%);fill-opacity:1;" d="M 11.207031 26.960938 C 11.21875 26.941406 11.242188 26.933594 11.265625 26.933594 C 11.285156 26.933594 11.308594 26.941406 11.320312 26.960938 C 11.335938 26.980469 11.34375 27.003906 11.355469 27.027344 C 11.359375 27.039062 11.367188 27.046875 11.378906 27.050781 C 11.390625 27.054688 11.402344 27.054688 11.414062 27.046875 C 11.433594 27.046875 11.453125 27.03125 11.457031 27.003906 C 11.46875 26.953125 11.460938 26.902344 11.4375 26.859375 L 11.363281 26.726562 C 11.347656 26.699219 11.332031 26.691406 11.3125 26.710938 C 11.269531 26.757812 11.222656 26.777344 11.167969 26.734375 C 11.144531 26.714844 11.128906 26.714844 11.113281 26.734375 C 11.078125 26.769531 11.0625 26.816406 11.058594 26.867188 C 11.058594 26.90625 11.058594 26.941406 11.070312 27.003906 C 11.070312 27.03125 11.089844 27.078125 11.101562 27.128906 C 11.117188 27.175781 11.164062 27.167969 11.1875 27.140625 C 11.191406 27.132812 11.191406 27.121094 11.1875 27.113281 C 11.140625 27.054688 11.164062 27.007812 11.207031 26.960938 Z M 11.207031 26.960938 "/>
<path style=" stroke:none;fill-rule:nonzero;fill:rgb(71.764706%,15.686275%,17.254902%);fill-opacity:1;" d="M 11.28125 26.472656 C 11.28125 26.488281 11.3125 26.503906 11.332031 26.511719 C 11.351562 26.519531 11.394531 26.484375 11.394531 26.449219 C 11.394531 26.414062 11.394531 26.398438 11.394531 26.367188 C 11.390625 26.332031 11.386719 26.296875 11.375 26.261719 C 11.375 26.246094 11.34375 26.234375 11.324219 26.226562 C 11.304688 26.21875 11.257812 26.25 11.261719 26.285156 C 11.265625 26.347656 11.269531 26.410156 11.28125 26.472656 Z M 11.28125 26.472656 "/>
<path style=" stroke:none;fill-rule:nonzero;fill:rgb(71.764706%,15.686275%,17.254902%);fill-opacity:1;" d="M 11.371094 25.507812 C 11.289062 25.496094 11.210938 25.546875 11.191406 25.625 C 11.191406 25.636719 11.195312 25.644531 11.203125 25.652344 C 11.210938 25.660156 11.222656 25.664062 11.230469 25.667969 C 11.242188 25.667969 11.253906 25.667969 11.261719 25.667969 C 11.304688 25.632812 11.351562 25.597656 11.390625 25.5625 C 11.394531 25.554688 11.394531 25.542969 11.390625 25.535156 C 11.390625 25.523438 11.382812 25.507812 11.371094 25.507812 Z M 11.371094 25.507812 "/>
<path style=" stroke:none;fill-rule:nonzero;fill:rgb(71.764706%,15.686275%,17.254902%);fill-opacity:1;" d="M 11.304688 25.78125 L 11.285156 25.761719 C 11.285156 25.769531 11.269531 25.773438 11.269531 25.78125 C 11.269531 25.789062 11.28125 25.796875 11.289062 25.804688 Z M 11.304688 25.78125 "/>
<path style=" stroke:none;fill-rule:nonzero;fill:rgb(71.764706%,15.686275%,17.254902%);fill-opacity:1;" d="M 13.960938 7.484375 C 13.972656 7.5 13.988281 7.519531 14.007812 7.53125 C 14.015625 7.539062 14.027344 7.542969 14.039062 7.542969 C 14.066406 7.542969 14.074219 7.523438 14.070312 7.492188 C 14.058594 7.355469 14.070312 7.347656 14.1875 7.351562 C 14.199219 7.351562 14.210938 7.359375 14.222656 7.351562 C 14.28125 7.339844 14.332031 7.308594 14.363281 7.257812 C 14.367188 7.242188 14.371094 7.230469 14.371094 7.21875 C 14.371094 7.207031 14.371094 7.1875 14.371094 7.1875 C 14.277344 7.117188 14.253906 6.984375 14.191406 6.890625 C 14.179688 6.871094 14.15625 6.875 14.132812 6.890625 C 14.082031 6.921875 14.066406 6.941406 14.078125 6.96875 C 14.085938 7 14.101562 7.039062 14.117188 7.070312 C 14.128906 7.105469 14.117188 7.140625 14.078125 7.144531 C 13.984375 7.15625 13.957031 7.25 13.902344 7.3125 C 13.902344 7.3125 13.902344 7.335938 13.902344 7.347656 C 13.921875 7.398438 13.941406 7.441406 13.960938 7.484375 Z M 13.960938 7.484375 "/>
<path style=" stroke:none;fill-rule:nonzero;fill:rgb(71.764706%,15.686275%,17.254902%);fill-opacity:1;" d="M 13.113281 9.730469 C 13.125 9.699219 13.132812 9.664062 13.140625 9.628906 C 13.140625 9.613281 13.125 9.597656 13.117188 9.585938 C 13.109375 9.570312 13.09375 9.59375 13.09375 9.605469 C 13.078125 9.636719 13.070312 9.671875 13.0625 9.707031 C 13.0625 9.722656 13.078125 9.738281 13.089844 9.75 Z M 13.113281 9.730469 "/>
<path style=" stroke:none;fill-rule:nonzero;fill:rgb(71.764706%,15.686275%,17.254902%);fill-opacity:1;" d="M 12.632812 12.03125 C 12.632812 12.03125 12.617188 12.03125 12.613281 12.042969 C 12.609375 12.054688 12.613281 12.0625 12.613281 12.070312 L 12.636719 12.054688 C 12.640625 12.042969 12.640625 12.03125 12.632812 12.03125 Z M 12.632812 12.03125 "/>
</g>
</svg>
