<?xml version="1.0" encoding="utf-8"?>
<!-- Generator: Adobe Illustrator 24.2.3, SVG Export Plug-In . SVG Version: 6.00 Build 0)  -->
<svg version="1.1" id="图层_1" xmlns="http://www.w3.org/2000/svg" xmlns:xlink="http://www.w3.org/1999/xlink" width="500px" height="500px"
	 viewBox="0 0 1000 1000" style="enable-background:new 0 0 1000 1000;" xml:space="preserve">
<style type="text/css">
	.st0{fill:#B7282C;}
</style>
<g>
	<path class="st0" d="M692.27,710.05c-0.81-0.97-1.59-1.91-2.41-2.89c-0.3-0.37-0.16-0.77,0.32-0.96c0.76-0.3,1.3-0.73,1.35-1.81
		c0.09-1.96-0.49-4.08,0.77-5.8c0.24-2.22,0.18-4.44-0.22-6.64c-0.98-1.26-1.05-2.83-1.12-4.4c-0.05-1.08-0.69-1.42-1.44-1.77
		c-0.68-0.31-0.67-0.73,0.18-1.19c0.56-0.31,1-0.66,1.06-1.36c0.08-0.89-0.04-1.8,0.04-2.68c0.18-2.11-0.54-3.91-1.39-5.68
		c-0.31-0.64-0.31-0.71-1.28-0.25c-0.7,0.33-1.03-0.2-1.41-0.64c-0.5-0.57-0.42-1.13-0.06-1.67c0.84-1.27,2.45-1.19,3.2-2.61
		c0.27-0.51,0.31-0.84-0.1-1.08c-0.33-0.19-0.7-0.3-1.03-0.51c-0.47-0.29-0.46-0.3,0.63-1.18c0.3-0.24,0.75-0.55,0.77-0.86
		c0.08-1.11,0.17-2.28-0.08-3.33c-0.18-0.79-0.82-1.48-1.35-2.11c-0.92-1.08-1.23-2.39-0.7-3.65c0.53-1.24,0.84-2.42,0.76-3.81
		l-0.3-7.39c-0.02-0.73-0.38-1.26-0.69-1.81c-0.24-0.42-0.21-0.74,0.06-1.18c0.73-1.19,0.48-2.55,0.37-3.88
		c-0.06-0.72-0.4-1.26-1.04-1.35c-0.94-0.14-1.81-0.42-2.71-0.89c-0.45-0.24-0.92-0.38-1.41-0.51c0-0.55,0-1.1-0.01-1.64
		c0.14,0.12,0.28,0.2,0.44,0.2c1.14,0,2.28-0.02,3.41-0.06c0.58-0.02,1.03-0.58,1.11-1.23c0.18-1.52-0.28-3.17,0.66-4.55
		c0.11-0.17-0.13-0.81-0.33-1.12c-0.41-0.6-0.49-1.3-0.22-1.86c0.39-0.83,0.64-1.51,0.04-2.37c-0.22-0.32-0.34-0.81-0.37-1.23
		l-0.24-5.38c-0.09-1.99,0.13-4.05-1.07-5.78c0.16-0.58,0.79-1.08,0.33-1.75c-0.35-0.51-0.8-1.05-1.3-1.28
		c-0.89-0.4-1.9-0.25-2.79-0.75c-0.02-1.16-0.04-2.31-0.06-3.47c0.07,0.03,0.13,0.04,0.2,0.07c0.17,0.09,0.35,0.18,0.5,0.32
		c0.59,0.56,1.21,1.13,1.8,1.68c0.31,0.27,0.65,0.14,0.95-0.26c0.5-0.66,1-1.32,0.96-2.32c-0.06-1.56-0.18-3.14-0.14-4.69l0.06,0.23
		c0.23,1.09,0.91,1.4,1.72,1.29c1.07-0.15,1.84,0.24,2.29,1.48c0.06,0.17,0.3,0.27,0.46,0.4c0.13-0.36,0.39-0.73,0.36-1.07
		c-0.08-0.88-0.24-1.78-0.47-2.64c-0.18-0.68-0.65-1.04-1.29-1.15c-0.58-0.1-1.1-0.36-1.14-1.24c-0.04-0.79,0.34-1.16,0.88-1.43
		c0.41-0.21,0.68-0.68,0.47-0.91c-1-1.12-0.39-1.95,0.14-2.84c0.21-0.35,0.43-0.75,0.49-1.16c0.06-0.4,0.05-1.01-0.16-1.26
		c-0.87-1.02-1.36-2.17-1.55-3.56l-0.76-4.64c-0.28-1.75-0.77-3.53,0.02-5.22c-0.31-0.52-0.96-0.92-0.67-1.66
		c0.44-1.13,0.36-2.13-0.47-3.01c-0.35-0.38-0.38-0.69-0.16-1.18c0.36-0.81,0.28-1.71,0.13-2.6l-1.88-11.5
		c0.18-1.47-0.07-2.96-0.3-4.44c-0.26-0.33-0.45-0.69-0.6-1.05l-0.43-2.61c-0.01-0.47-0.01-0.95-0.03-1.42
		c-0.03-0.77-0.22-1.44-0.55-2.08l-0.24-1.44c-0.1-0.65-0.24-1.32,0.05-1.96c0.27-0.59,0.35-1.21,0.34-1.84
		c0.06-0.24,0.1-0.49,0.09-0.77l-0.36-6.7c-0.02-0.3-0.5-0.72-0.81-0.79c-0.06-0.01-0.13-0.03-0.2-0.04l-2.05-12.35l-1.5-8.61
		c-0.09-0.5-0.45-0.76-0.71-0.64c-0.14,0.06-0.24,0.34-0.28,0.54c-0.04,0.21,0.04,0.44,0.05,0.67c0.09,2.69-0.6,3.84-2.56,4.21
		c-1.14,0.22-2.29,0.46-2.88-1.26c-1.35-0.88-2.73-1.6-4.27-1.61c-0.03-0.57-0.06-1.13-0.1-1.7c0.02-0.01,0.03-0.02,0.05-0.03
		c0.16-0.12,0.27-0.31,0.42-0.44c1.09-0.96,1.44-0.92,2.29,0.32c0.24,0.35,0.48,0.8,0.79,0.94c0.3,0.13,0.71-0.06,1.04-0.19
		c0.14-0.06,0.3-0.35,0.29-0.54c-0.08-1.1-0.13-2.23-0.34-3.31c-0.29-1.45-0.02-2.63,0.74-3.7c0.24-0.33,0.43-0.71,0.65-1.07
		c0.45-0.73,1.16-0.64,1.87,0.13c0.61,0.66,0.88,1.47,1.04,2.36c0.08,0.47,0.27,0.84,0.67,1.04c0.27,0.14,0.48-0.82,0.34-1.7
		l-0.66-3.98l-0.06,0.01l-0.78-4.64c-0.09-0.49-0.38-0.8-0.72-0.79c-0.16,0-0.34,0.2-0.45,0.37c-0.44,0.71-0.7,1.48-0.84,2.39
		c-0.24,1.57-1.07,2.81-2.07,3.78c-0.4,0.39-1.39-0.91-1.7,0.46c-0.14,0.63-0.22,1.3-0.44,1.89c-0.32,0.86-0.1,1.75-0.13,2.62
		c-0.02,0.71-0.29,1.23-0.91,1.41c-0.36,0.11-0.84,0.1-1.07,0.37c-0.05,0.06-0.11,0.11-0.16,0.17c-0.11-1.48-0.23-2.97-0.37-4.45
		c0.68-0.34,0.84-0.82,0.71-1.61c-0.4-2.21-0.8-4.41-1.19-6.61c-0.05-0.23-0.32-0.52-0.59-0.67c-0.21-1.49-0.43-2.97-0.66-4.46
		c0.01-0.04,0.02-0.07,0.03-0.11c0.1-0.45,0.09-0.7-0.17-0.82c-0.32-2.05-0.67-4.1-1.02-6.14c0.09-0.22,0.07-0.47-0.14-0.8
		c-0.07-0.37-0.13-0.75-0.2-1.12c0.38-1.65-0.18-3.54,0.62-5.11c0.14-0.27-0.02-0.93-0.23-1.22c-0.21-0.3-0.66-0.4-1.01-0.56
		c-0.03-0.01-0.05-0.02-0.08-0.04l0.06-0.54c0.21-1.65-0.12-3.13-0.72-4.72c-0.62-1.63-0.11-3.13,1.18-4.22
		c0.08-0.07,0.16-0.14,0.25-0.21c0.7,0.3,1.39,0.6,2.1,0.87c0.16,0.06,0.37-0.05,0.55-0.08c0.14-0.12,0.32-0.21,0.41-0.37
		c0.07-0.12,0.11-0.4,0.04-0.5c-0.51-0.76-1.1-1.16-1.74-1.3c0.14-0.2,0.25-0.42,0.33-0.65c0.4-1.2,0.37-2.63,0.35-3.96
		c0-0.09-0.04-0.18-0.09-0.27c0.14-0.2,0.24-0.45,0.26-0.67c0.04-0.65-0.17-1.34-0.17-2c0-0.12-0.02-0.24-0.03-0.36
		c0.24-0.23,0.17-0.58-0.07-1.1c-0.07-0.15-0.16-0.27-0.25-0.4c-0.38-1.05-1-1.95-1.61-2.88c-0.4,0.14-0.69,0.41-0.93,0.74
		c-0.47-0.35-0.92-0.74-1.24-1.28c-0.43-0.72-0.5-1.42,0.2-1.99c0.44-0.35,0.84-0.79,1.45-0.64c0.11,1.06,0.34,2.1,0.52,3.15
		c0.77-0.25,1.09-1.03,1.48-1.73c0.22-0.39,0.2-0.66-0.04-0.96c0.06-0.08,0.12-0.18,0.2-0.29c1.26-1.93,2.33-3.93,2.25-6.5
		c-0.03-1.07,0.18-2.14,0.14-3.22c-0.03-0.85-0.58-1.37-1.29-1.85c-1.09-0.74-1.08-1.25-0.15-1.47c1.02-0.24,1.89-0.51,2.03-1.8
		c0.2-1.86,0.41-3.73,1.8-5.02c0.68-2.55,0.92-5.19,0.77-7.9c-1.53-2.34-0.63-4.74-0.6-7.11c0.02-1.31-0.66-1.94-1.65-2.46
		c-0.62-0.33-0.77-0.84-0.35-1.22c1.14-0.99,2.25-1.95,3.38-2.94c0.79-0.71,1.02-1.7,1.05-2.82c0.01-0.59-0.01-1.13-0.48-1.5
		c-1.03-0.82-2.24-1.44-2.84-2.73c-0.06-0.13-0.11-0.26-0.16-0.39c0.43-0.29,0.83-0.59,1.19-0.96c0.89-0.9,1.85-1.58,2.97-2.15
		c0.75-0.38,0.91-1.11,0.63-1.92c-0.53-1.5-0.91-3.08-2.42-4.06c-0.58-0.37-0.77-0.7-0.68-1.26c0.12-0.73,0.3-1.46-0.04-2.27
		l-3.37-8.16c-0.6-1.55-1.59-2.7-2.88-3.81c-1.32-1.14-1.58-2.7-0.97-4.28c0.35-0.91,0.81-1.94,0.64-2.88
		c-0.22-1.25-0.92-2.48-1.58-3.65c-0.19-0.34-0.91-0.47-1.41-0.61c-1.83-0.48-1.85-0.48-1.4-1.01c0.32-0.36,0.73-0.64,1.05-1
		c0.39-0.43,0.17-0.78-0.42-1.21c-1.58-1.16-3.46-0.53-5.1-1.33c-0.18-0.97-0.37-1.94-0.58-2.9c0.2-0.24,0.5-0.4,1.01-0.38
		c1.46,0.08,1.42-0.01,1.49-0.83c0.19-2.3,0.18-4.56-1.11-6.78c-0.54-0.93-0.86-1.97-1.4-2.9c-0.43-0.73-1.16-0.93-2.02-1.02
		c-1.31-0.13-1.54-0.58-0.83-1.22c0.78-0.7,1.42-1.35,0.93-2.55c-0.71-1.74-1.41-3.47-0.81-5.28c-0.61-2.57-1.65-5.01-3.08-7.32
		c-2.46-1.33-2.81-3.87-3.91-5.97c-0.61-1.16-1.51-1.39-2.62-1.38c-0.7,0-1.08-0.37-0.89-0.91c0.53-1.42,1.05-2.78,1.58-4.19
		c0.36-1,0.09-1.98-0.42-2.98c-0.27-0.53-0.55-0.99-1.13-1.09c-1.29-0.23-2.66-0.2-3.8-1.05c-0.86-0.64-1.57-1.49-2.41-2.18
		c-0.41-0.34-0.94-0.53-1.44-0.75c-0.24-0.1-0.57-0.18-0.77-0.1c-0.16,0.07-0.31,0.42-0.26,0.61c0.43,1.78,0.57,3.51,0.39,5.3
		c-0.08,0.83-0.19,1.53-0.7,1.98c-0.9-1-1.83-1.98-2.77-2.94c0.19,0.05,0.39,0.09,0.51,0.02c0.16-0.08,0.29-0.45,0.22-0.64
		l-1.86-5.08c-0.45,0.18-0.92,0.34-1.36,0.54c-0.81,0.38-1.01,0.99-0.84,1.79c0.01,0.06,0.03,0.11,0.05,0.17
		c-2.02-1.87-4.14-3.62-6.36-5.22l0.17-0.53c-0.61-0.54-1.21-1.07-1.84-1.62c-0.19-0.18-0.27-0.47-0.4-0.7l-0.4-0.71
		c-0.58-1.21-1.56-1.42-2.62-1.12c-1.4,0.4-2.53,0.12-3.43-1.21c-0.13-0.19-0.47-0.25-0.72-0.36c-0.05,0.27-0.16,0.55-0.22,0.82
		c-1.66-0.72-3.37-1.36-5.14-1.89c-0.18-0.79-0.35-1.58-0.71-2.31c-0.52-1.06-0.82-2.09-0.96-3.2c-0.09-0.75-0.71-1.16-1.55-1.26
		c-1.55-0.18-3.14-0.51-4.55,0.3c-0.53,0.31-0.9,0.33-1.39,0.03c-0.63-0.39-1.24-0.82-2.1-0.87l-8.64-0.58
		c-1.63-0.14-3.02,0.19-4.48,0.76c-1.49,0.59-3.02,0.18-4.25-0.93c-0.72-0.64-1.51-1.41-2.42-1.65c-1.22-0.32-2.6-0.26-3.89-0.2
		c-0.37,0.02-0.75,0.53-1.04,0.87c-1.06,1.25-1.07,1.27-1.4,0.71c-0.23-0.39-0.34-0.83-0.56-1.22c-0.27-0.48-0.65-0.44-1.26-0.15
		c-1.32,0.65-1.59,1.93-2.36,2.92c-1.22-0.15-2.38-0.29-3.5-0.43c-0.03-0.04-0.06-0.08-0.09-0.11c0-0.15,0.03-0.32,0.13-0.51
		c0.57-1.12,0.48-1.12-0.26-1.5c-2.04-1.06-4.13-1.95-6.61-1.81c-0.44,0.03-0.89,0.01-1.34-0.01c0.1-0.27,0.19-0.55,0.26-0.84
		c0.08-0.32-0.15-0.6-0.48-0.85c-0.7-0.52-1.02-0.6-1.22-0.23c-0.22,0.46-0.43,0.9-0.65,1.36c-0.29,0.56-0.58,0.63-1.01-0.03
		c-0.83-1.29-1.95-0.99-2.95-1.31c-0.08-0.02-0.21,0.22-0.28,0.38c-0.16,0.37-0.32,0.75-0.47,1.13c-0.02,0-0.03-0.01-0.05-0.01
		c-1.84-0.13-3.67-0.27-5.12-1.46c-2.57-0.54-5.16-0.68-7.77-0.47c-2.06,1.41-4.51,0.68-6.82,0.72c-1.27,0.02-1.79,0.64-2.16,1.52
		c-0.24,0.56-0.71,0.7-1.14,0.34c-1.12-0.98-2.2-1.93-3.31-2.91c-0.8-0.68-1.79-0.86-2.88-0.85c-0.58,0.01-1.09,0.04-1.39,0.46
		c-0.65,0.93-1.09,2.02-2.26,2.58c-0.88,0.42-1.9,0.65-2.82,1.04c-0.45,0.19-0.81,0.53-1.17,0.84c-0.18,0.15-0.36,0.38-0.36,0.57
		c0.01,0.16,0.28,0.41,0.47,0.44c1.78,0.37,3.42,0.94,5,1.79c0.98,0.52,1.72,0.98,1.69,1.98c-0.01,0.26,0.02,0.51,0.06,0.75
		c-3.33,0.73-6.54,1.55-9.68,2.44c0.12-0.39,0.06-0.64-0.26-0.89c-0.55-0.42-1.11-0.83-1.75-0.71c-0.44,0.1-0.88,0.2-1.6,0.37
		c-0.28,0.15-0.81,0.42-1.34,0.69c-0.32,0.16-0.23,1.09,0.15,1.44c0.09,0.08,0.33,0.14,0.36,0.08c0.49-0.86,1.07-0.68,1.69-0.18
		c-0.78,0.23-1.55,0.47-2.32,0.71l-0.51-0.4c-0.7,0.27-1.4,0.53-2.12,0.81c-0.07,0.02-0.15,0.02-0.23,0.03c0-0.02,0-0.05-0.01-0.07
		c-0.13-0.31-0.43-0.47-0.75-0.38l-3.07,0.88l-0.02-0.05l-2.63,0.77c-0.58,0.17-1.07,0.69-0.88,0.89c0.28,0.29,0.57,0.33,0.89,0.25
		c0.43-0.11,0.85-0.16,1.3-0.05c-2.22,0.78-4.42,1.59-6.61,2.41c0.27-0.47,0.73-0.87,1.43-1.22c0.14-0.07,0.31-0.08,0.42-0.19
		c0.11-0.1,0.23-0.29,0.21-0.44c-0.03-0.28-0.33-0.51-0.66-0.43l-5.73,1.59l-12.73,3.7c-0.75,0.22-1.43,0.53-1.85,1.3
		c-0.27,0.49-0.72,0.59-1.15,0.72l-5.7,1.67l-10.53,3.1c-0.59,0.17-1.16,0.41-1.5,1.02c-0.21,0.37-0.4,0.45-0.77,0.26
		c-0.85-0.45-1.48-0.17-1.98,0.61c-0.33,0.52-0.83,0.06-1.26-0.04c-0.69,1.3-1.95,1.46-3.1,1.81l-3.07,0.9
		c-0.9,0.31-1.79,0.25-2.74-0.19c-0.23-0.11-0.6,0.1-0.81,0.29c-0.22,0.2-0.37,0.53-0.5,0.85c-0.32,0.79-0.57,1.63-1.64,1.11
		c-0.22-0.11-0.4,0.29-0.36,0.74c0.05,0.58-0.02,1.05-0.51,1.29c-0.54,0.27-0.9-0.12-1.19-0.61c-0.32-0.54-0.72-0.85-1.19-0.78
		c-0.6,0.09-1.2,0.25-1.76,0.48c-0.22,0.09-0.33,0.46-0.5,0.7c0.14,0.1,0.29,0.29,0.42,0.28c0.92-0.02,1.45,0.55,1.79,1.58
		c0.26,0.78,0.71,1.29,1.45,1.12l0.46-0.06c0.15-0.02,0.31-0.1,0.45-0.06c0.47,0.15,0.92,0.28,1.38,0.43l0.93-1.76
		c0.27-0.52,0.33-0.5,1.04,0.28c0.24,0.26,0.5,0.65,0.74,0.69c0.44,0.06,0.96,0.04,1.31-0.2c0.49-0.34,0.83-0.94,1.29-1.36
		c0.54-0.5,1.59-0.42,2.1,0.26c0.48,0.65,0.96,1,1.63,1.03c0.42,0.02,0.58,0.31,0.5,0.72c-0.15,0.71-0.13,1.43,0.08,2.18
		c0.23,0.83-0.09,1.28-0.54,1.82c-0.72,0.88-1.53,1.54-2.47,2.04c-0.1,0.06-0.2,0.29-0.17,0.42c0.04,0.16,0.19,0.33,0.33,0.43
		c0.27,0.21,0.56,0.45,0.85,0.56c0.61,0.22,1.24,0.29,1.84,0.54c0.09,0.04,0.17,0.11,0.26,0.16c-1.14,1.24-2.21,2.53-3.2,3.88
		c-0.15,0.04-0.29,0.09-0.44,0.13c-0.56,0.15-1.13,0.24-1.7,0.38c-0.69,0.17-0.88,0.5-0.4,1.43c0.22,0.41,0.36,0.81,0.47,1.2
		c-3.37,5.54-5.61,11.88-6.66,19.19c-0.47,3.29-1.81,8.84-3.56,9.19c-9.29,1.83-9.25,7.86-9.36,13.85c-0.34,0.62-0.6,1.29-0.69,2.08
		c-0.08,0.66-0.36,1.32-0.4,1.97c-0.02,0.37,0.2,0.88,0.46,1.06c0.07,0.05,0.15,0.09,0.23,0.13c-0.04,0.22-0.09,0.44-0.14,0.66
		c-0.31,1.3-0.63,2.6-0.94,3.9c-0.44,0.17-0.86,0.47-1.27,0.95c-0.08,0.09-0.07,0.37-0.02,0.5c0.07,0.17,0.24,0.28,0.36,0.41
		c0.14,0.04,0.29,0.13,0.43,0.15c-0.16,0.64-0.32,1.28-0.48,1.92c-0.05,0.03-0.1,0.06-0.13,0.11c-0.02,0.06,0,0.14,0.04,0.23
		c-0.62,2.5-1.25,4.99-1.89,7.49c-0.1-0.14-0.22-0.27-0.33-0.37c-0.39-0.36-1.24-0.02-1.41,0.55c-0.32,1.04-0.65,2.09-0.85,3.16
		c-0.05,0.28,0.3,0.69,0.55,0.92c0.24,0.23,0.65,0.18,0.97-0.02c-0.55,2.17-1.1,4.35-1.64,6.52c0-0.07,0.01-0.13,0-0.2
		c-0.09-0.85-0.19-1.7-0.29-2.55c-0.05-0.58-0.27-0.79-0.7-0.59c-0.99,0.45-1.88,0.44-2.45-0.63c-0.25-0.47-0.49-0.58-0.92-0.32
		c-0.7,0.42-1.39,0.84-1.72,1.75c-0.21,0.63-0.41,1.26-0.75,2.29c-0.07,0.46-0.2,1.32-0.32,2.18c-0.08,0.52,0.73,1.04,1.26,0.78
		c0.13-0.06,0.33-0.33,0.3-0.41c-0.41-1.36,0.29-1.96,1.28-2.44c0.74-0.36,1.62-0.01,1.78,0.81c0.08,0.41,0.05,0.86,0.09,1.29
		c0.06,0.51,0.35,0.69,0.79,0.74c0.38,0.04,0.77,0.03,1.02-0.39c0.05-0.08,0.09-0.17,0.13-0.26c-0.39,1.56-0.77,3.12-1.14,4.68
		c-0.16-0.26-0.32-0.52-0.49-0.78c-0.01-0.02-0.34,0.18-0.46,0.34c-0.25,0.33-0.47,0.7-0.7,1.06c-0.29,0.3-0.63,0.57-0.84,0.93
		c-0.19,0.33,0,0.69,0.38,0.88c0.16,0.09,0.38,0.21,0.53,0.14c0.37-0.16,0.73-0.35,1.09-0.54c-0.37,1.54-0.73,3.08-1.08,4.62
		c-0.06,0.26-0.13,0.53-0.19,0.79c-0.4-0.03-0.93,0.32-1.15,0.05c-0.89-1.08-1.57-2.41-1.63-3.99c-0.04-0.91-0.2-1.72-0.56-2.47
		c-0.09-0.18-0.25-0.39-0.4-0.42c-0.33-0.05-0.66,0.22-0.8,0.7l-1.3,4.52l-0.05-0.02l-1.11,3.88c-0.24,0.85-0.14,1.83,0.15,1.73
		c0.41-0.16,0.64-0.51,0.78-0.96c0.26-0.86,0.62-1.64,1.3-2.23c0.79-0.68,1.5-0.7,1.87,0.08c0.18,0.38,0.32,0.77,0.52,1.13
		c0.63,1.15,0.77,2.35,0.32,3.76c-0.34,1.05-0.51,2.16-0.71,3.25c-0.03,0.18,0.09,0.49,0.22,0.56c0.02,0.01,0.04,0.02,0.05,0.03
		c-0.31,1.21-0.6,2.42-0.86,3.62c-0.68,0.49-1.48,0.24-2.28-0.01c-1.9-0.59-2.46-1.81-2.06-4.47c0.03-0.22,0.14-0.45,0.12-0.66
		c-0.01-0.21-0.09-0.49-0.22-0.57c-0.25-0.15-0.63,0.07-0.78,0.55l-2.46,8.39l-5.35,18.75c-0.32,1.1-0.51,2.18-0.17,3.25
		c0.22,0.67,0.01,1.32-0.17,1.95l-1.77,6.24c-0.33-0.04-0.67-0.03-0.95,0.09c-1.05,0.46-2.03,1.15-3.04,1.73
		c-0.51,0.29-1.03,0.52-1.54,0.8c-0.63,0.34-0.73,0.71-0.03,1.48c1.7,1.87,1.8,3.77,0.38,5.87c-0.09,0.14-0.04,0.42-0.06,0.64
		c-0.05,0.48,0.1,0.92,0.51,1.08c0.43,0.16,0.88,0.22,1.33,0.32l-0.46,1.64c-2.98,5.57-4.3,11.8-4.19,18.78l-0.92,3.26
		c-0.34,1.36-0.97,2.45-1.95,3.36c-0.24,0.22-0.31,0.83-0.3,1.23c0.01,0.42,0.19,0.84,0.36,1.21c0.43,0.95,0.94,1.84-0.18,2.84
		c-0.24,0.21-0.02,0.71,0.36,0.96c0.5,0.33,0.83,0.74,0.71,1.52c-0.14,0.87-0.68,1.07-1.27,1.1c-0.23,0.01-0.43,0.07-0.62,0.15
		c0.03-1.06,0.11-2.13,0.06-3.19c-0.05-1.14,0.74-1.91,0.79-2.96c0-0.11-0.26-0.32-0.42-0.34c-0.63-0.09-1.22,0.31-1.32,0.84
		c-0.19,1.06-0.13,2.21-0.8,3.07c-0.33,0.42-0.35,0.72-0.02,1.14c0.48,0.61,0.9,1.3,1.65,1.47c-0.31,0.16-0.56,0.41-0.72,0.81
		c-0.32,0.83-0.58,1.7-0.76,2.57c-0.07,0.34,0.15,0.74,0.24,1.11c0.01-0.01,0.02-0.01,0.03-0.01c0.01,0.18,0.02,0.37,0.04,0.56
		c0.09,0.66-0.02,1.36,0.12,2c0.08,0.36,0.42,0.8,0.72,0.91c0.53,0.19,1.12,0.18,1.69,0.22c1.05,0.08,1.82-0.31,2.11-1.65
		c0.12-0.58,0.5-0.73,0.82-0.38c0.41,0.46,0.8,0.93,1.19,1.41c0.03,0.94,0.04,1.87,0.06,2.81c-0.21,0.24-0.41,0.49-0.6,0.75
		c-0.56,0.77-0.58,1.6-0.07,2.42c0.27,0.42,0.39,0.82,0.19,1.17c-1.2,2.03-0.86,4.25-0.56,6.46c0.03,0.21,0.19,0.39,0.26,0.6
		c0.26,0.84,0.25,0.84-0.56,1.35c-0.33,0.21-0.75,0.37-0.92,0.7c-0.17,0.33-0.23,1-0.05,1.24c1.15,1.63,0.64,3.91,1.64,5.57
		c-0.83,1.14-0.35,1.49,0.32,1.92c-0.03,0.8-0.06,1.59-0.1,2.39c-0.05,1.03-0.1,2.07-0.16,3.1c-0.76,0.1-0.83,0.35-0.58,0.99
		c0.18,0.46,0.32,0.84,0.46,1.16c-0.06,1.11-0.13,2.22-0.2,3.33c-0.29,0.08-0.69,0.55-0.71,0.87c-0.08,2.23-0.15,4.48-0.23,6.72
		c-0.01,0.52,0.09,0.89,0.35,1.15c-0.1,1.48-0.21,2.97-0.31,4.45c-0.04,0-0.09,0-0.13-0.01c-0.64-0.09-0.99-0.57-1.11-1.27
		c-0.15-0.86-0.06-1.77-0.5-2.58c-0.3-0.55-0.47-1.2-0.7-1.81c-0.5-1.31-1.3,0.12-1.75-0.21c-1.13-0.82-2.13-1.93-2.59-3.45
		c-0.27-0.88-0.63-1.61-1.17-2.24c-0.13-0.15-0.34-0.32-0.5-0.3c-0.33,0.04-0.58,0.38-0.6,0.88l-0.1,4.7l-0.06,0l-0.08,4.03
		c-0.01,0.89,0.33,1.81,0.58,1.63c0.36-0.26,0.49-0.65,0.51-1.13c0.03-0.9,0.18-1.74,0.69-2.48c0.59-0.86,1.28-1.06,1.83-0.4
		c0.27,0.32,0.51,0.67,0.79,0.96c0.91,0.95,1.35,2.08,1.27,3.55c-0.06,1.1,0.06,2.22,0.14,3.32c0.01,0.18,0.21,0.45,0.36,0.49
		c0.35,0.09,0.78,0.21,1.06,0.04c0.29-0.18,0.46-0.66,0.65-1.04c0.45-0.93,0.76-1.25,1.3-1.11c-0.07,1.06-0.14,2.12-0.22,3.18
		c-0.77,0.41-1.48,0.97-2.18,1.58c-0.34,1.79-1.51,1.71-2.67,1.66c-1.99-0.09-2.84-1.12-3.14-3.8c-0.02-0.22,0.02-0.47-0.05-0.67
		c-0.07-0.2-0.21-0.45-0.36-0.5c-0.28-0.08-0.59,0.23-0.61,0.73l-0.24,8.74l-0.39,19.5c-0.02,1.15,0.06,2.24,0.67,3.18
		c0.38,0.59,0.34,1.27,0.33,1.93l0,0.18c-0.15,0.08-0.29,0.23-0.43,0.43c-0.6,0.84-0.71,1.27-0.36,1.67
		c0.25,0.26,0.5,0.52,0.74,0.77l-0.04,2.36c-0.89,0.87-0.8,2.3-1.18,3.46c-0.03,0.1,0.2,0.37,0.35,0.52
		c0.25,0.24,0.5,0.48,0.75,0.71l-0.26,14.78c-0.02,0.91,0.03,1.81,0.51,2.56c0.29,0.46,0.31,0.76,0.01,1.19
		c-0.69,0.99-0.62,1.99-0.03,3.05c0.39,0.69-0.2,1.19-0.43,1.74c1.03,1.56,0.79,3.39,0.77,5.16l-0.09,4.71
		c0.01,1.4-0.31,2.62-1.02,3.75c-0.17,0.27-0.09,0.88,0.03,1.27c0.12,0.4,0.4,0.76,0.66,1.08c0.66,0.81,1.38,1.54,0.55,2.79
		c-0.17,0.26,0.16,0.69,0.59,0.84c0.57,0.19,0.99,0.5,1.07,1.29c0.09,0.88-0.39,1.21-0.95,1.39c-0.62,0.19-1.03,0.62-1.11,1.32
		c-0.1,0.88-0.13,1.79-0.08,2.68c0.02,0.35,0.33,0.67,0.51,1.01c0.14-0.15,0.36-0.28,0.4-0.46c0.26-1.29,0.97-1.78,2.05-1.79
		c0.82-0.01,1.45-0.41,1.52-1.52l0.08-0.67c0.03-0.22,0-0.47,0.08-0.66c0.28-0.59,0.56-1.17,0.83-1.74l-1.4-2.1
		c-0.41-0.62-0.37-0.69,0.59-1.33c0.32-0.21,0.78-0.4,0.89-0.73c0.2-0.59,0.33-1.33,0.21-1.93c-0.17-0.84-0.64-1.59-0.9-2.42
		c-0.16-0.51-0.13-1.13,0.04-1.67c0.04,0.18,0.08,0.36,0.14,0.53c0.13,0.35,0.53,0.74,0.84,0.8c0.55,0.12,1.14,0.02,1.71-0.02
		c1.05-0.07,1.76-0.56,1.86-1.93c0.04-0.59,0.39-0.8,0.76-0.49c0.74,0.63,1.46,1.3,2.18,1.97c0.1,0.34,0.19,0.69,0.27,1.04
		c-0.03,0.07-0.07,0.15-0.12,0.23c-0.34,0.51-0.69,1.03-0.99,1.59c-0.45,0.84-0.35,1.67,0.27,2.4c0.33,0.38,0.5,0.76,0.35,1.13
		c-0.9,2.18-0.25,4.33,0.35,6.47c0.06,0.2,0.25,0.36,0.34,0.56c0.38,0.8,0.37,0.8-0.36,1.42c-0.29,0.25-0.69,0.47-0.81,0.82
		c-0.12,0.35-0.08,1.02,0.12,1.24c1.37,1.45,1.18,3.78,2.4,5.29c-0.81,1.51,0.13,1.59,1.07,2.09c0.59,0.31,1.12,0.79,1.63,1.3
		c0.03,1.11,0.05,2.22,0.07,3.33c-0.4,0.26-0.86,0.43-1.37,0.54c-1.04,0.23-1.12,0.47-0.75,1.14c0.98,1.76,1.32,2.37,2.16,2.53
		c0,0.51,0,1.02,0,1.53c-0.42,0.07-0.84,0.19-1.25,0.34c-0.28,0.1-0.63,0.65-0.61,0.97c0.24,2.22,0.48,4.45,0.72,6.68
		c0.09,0.79,0.39,1.2,1.13,1.34c-0.01,1.39-0.01,2.79-0.01,4.18c-0.14,0.01-0.29,0.03-0.42,0.03c-0.65,0-1.06-0.43-1.27-1.1
		c-0.27-0.83-0.3-1.74-0.86-2.48c-0.38-0.5-0.63-1.13-0.95-1.69c-0.68-1.22-1.27,0.3-1.76,0.04c-1.24-0.65-2.38-1.61-3.05-3.05
		c-0.39-0.83-0.85-1.5-1.47-2.06c-0.15-0.13-0.38-0.27-0.53-0.23c-0.33,0.08-0.52,0.46-0.47,0.96l0.56,4.67l-0.06,0.01l0.49,4.01
		c0.11,0.88,0.58,1.75,0.8,1.53c0.32-0.31,0.4-0.72,0.35-1.19c-0.1-0.9-0.06-1.75,0.34-2.56c0.47-0.94,1.12-1.23,1.76-0.65
		c0.31,0.28,0.6,0.59,0.92,0.84c1.03,0.81,1.62,1.87,1.75,3.34c0.1,1.1,0.37,2.19,0.6,3.27c0.04,0.18,0.27,0.42,0.43,0.43
		c0.36,0.04,0.8,0.1,1.06-0.11c0.26-0.22,0.37-0.72,0.5-1.12c0.35-1.08,0.62-1.43,1.31-1.26c0,1.06,0,2.12,0.01,3.18
		c-0.69,0.51-1.3,1.16-1.89,1.84c-0.09,1.82-1.26,1.91-2.41,2.02c-1.98,0.19-2.97-0.71-3.64-3.32c-0.05-0.22-0.05-0.47-0.14-0.65
		c-0.09-0.18-0.27-0.42-0.42-0.44c-0.29-0.04-0.55,0.31-0.5,0.81l0.98,8.68l2.34,19.36c0.14,1.14,0.37,2.21,1.1,3.06
		c0.46,0.53,0.52,1.21,0.6,1.86l1.06,8.68l1.98,16.02c0.11,0.9,0.29,1.79,0.86,2.46c0.35,0.41,0.41,0.71,0.18,1.18
		c-0.54,1.08-0.34,2.06,0.4,3.02c0.48,0.63-0.03,1.2-0.18,1.78c1.24,1.4,1.26,3.24,1.49,5.01l0.57,4.67
		c0.21,1.39,0.06,2.63-0.49,3.85c-0.13,0.3,0.03,0.88,0.2,1.25c0.18,0.38,0.5,0.7,0.8,0.98c0.76,0.71,1.58,1.33,0.94,2.69
		c-0.14,0.29,0.25,0.66,0.7,0.75c0.59,0.11,1.05,0.36,1.24,1.13c0.21,0.86-0.22,1.25-0.74,1.51c-0.58,0.28-0.93,0.76-0.91,1.46
		c0.02,0.89,0.12,1.79,0.29,2.66c0.07,0.34,0.42,0.62,0.65,0.93c0.12-0.17,0.32-0.33,0.33-0.52c0.08-1.32,0.71-1.9,1.78-2.06
		c0.81-0.12,1.38-0.61,1.29-1.72l-0.01-0.67c-0.01-0.22-0.07-0.47-0.01-0.67c0.2-0.63,0.39-1.23,0.58-1.84l-1.68-1.88
		c-0.5-0.56-0.47-0.64,0.39-1.4c0.29-0.26,0.71-0.5,0.77-0.85c0.11-0.61,0.14-1.36-0.06-1.94c-0.29-0.81-0.86-1.49-1.23-2.27
		c-0.44-0.93-0.26-2.41,0.49-2.93c0.7-0.49,1.11-1.05,1.21-2.01c0.03-0.31,0.13-0.49,0.28-0.56c2.69,4.99,6.24,9.43,10.81,13.13
		c-0.41,0-0.83,0.14-1.21,0.29c-0.97,0.38-1.89,0.84-2.83-0.33c-0.2-0.25-0.71-0.06-0.98,0.31c-0.36,0.48-0.78,0.79-1.56,0.62
		c-0.87-0.19-1.03-0.74-1.03-1.33c0-0.65-0.28-1.17-0.92-1.46c-0.81-0.37-1.66-0.67-2.52-0.9c-0.34-0.09-0.74,0.11-1.12,0.18
		c0.1,0.18,0.16,0.43,0.32,0.52c1.15,0.65,1.4,1.47,1.08,2.51c-0.25,0.78-0.06,1.5,0.98,1.91l0.61,0.28c0.2,0.09,0.45,0.15,0.6,0.28
		c0.48,0.45,0.94,0.89,1.4,1.33l2.42-0.69c0.72-0.2,0.78-0.14,1.09,0.97c0.1,0.37,0.14,0.86,0.42,1.07c0.5,0.37,1.16,0.72,1.77,0.79
		c0.85,0.1,1.71-0.12,2.58-0.11c1.03,0.01,2.27,0.82,2.42,1.72c0.13,0.85,0.46,1.46,1.28,1.96c0.51,0.32,0.5,0.66,0.1,0.91
		c-0.69,0.44-1.2,1-1.48,1.74c-0.31,0.8-1.04,0.92-1.98,1.01c-1.53,0.15-3.01,0.07-4.53-0.22c-0.17-0.03-0.46,0.08-0.52,0.2
		c-0.07,0.15,0,0.39,0.09,0.56c0.19,0.36,0.36,0.75,0.65,1.05c0.59,0.6,1.33,1.11,1.89,1.74c0.74,0.82,0.73,1.83,0.94,2.78
		c0.09,0.43,0.49,0.62,0.94,0.82c0.86,0.36,1.7,0.55,2.55,0.27c1.2-0.41,2.36-0.8,3.56-1.21c0.45-0.14,0.78,0.13,0.78,0.64
		c0.01,0.82,0.22,1.47,1.21,1.9c1.8,0.78,3.98,1,5.14,2.79c1.99,1.02,4.08,1.75,6.28,2.17c1.53-0.46,3.02,0.03,4.51,0.52
		c1.03,0.34,1.58-0.13,2.16-0.71c0.53-0.53,0.92-0.36,1.05,0.6c0.09,0.64,0.26,1.17,0.89,1.47c0.8,0.39,1.69,0.61,2.49,0.99
		c1.91,0.92,3.84,0.9,5.8,0.73c0.7-0.06,0.78-0.03,0.69-1.1c-0.06-0.77,0.56-0.89,1.1-1.09c0.71-0.27,1.21,0.01,1.59,0.54
		c0.88,1.24,0.24,2.71,1.3,3.92c0.38,0.43,0.67,0.59,1.04,0.29c0.3-0.24,0.53-0.55,0.84-0.78c0.44-0.34,0.45-0.32,0.88,1.01
		c0.12,0.36,0.24,0.89,0.53,1.03c1,0.47,2.07,0.97,3.14,1.11c0.8,0.11,1.68-0.24,2.45-0.51c1.34-0.47,2.67-0.3,3.66,0.65
		c0.97,0.93,1.96,1.65,3.29,2.07l7.01,2.36c0.69,0.24,1.31,0.1,1.94,0c0.48-0.08,0.76,0.06,1.08,0.48c0.85,1.1,2.21,1.36,3.49,1.73
		c0.7,0.2,1.32,0.07,1.64-0.49c0.47-0.83,1.04-1.54,1.8-2.21c0.04-0.03,0.07-0.07,0.11-0.11c0.59,0.24,1.18,0.49,1.77,0.72
		c-0.29,0.79-0.59,1.58-0.86,2.38c-0.19,0.55,0.17,1.17,0.75,1.48c1.35,0.71,3.06,0.87,4.01,2.24c0.12,0.17,0.8,0.17,1.16,0.09
		c0.71-0.17,1.39,0.01,1.82,0.46c0.63,0.66,1.18,1.14,2.2,0.89c0.38-0.09,0.88-0.03,1.28,0.1l5.11,1.7
		c1.89,0.62,3.74,1.57,5.78,1.07c0.48,0.35,0.73,1.12,1.52,0.93c0.6-0.15,1.26-0.37,1.66-0.75c0.36-0.35,0.59-0.79,0.84-1.22
		c0.48,0.13,0.96,0.25,1.44,0.37l1.79-1.77c0.49-0.48,0.6-0.49,1.23,0.14c0.13,0.52,0,1.06-0.48,1.49c-0.15,0.13-0.3,0.26-0.48,0.35
		c-0.73,0.36-1.49,0.73-2.21,1.08c-0.36,0.19-0.36,0.55-0.1,0.98c0.44,0.71,0.88,1.4,1.82,1.73c1.1,0.38,2.22,0.74,3.31,1.14v-2.92
		h8.41c0.11,0.85-0.47,1.3-1.25,1.84c-1.13,0.78-2.34,1.36-3.64,1.82l10.97,1.21c0.15-0.16,0.29-0.32,0.44-0.49
		c0.33-0.34,0.74-0.27,1,0.18c0.11,0.19,0.22,0.35,0.35,0.5l3.15,0.35c1.47-0.27,2.93-0.55,4.33,0.2c2.23-0.07,4.42-0.43,6.55-1.13
		c1.12-1.15,2.66-1.43,4.2-1.72c1.07-0.2,1.32-0.88,1.55-1.67c0.21-0.72,0.63-0.76,1.21,0.02c0.38,0.51,0.79,0.9,1.49,0.86
		c0.89-0.05,1.77-0.28,2.66-0.33c2.12-0.12,3.8-1.07,5.44-2.16c0.59-0.39,0.66-0.4,0.07-1.3c-0.35-0.53-0.08-0.9,0.23-1.25
		c0.88,0.01,1.77,0.04,2.65,0.07c0.72,0.76,1.08,1.79,2.24,2.21c0.54,0.19,0.87,0.19,1.05-0.25c0.15-0.36,0.2-0.74,0.36-1.09
		c0.22-0.51,0.24-0.5,1.26,0.47c0.28,0.26,0.64,0.67,0.96,0.64c1.11-0.08,2.28-0.15,3.28-0.54c0.49-0.19,0.92-0.57,1.31-0.99
		c6.69-0.16,12.82-1.51,18.56-3.82c1.14,0.32,2.31-0.05,3.48-0.31c0.71-0.16,1.19-0.57,1.2-1.21c0-0.21,0.02-0.42,0.03-0.62
		c0.88-0.45,1.74-0.92,2.6-1.41c0.07,0.45,0.14,0.91,0.22,1.36c0.1,0.57,0.72,0.95,1.37,0.93c1.53-0.03,3.1-0.71,4.59,0.03
		c0.18,0.09,0.79-0.24,1.06-0.48c0.54-0.49,1.22-0.67,1.81-0.48c0.87,0.28,1.58,0.43,2.35-0.28c0.29-0.27,0.76-0.45,1.17-0.53
		l0.62-0.11v-3.04c-0.09-0.02-0.2-0.02-0.28-0.06c-0.91-0.42-1.08-0.65-0.76-1.26c0.73-1.36,0.42-2.64-0.09-3.88
		c-0.07-0.16-0.29-0.33-0.53-0.44c1.94-1.65,3.88-3.3,5.81-4.96c0.25,0.57,0.6,1.05,1.1,1.41c0.69,0.51,0.61,1.25,0.45,2.18
		c-0.26,1.51-0.73,2.92-1.41,4.31c-0.08,0.15-0.05,0.47,0.05,0.55c0.12,0.11,0.38,0.1,0.57,0.06c0.4-0.08,0.82-0.15,1.18-0.35
		c0.74-0.41,1.42-0.98,2.18-1.36c0.99-0.49,1.96-0.22,2.92-0.17c0.43,0.02,0.73-0.31,1.04-0.69c0.58-0.73,0.98-1.49,0.94-2.39
		c-0.08-1.26-0.15-2.49-0.23-3.76c-0.02-0.47,0.33-0.72,0.83-0.59c0.79,0.21,1.48,0.18,2.16-0.66c1.23-1.53,2.02-3.57,4.06-4.22
		c1.51-1.65,2.77-3.47,3.76-5.48c-0.04-1.6,0.83-2.91,1.7-4.21c0.6-0.9,0.29-1.55-0.11-2.28c-0.37-0.65-0.1-0.98,0.85-0.85
		c0.64,0.08,1.19,0.06,1.65-0.47c0.59-0.67,1.03-1.47,1.62-2.14c0.52-0.6,0.92-1.24,1.23-1.9c-0.22,0.65-0.48,1.28-0.8,1.92
		c-0.08,0.15-0.05,0.47,0.05,0.55c0.12,0.11,0.38,0.1,0.57,0.06c0.4-0.08,0.82-0.15,1.18-0.35c0.74-0.41,1.42-0.98,2.18-1.36
		c0.99-0.49,1.96-0.22,2.92-0.17c0.43,0.02,0.73-0.31,1.04-0.69c0.58-0.73,0.98-1.49,0.94-2.39c-0.08-1.26-0.15-2.49-0.23-3.76
		c-0.02-0.47,0.33-0.72,0.83-0.59c0.79,0.21,1.48,0.18,2.16-0.66c1.23-1.53,2.02-3.57,4.06-4.22c1.51-1.65,2.77-3.47,3.76-5.48
		c-0.04-1.6,0.83-2.91,1.7-4.21c0.6-0.9,0.29-1.55-0.11-2.28c-0.37-0.66-0.1-0.98,0.85-0.85c0.64,0.08,1.19,0.06,1.65-0.47
		c0.59-0.67,1.03-1.47,1.62-2.14c1.39-1.6,1.88-3.47,2.24-5.4c0.13-0.69,0.17-0.76-0.88-0.96c-0.45-0.09-0.61-0.34-0.68-0.65
		c0.39-0.71,0.76-1.43,1.13-2.15c1.32-0.32,2.5,0.51,3.86-0.15c0.52-0.25,0.75-0.49,0.56-0.93c-0.15-0.35-0.39-0.66-0.53-1.02
		c-0.21-0.52-0.19-0.51,1.21-0.58c0.38-0.02,0.93,0,1.13-0.24c0.72-0.85,1.48-1.74,1.9-2.73c0.32-0.74,0.21-1.68,0.16-2.5
		c-0.1-1.42,0.42-2.66,1.6-3.36c1.16-0.68,2.11-1.45,2.86-2.62l4.14-6.13c0.05-0.07,0.07-0.14,0.11-0.21h-5.97v-0.35
		c0.26-0.16,0.47-0.37,0.48-0.78c0.02-0.62-0.02-1.32-0.29-1.8c-0.06-0.1-0.12-0.2-0.19-0.29v-5.23c0.2,0.14,0.38,0.33,0.51,0.6
		c0.09,0.17,0.17,0.36,0.21,0.55c0.15,0.8,0.31,1.63,0.46,2.42c0.09,0.4,0.44,0.5,0.92,0.35c0.8-0.24,1.59-0.47,2.15-1.3
		c0.66-0.96,1.3-1.94,1.97-2.89l-2.81-0.77l3.74-13.62c-0.02,0.01-0.04,0.02-0.07,0.03c-0.6,0.16-1.2,0.32-1.79,0.54
		c-0.89,0.33-1.37,1.02-1.38,1.98c-0.01,0.5-0.12,0.9-0.49,1.08c-2.11,1.05-3.05,3.08-4.01,5.09c-0.09,0.19-0.05,0.43-0.11,0.64
		c-0.2,0.71-0.25,0.82-0.8,0.83c0.38-5.45,0.24-11.11-0.51-16.98c-0.12-0.94-0.11-1.89-0.09-2.85c0.55,0.33,1.14,0.53,1.78,0.53
		c0.86,0,1.23,0.64,1.65,1.49c0.69,1.37,1.14,2.78,1.41,4.31c0.03,0.17,0.24,0.4,0.37,0.41c0.16,0.01,0.36-0.14,0.49-0.29
		c0.27-0.3,0.57-0.61,0.74-0.98c0.35-0.77,0.57-1.64,0.95-2.38c0.51-0.98,1.45-1.33,2.26-1.87c0.36-0.24,0.41-0.68,0.43-1.17
		C692.96,711.59,692.84,710.74,692.27,710.05z M686.19,592.65c0.71,0.36,0.72,0.48,0.44,1.07l-0.36,0.76c-0.2-0.51-0.43-1-0.66-1.51
		C685.85,592.93,686.04,592.81,686.19,592.65z M684.97,592.01c0.11,0.12,0.26,0.21,0.43,0.28c0.12,0.17,0.18,0.4,0.19,0.67
		c-0.41,0.02-0.72-0.17-0.86-0.61C684.71,592.29,684.88,592.07,684.97,592.01z M375.91,637.74c-0.11-0.02-0.28-0.26-0.27-0.37
		c0.02-0.14,0.21-0.24,0.33-0.35l0.27,0.43C376.13,637.56,376,637.76,375.91,637.74z M380.6,643.93c-0.04,0.09,0.17,0.38,0.3,0.54
		c0.52,0.59,0.42,1.18,0.04,1.7c-0.74,1.04-1.4,1.98-0.17,3.33c0,0,0,0.01,0.01,0.01c-0.59-0.73-1.17-1.47-1.77-2.21
		c-0.45-0.57-0.42-1.31-0.11-1.84c0.47-0.81,0.66-1.44,0.13-2.35c-0.42-0.72-0.57-1.64-0.96-2.4c-0.24-0.47-0.19-0.72,0.05-1.19
		c0.94-1.86,1.01-3.8,0.01-5.67c-0.49-0.91-0.33-1.7,0.18-2.43c0.3-0.44,0.39-0.78,0.12-1.17c-0.48-0.69-1-1.35-1.41-2.1
		c-0.18-0.33-0.31-1.01-0.16-1.24c0.88-1.3,0.7-2.25-0.33-3.36c-0.94-1-0.75-1.14,0.11-2.13c0.13-0.16,0.26-0.31,0.41-0.47
		c0.52-0.68,0.71-0.94,0.53-1.36c0.3-0.41,0.52-0.9,0.63-1.49c-0.04-0.23-0.05-0.46-0.12-0.66c-0.07-0.19-0.2-0.46-0.33-0.49
		c-0.91-0.21-1.66-0.73-2.36-1.34c-0.38-0.85-0.8-1.66-1.44-2.31c-0.07-0.07-0.04-0.41,0.04-0.56c1.46-2.68,0.56-5.69,0.89-8.53
		c0.17-1.48-0.39-2.59-1.27-3.55c-0.14-0.15-0.27-0.32-0.38-0.5c-0.48-0.8-0.6-1.6-0.03-2.43c0.79-1.15,1.04-2.48,0.4-3.73
		c-1.08-2.12-0.74-4.29-0.47-6.49c0.09-0.69,1.48-1.92,2.15-1.98c0.38-0.03,0.76-0.03,1.1-0.04c0.79,0.02,1.57,0.03,2.18,0.66
		c0.53,0.53,1,0.29,1.51-0.02c0.24-0.15,0.48-0.1,0.63,0.1c-0.15,2.5-0.28,4.99-0.39,7.49c-0.41,0.1-0.82,0.19-1.23,0.3
		c-0.42,0.11-0.59,1.3-0.27,1.73c0.12,0.16,0.26,0.33,0.42,0.43c0.31,0.21,0.81,0.24,0.95,0.62c-0.01,0.17-0.01,0.34-0.02,0.51
		c-0.13,0.33-0.57,0.39-0.96,0.37c-0.38-0.02-0.81-0.04-1.12,0.16c-0.29,0.18-0.53,0.61-0.65,0.99c-0.22,0.72,0.95,2.7,1.49,2.5
		c0.57-0.21,0.61-1.03,0.87-1.59c0.06-0.12,0.17-0.23,0.3-0.31c-0.03,1.02-0.05,2.04-0.07,3.06c-0.36,0.3-0.73,0.6-1.1,0.89
		c-0.46,0.36-0.95,0.66-1.42,1.01c-0.58,0.42-0.62,0.81,0.18,1.47c1.95,1.61,2.31,3.48,1.2,5.76c-0.07,0.15,0.02,0.42,0.03,0.64
		c0.02,0.48,0.23,0.9,0.65,1c0.16,0.04,0.32,0.06,0.49,0.07c0.07,2.59,0.19,5.17,0.38,7.75c-0.26,0.3-0.52,0.61-0.78,0.92
		c-0.42,0.51-0.36,0.9,0.27,1.66c0.32,0.38,0.55,0.62,0.78,0.76c-0.09,0.33-0.04,0.62,0.09,0.89c0.11,1.12,0.23,2.23,0.36,3.35
		c-0.1,0.28-0.19,0.56-0.21,0.85c-0.04,0.63,0.1,1.35,0.33,1.94c0.05,0.13,0.16,0.25,0.29,0.35c0.27,1.87,0.58,3.74,0.93,5.6
		c-0.01,0.03-0.03,0.06-0.04,0.08c-0.34,0.64-0.17,1.21,0.4,1.74c0.08,0.38,0.16,0.76,0.24,1.13
		C381.93,641.21,381.23,642.53,380.6,643.93z M383.04,645.89c-0.15-0.34-0.25-0.76-0.31-1.26c-0.11-0.98,0.14-1.36,0.74-1.13
		c0.13,0.05,0.27,0.11,0.39,0.18c0.11,0.47,0.24,0.95,0.36,1.42C383.8,645.31,383.4,645.55,383.04,645.89z M388.84,678.39
		c-0.64,0.3-0.88,0.06-1.01-1c-0.16-1.3,0.37-2.3,1.17-2.59c0.07,1.13,0.13,2.25,0.18,3.38
		C389.07,678.27,388.95,678.34,388.84,678.39z M387.01,743.8c-0.08-0.06-0.1-0.4-0.04-0.56c1.08-2.85-0.25-5.72-0.31-8.57
		c-0.03-1.49-0.75-2.51-1.76-3.33c-0.16-0.13-0.31-0.28-0.45-0.44c-0.59-0.72-0.82-1.5-0.37-2.4c0.62-1.24,0.68-2.6-0.13-3.75
		c-1.37-1.94-1.33-4.15-1.37-6.36c-0.01-0.69,1.2-2.11,1.85-2.26c0.37-0.09,0.75-0.13,1.09-0.19c0.79-0.09,1.56-0.19,2.25,0.34
		c0.6,0.45,1.04,0.15,1.49-0.23c0.08-0.06,0.16-0.1,0.24-0.12c0.01,0.32,0.01,0.64,0.01,0.95c0.05,2.33,0.09,4.67,0.14,7.01
		c-0.09,0.04-0.18,0.07-0.27,0.11c-0.4,0.17-0.4,1.37-0.02,1.75c0.11,0.1,0.22,0.2,0.34,0.28c0.01,0.54,0.02,1.08,0.04,1.61
		c-0.29,0.04-0.59,0.1-0.8,0.28c-0.26,0.22-0.44,0.68-0.5,1.07c-0.09,0.59,0.79,1.83,1.41,2.19c0.17,5.85,0.44,11.7,0.89,17.52
		C389.31,747.26,388.63,745.05,387.01,743.8z M391,753.6c-1.07-0.86-0.9-1.02-0.18-2.12c0.05-0.07,0.09-0.15,0.14-0.22
		c0.07,0.84,0.15,1.68,0.24,2.51C391.13,753.71,391.07,753.66,391,753.6z M392.36,767.73c-0.12-0.01-0.32-0.22-0.32-0.33
		c0.01-0.14,0.18-0.26,0.28-0.4l0.33,0.39C392.55,767.52,392.45,767.74,392.36,767.73z M403.87,460.42
		c-0.19,0.1-0.37,0.19-0.56,0.21c-0.63,0.09-1.15,0.35-1.36,1.06l-2.08,7.3c-1.25,1.56-2.77,3.06-4.57,4.55
		c-0.94,0.78-1.81,1.58-2.64,2.39c-0.54-1.05-0.3-1.17,0.73-1.87c0.17-0.12,0.34-0.23,0.51-0.36c0.99-0.77,1.09-0.83,0.55-2.06
		c-0.84-1.93-0.56-4.31-1.6-6.14c-0.05-0.09,0.07-0.41,0.18-0.53c2.1-2.21,1.99-5.36,3.03-8.02c0.55-1.39,0.28-2.6-0.33-3.75
		c-0.1-0.18-0.18-0.38-0.24-0.58c-0.26-0.89-0.17-1.7,0.59-2.35c1.05-0.91,1.64-2.13,1.34-3.51c-0.51-2.32,0.38-4.34,1.2-6.39
		c0.26-0.64,1.92-1.48,2.59-1.37c0.37,0.06,0.74,0.17,1.08,0.24c0.76,0.22,1.51,0.43,1.94,1.19c-0.46,2.63-0.72,5.23-0.63,7.76
		c-0.29-0.01-0.59-0.02-0.88-0.02c-0.43,0-0.9,1.11-0.7,1.6c0.08,0.19,0.17,0.38,0.29,0.53c0.33,0.36,1.03,0.52,0.66,1.28
		c-0.18,0.38-0.67,0.3-1.07,0.17c-0.36-0.11-0.77-0.24-1.12-0.13c-0.32,0.1-0.67,0.45-0.88,0.79c-0.4,0.64,0.23,2.86,0.8,2.8
		c0.6-0.06,0.85-0.84,1.25-1.32c0.34-0.4,1.3-0.38,1.55,0.05c0.27,0.48,0.58,0.96,0.74,1.5
		C404.29,457.24,404.17,458.88,403.87,460.42z M527.84,288.22c0.2-0.31,0.83-0.5,1.31-0.56c0.94-0.13,1.8-0.01,2.54,0.4
		c-0.31,0.04-0.63,0.07-0.94,0.1c-0.11-0.04-0.22-0.09-0.33-0.15c-0.37-0.23-0.58-0.18-0.75,0.22c-0.01,0.03-0.02,0.06-0.04,0.08
		c-0.68,0.09-1.36,0.19-2.03,0.29C527.68,288.47,527.75,288.35,527.84,288.22z M495.59,477.95c0.64,15.63,0.48,31.71-0.48,48.21
		c-0.97,16.5-2.75,29.68-5.32,39.52c-0.65,2.89-3.23,4.34-7.74,4.34c-5.8,0-8.39-2.31-7.74-6.95c5.15-18.53,7.09-46.91,5.8-85.13
		c0-1.74,0.8-3.18,2.42-4.34c1.6-1.15,3.39-1.74,5.32-1.74C493.01,471.86,495.59,473.9,495.59,477.95z M487.86,374.58v43.43
		c0,8.12-1.13,14.48-3.39,19.11c-2.27,4.64-5.65,10.14-10.16,16.5c-8.39,9.85-12.58,19.69-12.58,29.53c0,39.39-2.9,67.18-8.71,83.39
		c-0.65,2.89-2.9,4.34-6.77,4.34c-2.58,0-4.68-0.73-6.29-2.17c-1.62-1.44-2.1-3.33-1.45-5.65c5.16-15.64,7.74-42.26,7.74-79.92
		c0-7.52,1.12-13.75,3.39-18.67c2.25-4.91,5.64-10.28,10.16-16.07c4.5-5.21,7.74-10.12,9.67-14.77c1.93-4.63,2.9-9.84,2.9-15.64
		v-43.43c0-1.74,0.8-3.18,2.42-4.34c1.6-1.15,3.39-1.74,5.32-1.74c1.93,0,3.7,0.58,5.32,1.74
		C487.04,371.4,487.86,372.84,487.86,374.58z M452.32,312.79c0.1-0.01,0.22,0.15,0.33,0.24l-0.2,0.35c-0.1-0.09-0.28-0.17-0.29-0.26
		C452.14,313,452.24,312.79,452.32,312.79z M445.95,320.44c0.32-0.78,0.65-1.57,0.98-2.37c0.23-0.55,0.72-0.67,1.16-0.49
		c0.67,0.28,1.14,0.33,1.56-0.37c0.33-0.55,0.89-0.89,1.26-1.41c0.23-0.33,0.4-0.33,0.79-0.2c1.49,0.51,2.77,0.17,3.67-1.17
		c0.44-0.66,1-0.66,1.63-0.34c0.37,0.19,0.62,0.21,0.79-0.13c0.3-0.6,0.57-1.23,0.92-1.78c0.16-0.24,0.56-0.51,0.75-0.41
		c1.11,0.56,1.67,0.2,2.07-1.02c0.36-1.1,0.51-0.95,1.41-0.33c0.14,0.09,0.28,0.19,0.43,0.29c0.88,0.52,0.96,0.57,1.38-0.44
		c0.67-1.58,2.1-2.4,2.62-4.11c0.03-0.08,0.25-0.12,0.37-0.08c2.18,0.83,3.85-0.66,5.79-0.94c1.01-0.14,1.56-0.91,1.9-1.95
		c0.05-0.16,0.12-0.32,0.21-0.47c0.37-0.62,0.85-0.9,1.56-0.54c0.98,0.51,1.92,0.47,2.54-0.4c1.04-1.47,2.55-1.6,4.05-1.8
		c0.22-0.03,0.61,0.19,0.98,0.5c-7.41,2.95-13.65,8.79-20.45,13.47c-0.28-0.19-0.56-0.37-0.84-0.55c-0.46-0.3-0.69-0.16-0.99,0.61
		c-0.23,0.59-0.32,0.93-0.21,1.3c-1.08,0.69-2.17,1.33-3.29,1.93c-1.37,0.73-2.68,1.5-3.95,2.28c-0.23-0.07-0.47-0.14-0.71-0.23
		c-0.62-0.23-0.95,0.21-1.09,1.17c-0.01,0.07-0.02,0.15-0.03,0.22c-1.04,0.69-2.04,1.42-3.01,2.16c-0.39-0.51-0.75-1.03-1.27-1.4
		c-0.81-0.58-1.18-0.63-2,0.28c-0.27,0.3-0.49,0.5-0.7,0.2c-0.19-0.27-0.29-0.65-0.37-1C445.81,320.79,445.88,320.59,445.95,320.44z
		 M436.59,431.91c5.16-15.05,6.77-33.58,4.84-55.59c0-4.63,2.9-6.95,8.71-6.95c1.93,0,3.54,0.58,4.84,1.74
		c1.28,1.17,1.93,2.61,1.93,4.34c1.93,24.32,0,44.3-5.8,59.94c-0.65,3.47-3.24,5.21-7.74,5.21c-2.58,0-4.52-0.87-5.8-2.61
		C436.25,436.25,435.93,434.23,436.59,431.91z M427.29,818.31c-0.41-0.37-0.31-0.58,0.26-0.53c0.07,0.01,0.13,0.26,0.19,0.4
		C427.59,818.23,427.34,818.35,427.29,818.31z M433.28,821.59c-0.42-0.38-0.31-0.59,0.26-0.54c0.07,0.01,0.13,0.26,0.2,0.4
		C433.58,821.5,433.33,821.63,433.28,821.59z M441.27,819.44c-1.07,0.13-2.14,0.29-3.22,0.27c-0.62-0.01-1.31-0.3-1.88-0.6
		c-0.61-0.32-0.8-0.89-0.84-1.51c-0.03-0.59-0.32-1.12-1.08-1.38c-0.85-0.29-1.67-0.66-2.53-0.92c-1.14-0.34-1.89-1.06-2.64-1.85
		c-0.6-0.62-1.34-0.53-2.2,0.11c-0.48,0.35-0.94,0.73-1.47,1c-1.01,0.51-2.09,0.38-3.12-0.22c-0.35-0.21-0.79-0.56-0.85-0.87
		c-0.15-0.77-0.19-1.52-0.6-2.27c-0.58-1.03-1-1.34-2.68-1.23c-0.55,0.04-0.97,0.03-1.02-0.35c-0.04-0.35,0.11-0.71,0.26-1.04
		c0.07-0.15,0.31-0.25,0.5-0.33c0.97-0.37,1.94-0.74,2.93-1.11c0.68-0.25,1.38,0,1.79,0.47c0.62,0.7,1.17,1.07,2.19,0.84
		c0.81-0.18,1.74-0.04,2.58-0.17c0.53-0.08,0.74,0.04,1.12,0.41c1.01,1,2.18,1.61,3.48,1.79c0.23,0.71,0.41,1.49,0.53,2.38
		c0.32,2.39,5.55,6,8.97,6.51C441.4,819.41,441.34,819.43,441.27,819.44z M448.89,820.13c-0.19,0.33-0.33,0.69-0.53,1.01
		c-0.24,0.38-0.59,0.52-0.94,0.36c-0.19-0.09-0.36-0.27-0.46-0.44c-0.21-0.35-0.53-0.74-0.52-1.09c0.01-0.29-0.03-0.57-0.08-0.84
		c1.13,0.02,2.22,0.14,3.27,0.35C449.34,819.6,449.08,819.82,448.89,820.13z M459.43,824.52c-0.14-0.34-0.36-0.69-0.39-1.03
		c-0.01-0.08-0.03-0.16-0.04-0.24c0.77,0.41,1.53,0.83,2.3,1.24C460.67,824.38,460.04,824.33,459.43,824.52z M471.36,831.11
		c-0.42-0.38-0.31-0.59,0.26-0.53c0.07,0.01,0.13,0.26,0.2,0.4C471.66,831.02,471.41,831.15,471.36,831.11z M476.91,833.17
		c-0.02,0.17-0.11,0.32-0.18,0.52c-0.14,0.05-0.33,0.19-0.49,0.16c-0.34-0.07-0.46-0.36-0.45-0.75c0-0.43,0.21-0.67,0.7-0.65
		c0.12,0,0.3,0.14,0.35,0.25C476.91,832.83,476.93,833.01,476.91,833.17z M499.76,841.43c-0.07,0.15-0.39,0.35-0.48,0.3
		c-0.34-0.16-0.72-0.36-0.92-0.63c-0.48-0.65-0.59-0.96-0.32-1.26c0.73,0.16,1.46,0.31,2.2,0.44
		C500.09,840.68,499.94,841.06,499.76,841.43z M508.42,841.19c-0.79,0.07-1.59,0.2-2.36,0.4c-0.06,0.02-0.12,0.05-0.18,0.08
		c-0.12-0.11-0.24-0.24-0.35-0.4c-0.07-0.1-0.12-0.2-0.17-0.3c1.05,0.09,2.11,0.15,3.19,0.17
		C508.5,841.15,508.47,841.17,508.42,841.19z M540.09,847.43c-0.64,0.93-1.65,1.34-2.84,1.31c-0.41-0.01-0.96-0.11-1.16-0.35
		c-0.39-0.46-0.71-0.94-1.17-1.35c1.88-0.13,3.76-0.29,5.64-0.46C540.42,846.87,540.28,847.16,540.09,847.43z M543.55,849.79
		c-0.54-0.13-0.55-0.36-0.03-0.59c0.06-0.03,0.24,0.16,0.36,0.25C543.77,849.58,543.61,849.81,543.55,849.79z M550.38,849.78
		c-0.55-0.13-0.56-0.36-0.03-0.59c0.06-0.03,0.24,0.17,0.37,0.26C550.6,849.56,550.44,849.79,550.38,849.78z M553.64,845.83
		c-0.55,0.29-1.29,0.37-1.94,0.38c-0.53,0.01-0.9-0.22-1.2-0.56c1.33-0.11,2.65-0.22,3.97-0.31
		C554.2,845.52,553.93,845.68,553.64,845.83z M625.25,821.68c-0.11,0.54-0.23,0.95-0.61,0.89c-0.16-0.02-0.32-0.09-0.47-0.18
		c0.38-0.33,0.76-0.66,1.14-0.99C625.29,821.49,625.27,821.58,625.25,821.68z M630.55,818.85c-0.29,0.29-0.75,0.61-1.06,0.59
		c-0.61-0.04-1.2-0.15-1.82-0.1c1.31-1.15,2.62-2.31,3.92-3.47c0,0.01,0.01,0.02,0.01,0.03
		C631.81,817.01,631.4,818.02,630.55,818.85z M630.06,804.12c-2.59,1.44-5.49,1.01-8.71-1.3l-7.74-6.08
		c-12.26-12.73-25.15-19.39-38.69-19.98l-67.72-4.34c-11.61-0.57-21.28-4.19-29.02-10.86c-7.74-6.65-11.61-14.9-11.61-24.76v-93.81
		c0-2.31,0.8-3.91,2.42-4.78c1.6-0.87,3.38-1.3,5.32-1.3c5.15,0,7.74,2.04,7.74,6.08v93.81c0,6.38,2.42,11.59,7.26,15.64
		c4.84,4.06,11.13,6.38,18.86,6.95l14.51,0.87V612.58c-16.78,0-41.93,0.58-75.46,1.74c-5.17,0-7.74-2.31-7.74-6.95
		c0-1.15,0.64-2.46,1.93-3.91c1.29-1.44,2.9-2.17,4.84-2.17c38.7-1.15,67.39-1.74,86.1-1.74c18.7,0,47.4,0.58,86.1,1.74
		c1.93,0,3.7,0.73,5.32,2.17c1.6,1.45,2.42,2.75,2.42,3.91c0,4.64-2.9,6.95-8.71,6.95c-34.83-1.15-61.28-1.74-79.33-1.74v99.02
		h28.05c6.44,0,11.93-1.44,16.45-4.34c4.5-2.89,6.77-6.65,6.77-11.29v-56.46c0-4.04,2.57-6.08,7.74-6.08c1.93,0,3.7,0.58,5.32,1.74
		c1.6,1.17,2.42,2.61,2.42,4.34v56.46c0,8.69-3.72,15.63-11.13,20.85c-7.42,5.21-16.61,7.82-27.57,7.82h-28.05v36.48l37.73,2.61
		c9.02,0.58,17.41,2.75,25.15,6.52c7.74,3.77,15.8,9.99,24.18,18.67l6.77,5.21c1.29,1.15,1.93,2.61,1.93,4.34
		C633.93,800.78,632.63,802.67,630.06,804.12z M530.42,491.84c1.28-1.74,3.22-2.61,5.8-2.61c2.57,0,4.5,0.87,5.8,2.61
		c9.02,9.85,15.15,17.37,18.38,22.58c1.29,2.91,0.97,5.51-0.97,7.82c-1.3,1.17-3.38,1.74-6.29,1.74c-2.9,0-5-0.87-6.29-2.61
		c-5.81-9.84-11.29-17.07-16.45-21.72C527.84,496.77,527.84,494.17,530.42,491.84z M635.7,815.07c-0.47,0.29-0.64,0.14-0.44-0.39
		c0.02-0.06,0.28-0.06,0.43-0.08C635.69,814.77,635.75,815.04,635.7,815.07z M636.35,471.43c-1.62,1.45-3.72,2.17-6.29,2.17
		c-5.8-0.57-14.51-0.87-26.12-0.87v14.77c1.29,18.54-0.48,34.31-5.32,47.34s-14.68,25.06-29.5,36.05c-0.65,1.15-2.27,1.74-4.84,1.74
		c-3.23,0-5.65-1.3-7.25-3.91c-1.62-2.61-0.82-5.06,2.42-7.38c12.24-9.84,20.47-20.41,24.67-31.71c4.19-11.29,5.64-25.04,4.35-41.26
		v-16.5c-35.48,0-62.88,0.58-82.23,1.74c-1.93,0-3.72-0.72-5.32-2.17c-1.62-1.44-2.42-3.04-2.42-4.78c0-1.15,0.8-2.46,2.42-3.91
		c1.6-1.44,3.39-2.17,5.32-2.17c18.7-1.15,45.78-1.74,81.26-1.74l-0.97-15.64v-0.87h-31.92h-39.66c-1.93,0-3.72-0.72-5.32-2.17
		c-1.62-1.44-2.42-3.04-2.42-4.78c0-4.04,2.9-6.08,8.71-6.08h38.7c21.28,0,37.08-0.28,47.4-0.87c7.74,0,11.61-2.89,11.61-8.69v-7.82
		c-10.32-0.57-24.52-0.87-42.56-0.87c-20.65,0-36.76,0.3-48.37,0.87c-5.17,0-7.74-2.02-7.74-6.08c0-1.74,0.64-3.33,1.93-4.78
		c1.29-1.44,2.9-2.17,4.84-2.17c12.24-0.57,28.69-0.87,49.34-0.87c18.05,0,32.24,0.3,42.56,0.87v-7.82c0-5.78-3.87-8.69-11.61-8.69
		c-10.32-0.57-26.12-0.87-47.4-0.87c-17.41,0-30.32,0.3-38.7,0.87c-2.58,0-4.68-0.72-6.29-2.17c-1.62-1.44-2.42-3.04-2.42-4.78
		c0-1.74,0.8-3.18,2.42-4.34c1.6-1.15,3.38-1.74,5.32-1.74c9.02-0.57,22.25-0.87,39.66-0.87c21.28,0,37.39,0.3,48.37,0.87
		c7.74,0.58,14.03,2.9,18.86,6.95c4.84,4.06,7.26,8.99,7.26,14.77v28.66c0,5.8-2.42,10.72-7.26,14.77
		c-4.84,4.06-11.13,6.38-18.86,6.95h-0.97v0.87l0.97,17.37c12.24,0,21.6,0.3,28.05,0.87c1.93,0,3.7,0.73,5.32,2.17
		c1.6,1.45,2.42,2.75,2.42,3.91C638.77,468.39,637.95,469.99,636.35,471.43z M640.44,810.17c-0.47,0.3-0.65,0.15-0.45-0.39
		c0.02-0.06,0.29-0.06,0.44-0.08C640.44,809.85,640.5,810.13,640.44,810.17z M663.25,417.1c-0.62,0.39-1.32,0.62-2,0.9
		c-0.12,0.05-0.22,0.1-0.33,0.15c-0.23-0.17-0.48-0.31-0.8-0.38c-0.58-0.13-0.78-0.4-0.71-0.82l0.93-0.35
		c0.29-0.78,0.48-1.57,0.45-2.48c-0.05-1.37,0.38-2.61,1.05-3.7c0.65,0.78,1.46,1.27,2.23,1.86c0.34,0.26,0.53,0.93,0.59,1.43
		C664.83,415.16,664.4,416.37,663.25,417.1z M657.62,408.74c-0.41-0.27-0.74-0.58-1.03-0.93c0.06-0.06,0.11-0.12,0.18-0.18
		c0.98-0.78,1.95-1.57,2.91-2.34c0.19-0.15,0.45-0.34,0.66-0.31c0.32,0.04,0.67,0.09,0.99,0.2c-0.05,0.66-0.24,1.31-0.59,1.95
		c-0.24,0.43-0.4,0.91-0.6,1.37C659.73,409.43,658.77,409.48,657.62,408.74z M661.87,395.86c0.06,0.07,0.12,0.15,0.19,0.22
		c0.18,0.19,0.42,0.44,0.62,0.44c0.17,0,0.45-0.24,0.49-0.44c1.04,0.13,2.08,0.11,3.13-0.16c0.01,0,0.02,0,0.02,0
		c-0.4,0.99-0.89,1.93-1.49,2.83c-0.24,0.35-0.46,0.67-0.72,0.92c-0.45,0.02-0.94-0.29-1.66-0.92c-0.4-0.35-0.84-0.82-1.29-0.91
		c-0.43-0.08-0.94,0.21-1.35,0.44c-0.18,0.1-0.31,0.47-0.25,0.68c0.15,0.5,0.3,1,0.45,1.5c-0.12,0.05-0.25,0.09-0.37,0.15
		c-0.52,0.26-0.93,0.05-1.04-0.68c-0.18-1.16-0.73-1.9-1.68-2.57c-0.93-0.66-1.26-2.24-0.88-3.33c1.21-0.36,2.39-0.45,3.4,1.08
		C660.25,395.42,661.06,395.67,661.87,395.86z M656.03,385.98l2.13-2.09c-0.22-0.59-0.43-1.18-0.65-1.78
		c0.87,0.14,1.63,0.74,1.88,1.58c0.15,0.5,0.45,1.08,0.35,1.5c-0.39,1.54-0.08,3.03,0.44,4.57c0.21,0.64-0.21,0.98-0.77,0.87
		c-0.63-0.12-1.21-0.19-1.65,0.19c0.12-0.62,0.06-1.35-0.08-1.98c-0.1-0.42-0.67-0.77-1.06-1.11
		C655.44,386.69,655.4,386.59,656.03,385.98z M654.69,415.06c0.56-0.77,0.9-1.76,1.52-2.45c0.16-0.18,0.28-0.36,0.37-0.53l1.06,2.5
		c-0.73,1.21-1.4,2.47-2.58,3.19C654.94,416.86,654.81,415.96,654.69,415.06z M659.74,444.46c-0.52-0.61-1.06-1.18-1.64-1.66
		c-0.03-0.22-0.05-0.44-0.08-0.66c0.14,0.08,0.27,0.17,0.42,0.24c0.42,0.21,0.72,0.79,1.04,1.23c0.15,0.21,0.28,0.51,0.28,0.76
		C659.76,444.4,659.74,444.43,659.74,444.46z M659.22,436.93c-0.44-0.23-0.84-0.59-1.26-0.89c-0.21-0.15-0.4-0.28-0.58-0.4
		c-0.47-5.26-1.27-10.52-2.03-15.78c0.47,0.55,1.06,0.91,1.73,1.12c0.18,0.05,0.38-0.03,0.56-0.02c2.11,0.17,2.24,0.34,1.76,2.69
		c-0.1,0.52-0.04,0.81,0.47,0.91c0.18,0.04,0.4-0.01,0.55-0.11c0.09-0.07,0.19-0.14,0.28-0.22c-0.14,1.02-0.13,2.08-0.24,3.11
		c-0.1,0.95,0.38,1.59,1.08,1.99c0.73,0.43,1.31,0.98,1.37,1.82c0.05,0.79,0.02,1.68-0.29,2.33c-0.56,1.14-1.33,2.15-2.06,3.18
		C660.27,437.11,659.75,437.2,659.22,436.93z M661.28,786.08c-0.44,0.28-0.61,0.14-0.46-0.31c0.03-0.04,0.06-0.07,0.09-0.11
		c0.09-0.02,0.26-0.03,0.36-0.04C661.28,785.78,661.34,786.05,661.28,786.08z M666.03,781.18c-0.47,0.3-0.65,0.15-0.45-0.39
		c0.02-0.06,0.29-0.06,0.44-0.08C666.03,780.87,666.08,781.14,666.03,781.18z M669.68,561.44c0.13,0.09,0.37,0.19,0.36,0.26
		c-0.04,0.57-0.27,0.64-0.57,0.16C669.43,561.81,669.6,561.58,669.68,561.44z M667.85,560.44c0.24,1.55,0.48,3.11-0.24,4.54
		c0.02,1.12,0.13,2.23,0.31,3.32c-0.76-3.52-0.7-7.17,0.2-11.14c0.12,0.05,0.25,0.1,0.38,0.14c0.92,0.28,1.02,0.69,0.41,1.13
		C668.25,558.91,667.69,559.37,667.85,560.44z M668.99,571.85c0.65,0.74,0.95,1.64,1.13,2.57
		C669.7,573.57,669.32,572.71,668.99,571.85z M671.7,568.32c-0.03-0.05,0.13-0.28,0.2-0.42c0.13,0.09,0.36,0.19,0.36,0.26
		C672.23,568.71,672,568.78,671.7,568.32z M676.32,572.87c0.46,0.63,0.31,1.21-0.1,1.7c-0.13,0.15-0.25,0.3-0.37,0.45
		c-0.12-0.04-0.23-0.08-0.35-0.12c-0.29-0.11-0.57-0.6-0.72-0.98c-0.42-1.11-0.37-2.21,0.3-3.12c0.36-0.48,0.81-0.87,1.23-1.28
		c0.77-0.74,0.98-1.45,0.47-2.15c-0.65-0.88-1.23-1.73-1.38-2.91c-0.11-0.89-0.34-1.76-0.49-2.64c-0.13-0.79-0.6-1.16-1.18-1.29
		c-0.61-0.14-1.13-0.41-1.35-1.07c-0.2-0.62-0.37-1.34-0.28-1.95c0.16-1.07,0.5-2.1,0.8-3.13c0.13-0.44,0.48-0.66,0.91-0.59
		c0.36,0.06,0.72,0.24,1.08,0.36c1.42,0.48,1.65,0.41,2.39-0.79c0.52-0.85,0.52-1.24,0.03-1.68c-1.24-1.11-2.45-2.24-4.06-2.48
		c-0.13-0.02-0.26-0.1-0.39-0.19c0.19-0.06,0.41-0.13,0.67-0.2c0.18-0.05,0.39-0.01,0.56-0.09c0.87-0.48,1.54-1.19,1.84-2.3
		c-0.02-0.23-0.01-0.46-0.06-0.67c-0.05-0.19-0.16-0.48-0.29-0.52c-0.47-0.15-0.88-0.39-1.27-0.67l-1.19-7.15
		c-0.13-0.73-0.62-1.05-1.24-1.21c-0.33-0.09-0.64-0.37-0.95-0.56c0.7-1.4,0.03-3.09,0.53-4.52c0.21-0.59,0.62-1.08,0.98-1.57
		c0.29-0.4,1.25-0.31,1.54,0.12c0.34,0.51,0.5,1.32,1.09,1.45c0.56,0.12,1.43-2.01,1.11-2.69c-0.17-0.36-0.47-0.75-0.78-0.89
		c-0.34-0.15-0.76-0.07-1.13,0.01c-0.41,0.08-0.91,0.1-1.05-0.29c-0.28-0.8,0.44-0.87,0.8-1.2c0.14-0.13,0.25-0.31,0.35-0.49
		c0.26-0.46-0.09-1.62-0.51-1.67c-0.56-0.07-1.12-0.1-1.68-0.16c-0.8-0.08-1.43-0.79-1.5-1.68c-0.03-0.44-0.16-0.96-0.02-1.31
		c0.52-1.24,0.53-2.53,0.39-3.89c-0.06-0.56,0.31-0.79,0.69-0.63c0.54,0.23,1.05,0.4,1.49-0.2c0.52-0.71,1.28-0.83,2.07-0.96
		c0.34-0.04,0.72-0.1,1.1-0.12c0.67-0.04,2.23,0.98,2.42,1.65c0.59,2.14,1.24,4.24,0.47,6.49c-0.46,1.33-0.01,2.61,0.93,3.63
		c0.68,0.73,0.68,1.55,0.32,2.41c-0.08,0.2-0.19,0.38-0.3,0.55c-0.21,0.31-0.39,0.63-0.54,0.97c-0.59,0.39-1.17,0.81-1.77,1.19
		c-0.49,0.31-1,0.58-1.5,0.88c-0.61,0.37-0.69,0.75,0.05,1.48c1.8,1.77,2,3.67,0.7,5.85c-0.09,0.15-0.01,0.43-0.02,0.64
		c-0.02,0.48,0.15,0.92,0.56,1.05c0.54,0.17,1.12,0.18,1.67,0.31c0.74,0.17,1.29,0.67,1.72,1.31c-0.33,0.77-0.54,1.61-0.77,2.44
		c-0.15-0.04-0.3-0.08-0.44-0.13c-1.34-0.55-1.57-0.39-1.54,1.11c0.02,1.57,0.05,3.13,0.07,4.7c0,0.41-0.19,0.87-0.4,1.21
		c-0.41,0.67-0.2,1.22,0.17,1.74c0.42,0.6,0.4,1.23,0.19,1.86c-0.2,0.61-0.6,1.16-0.7,1.78c-0.1,0.63-0.02,1.35,0.16,1.96
		c0.1,0.34,0.53,0.66,0.87,0.77c0.87,0.29,1.21,0.99,1.28,1.95c0.05,0.72,0.06,1.45,0.19,2.14c-0.06,0.94,0.11,1.84,0.5,2.71
		c-0.02,0.02-0.04,0.05-0.06,0.07c-0.43,0.42-0.84,0.94-1.34,1.17c-1.5,0.67-2.41,2.05-3.23,3.53
		C676.01,572.4,676.2,572.71,676.32,572.87z M679.12,587.77c-0.12,0.15-0.24,0.3-0.36,0.45c-0.34-0.7-0.69-1.38-1.06-2.06
		c0.02-0.07,0.03-0.14,0.05-0.21c0.07-0.25,0.14-0.48,0.21-0.69c0.41,0.44,0.82,0.89,1.23,1.35
		C679.5,586.96,679.45,587.36,679.12,587.77z M681.07,575.25c-0.13,0.13-0.32,0.18-0.49,0.25c-1.45,0.6-2.41-0.3-2.46-2.3
		c-0.02-0.99,0.25-1.34,0.84-1.06c0.17,0.08,0.35,0.17,0.5,0.3c0.48,0.45,0.98,0.37,1.48,0.16c-0.29,0.87-0.02,1.44,0.53,2.13
		c0.03,0.04,0.05,0.08,0.07,0.12C681.37,574.97,681.22,575.09,681.07,575.25z M684.85,746.59c0.02-0.06,0.29-0.06,0.44-0.08
		c0.01,0.16,0.06,0.44,0.01,0.47C684.82,747.28,684.65,747.12,684.85,746.59z M683.24,738.81c0.42,0.01,0.65,0.37,0.36,0.86
		c-0.08,0.14-0.16,0.29-0.24,0.43c-0.09-0.18-0.16-0.37-0.21-0.59c-0.02-0.12-0.25-0.17-0.5-0.2c0.03-0.18,0.06-0.36,0.09-0.53
		C682.9,738.79,683.06,738.8,683.24,738.81z M684.46,644.6c0.11-0.12,0.27-0.2,0.42-0.23c0.16-0.04,0.34-0.02,0.55-0.02
		c0.1,0.12,0.3,0.24,0.32,0.4c0.05,0.34-0.18,0.56-0.54,0.69c-0.4,0.15-0.7,0.04-0.86-0.42
		C684.31,644.91,684.38,644.69,684.46,644.6z M684.65,649.9c0.1,0.13,0.31,0.32,0.29,0.38c-0.2,0.52-0.44,0.5-0.59-0.05
		C684.33,650.16,684.54,650.01,684.65,649.9z M683.05,663.77C683.05,663.78,683.05,663.78,683.05,663.77c0,0.01,0,0.01,0,0.01
		C683.05,663.78,683.05,663.78,683.05,663.77z M683.85,675.32c0.44,0.09,0.7,0.37,0.68,0.75c-0.01,0.21-0.12,0.43-0.25,0.59
		c-0.26,0.32-0.51,0.76-0.83,0.88c-0.16,0.06-0.31,0.13-0.45,0.2c0-0.84,0.01-1.68,0.01-2.52
		C683.29,675.25,683.57,675.27,683.85,675.32z M684.43,620.07c0.17,0.02,0.46,0.24,0.46,0.34c-0.03,0.37-0.08,0.8-0.26,1.09
		c-0.54,0.84-0.8,0.98-1.35,0.58c-0.12-0.08-0.23-0.15-0.35-0.22c-0.01-0.61-0.01-1.22-0.02-1.83
		C683.41,620.03,683.92,620.03,684.43,620.07z M686.82,702.11c-0.07,0.4-0.24,0.94-0.51,1.1c-0.66,0.41-1.35,0.72-1.9,1.37
		c-0.76,0.91-0.89,1.42-0.19,2.94c0.23,0.5,0.38,0.9,0.03,1.08c-0.31,0.16-0.7,0.15-1.06,0.13c-0.11-0.01-0.22-0.09-0.32-0.18
		c0.01-8.64,0.05-17.29,0.09-25.93c0.27-0.17,0.53-0.35,0.82-0.46c0.41-0.16,0.79-0.01,1.01,0.4c0.5,0.95,1.04,1.89,1.4,2.91
		c0.21,0.58,0.19,1.33,0.11,1.97c-0.08,0.69-0.54,1.07-1.11,1.32c-0.54,0.24-0.93,0.7-0.9,1.5c0.03,0.9-0.02,1.8,0.04,2.69
		c0.09,1.19-0.32,2.14-0.78,3.13c-0.37,0.79-0.01,1.44,0.88,2.01c0.5,0.32,1.02,0.61,1.46,1.02
		C686.75,699.87,687.02,700.93,686.82,702.11z M688.15,695.96c-0.02-0.07,0.2-0.21,0.3-0.32c0.1,0.13,0.31,0.31,0.28,0.37
		C688.53,696.53,688.3,696.51,688.15,695.96z M689.06,689.2c-0.02-0.07,0.2-0.22,0.31-0.33c0.1,0.13,0.31,0.32,0.29,0.38
		C689.45,689.77,689.22,689.75,689.06,689.2z"/>
	<path class="st0" d="M724.51,354.74c6.12-4.06,11.41-7.22,17.73-11.21c4.74,3.37,8.6,6.05,11.69,8.39c3.3,2.61,3.99,4.67,4.54,9.14
		h2.54v-16.64h-2.54c-0.76,4.26-1.44,4.81-3.85,3.5c-2.89-1.65-6.94-4.19-9.77-6.26c4.54-2.82,8.25-5.02,10.38-6.12
		c1.99-0.96,2.75-0.76,3.23,3.37h2.54v-21.45h-2.54c-0.55,5.16-1.79,6.67-4.88,8.53c-5.63,3.51-10.45,6.4-15.88,9.63
		c-5.91-3.92-11.96-8.32-14.99-10.8c-2.41-1.99-3.51-4.46-3.85-8.32h-2.54v17.12h2.54c0.69-4.81,1.44-5.16,4.26-3.57
		c2.41,1.24,6.88,4.27,11.76,7.43c-8.52,4.95-10.93,6.39-12.1,7.08c-2.2,1.16-3.3,1.37-3.92-3.3h-2.54v22.41h2.54
		C719.36,358.93,720.05,357.48,724.51,354.74z"/>
	<path class="st0" d="M736.06,412.07h9.01c4.81,0,7.15,0.14,9.21,0.34c2.47,0.27,3.78,1.44,4.19,5.84h2.54v-17.05h-2.54
		c-0.27,4.81-0.96,6.73-4.13,7.01c-2.06,0.13-4.53,0.34-9.28,0.34h-8.6c-10.31,0-16.36-3.58-16.36-11.76
		c0-7.36,5.09-11.14,12.79-11.14h18.29c6.33,0,6.8,0.62,7.29,5.77h2.54V370.2h-2.54c-0.48,5.23-0.96,5.84-7.29,5.84h-17.39
		c-7.7,0-11.89,1.93-14.92,5.91c-2.61,3.23-3.57,7.77-3.57,12.31c0,4.88,1.44,9.76,4.74,12.92
		C724.17,411.11,730.15,412.07,736.06,412.07z"/>
	<path class="st0" d="M761.02,427.19h-2.54c-0.27,2.89-0.48,4.54-2.2,5.78c-1.79,1.3-3.3,1.44-5.57,1.44h-16.29
		c-5.98,0-8.46-0.14-10.93-0.41c-3.24-0.41-4.27-2.14-4.61-6.05h-2.54V445h2.54c0.27-5.09,1.86-6.53,4.88-6.81
		c1.99-0.2,4.67-0.34,10.66-0.34h15.53l-34.37,28.67v3.85h27.36c5.98,0,8.32,0.2,11,0.41c3.1,0.21,3.99,1.51,4.54,5.71h2.54V459.5
		h-2.54c-0.34,5.71-1.79,6.81-4.74,7.01c-2.54,0.2-4.81,0.27-10.8,0.27h-12.37l30.45-26.19V427.19z"/>
	<path class="st0" d="M748.92,552.47l-0.07,2.61c2.54,0.97,4.68,1.93,5.91,2.75c2.34,1.44,3.03,2.61,3.03,7.56v10.59
		c-13.2-8.52-27.36-17.8-39.94-26.19l-1.51,0.48v36.92c2.4,0.62,10.1,2.54,12.72,3.03l0.62-2.61c-3.44-1.44-6.6-3.44-8.11-5.09
		c-1.86-1.99-2.07-3.29-2.07-11.48c0-4.33,0-6.33,0.21-8.6c13.61,8.6,27.15,17.46,40.08,25.85l1.24-0.48v-27.77
		c0-2.07,0.07-3.03,1.72-3.85v-2.4C759.71,553.57,753.11,552.89,748.92,552.47z"/>
	<path class="st0" d="M751.8,606.99h-26.33c-5.7,0-6.05-0.76-6.6-5.84h-2.54v21.17h2.54c0.55-5.16,0.9-5.77,6.6-5.77h12.93v18.56
		h-12.93c-5.7,0-5.91-0.41-6.6-5.84h-2.54v21.24h2.54c0.48-5.3,0.9-5.84,6.6-5.84h26.33c5.71,0,6.12,0.48,6.67,5.84h2.54v-21.24
		h-2.54c-0.55,5.16-0.96,5.84-6.67,5.84h-9.83v-18.56h9.83c5.71,0,6.19,0.55,6.67,5.77h2.54v-21.17h-2.54
		C758.06,606.37,757.51,606.99,751.8,606.99z"/>
	<path class="st0" d="M761.02,685.91v-22.34h-2.54c-0.41,4.67-0.83,5.5-6.67,5.5h-26.26c-5.77,0-6.12-0.41-6.74-6.67h-2.47v35.68
		c1.93,0.62,9.83,2.55,11.69,2.89l0.62-2.54c-2.33-1.1-4.88-2.48-6.87-4.2c-1.86-1.51-2.33-2.54-2.33-6.4v-4.88
		c0.06-4.27,1.51-4.4,6.26-4.4h11.82v6.67c0,3.99-0.82,4.53-5.91,5.63v2.68h15.33v-2.68c-4.88-1.03-5.91-1.72-5.91-5.57v-6.73h14.36
		c2.34,0,2.48,0.27,2.48,2.89v4.47c0,3.5-0.41,4.4-1.79,5.63c-1.24,1.17-4.06,2.34-6.4,2.96l0.34,2.68
		c4.27-0.27,9.9-0.62,11.14-0.69C761.09,695.53,761.02,693.13,761.02,685.91z"/>
	<path class="st0" d="M761.02,710.52h-2.54c-0.27,2.89-0.48,4.54-2.2,5.77c-1.79,1.31-3.3,1.45-5.57,1.45h-16.29
		c-5.98,0-8.46-0.14-10.93-0.41c-3.24-0.41-4.27-2.13-4.61-6.05h-2.54v17.05h2.54c0.27-5.09,1.86-6.53,4.88-6.81
		c1.99-0.2,4.67-0.34,10.66-0.34h15.53l-34.37,28.67v3.85h27.36c5.98,0,8.32,0.21,11,0.41c3.1,0.21,3.99,1.51,4.54,5.71h2.54v-16.98
		h-2.54c-0.34,5.71-1.79,6.81-4.74,7.01c-2.54,0.2-4.81,0.27-10.8,0.27h-12.37l30.45-26.19V710.52z"/>
	<path class="st0" d="M738.74,771.29c-13.61,0-23.44,9.28-23.44,25.44c0,5.57,1.65,13.13,2.27,16.63c1.86-0.34,4.19-0.41,6.66-0.41
		h5.3c4.67,0,4.95,0.48,5.64,4.4h2.54v-20.55h-2.54c-0.69,5.77-1.17,6.73-5.98,6.73h-6.05c-2.13,0-3.3-0.55-3.92-1.58
		c-0.76-1.23-0.96-3.02-0.96-4.4c0-11.27,9.56-15.53,21.66-15.53c11.82,0,19.04,6.26,19.04,14.57c0,1.72-0.27,4.27-0.83,5.84
		c-1.44,4.27-4.4,6.81-10.24,8.46l0.48,2.68c3.78-0.48,9-1.03,12.03-1.17c0.2-2.27,1.58-8.32,1.58-13.89
		C761.98,783.87,754.21,771.29,738.74,771.29z"/>
	<path class="st0" d="M508.34,291.54c1.68,0.38,3.01-0.03,4.07-1.12c0.16-0.16,0.37-0.38,0.35-0.56c-0.02-0.16-0.31-0.4-0.51-0.43
		l-5.3-0.55c0.01,0.43,0,0.86,0.04,1.29C507.05,290.96,507.54,291.36,508.34,291.54z"/>
	<path class="st0" d="M377.42,487.06c-1.49,0.58-1.54,2.28-2.16,3.54c-0.05,0.09,0.15,0.4,0.27,0.56c0.51,0.65,1.02,1.32,1.58,1.92
		c0.26,0.29,0.62,0.47,0.95,0.64c0.16,0.08,0.39,0.09,0.56,0.03c0.5-0.17,0.51-0.47,0.33-0.97c-0.81-2.25-0.71-2.44,1.36-2.92
		c0.18-0.04,0.39,0.02,0.56-0.06c0.89-0.43,1.6-1.1,1.96-2.19c-0.01-0.23,0.02-0.46-0.03-0.68c-0.04-0.19-0.13-0.48-0.26-0.53
		c-1.9-0.73-2.85-2.83-4.34-4.15c-0.28-0.25-0.62-0.07-0.95,0.29c-0.71,0.75-0.89,1.16-0.59,1.6c0.37,0.52,0.72,1.01,1.09,1.53
		C378.2,486.32,378.18,486.76,377.42,487.06z"/>
	<path class="st0" d="M372.95,559.46c0.11-0.09,0.23-0.4,0.19-0.47c-0.75-1.21-0.22-1.97,0.61-2.69c0.62-0.54,1.57-0.42,1.93,0.33
		c0.18,0.38,0.26,0.82,0.42,1.22c0.19,0.48,0.51,0.58,0.95,0.51c0.37-0.06,0.75-0.17,0.88-0.64c0.23-0.84,0.31-1.72-0.02-2.57
		c-0.31-0.8-0.61-1.59-0.93-2.4c-0.2-0.55-0.46-0.69-0.83-0.39c-0.84,0.68-1.7,0.9-2.53,0.01c-0.36-0.39-0.63-0.43-0.97-0.07
		c-0.57,0.58-1.13,1.17-1.22,2.13c-0.04,0.66-0.08,1.33-0.14,2.41c0.05,0.46,0.15,1.32,0.24,2.19
		C371.59,559.54,372.5,559.83,372.95,559.46z"/>
	<path class="st0" d="M376.21,544.86c-0.05,1.09-0.09,2.19-0.02,3.28c0.02,0.28,0.47,0.59,0.77,0.75c0.48,0.26,1.17-0.29,1.24-0.89
		c0.04-0.43,0.08-0.87,0.14-1.41c-0.02-0.55,0.03-1.24-0.12-1.86c-0.08-0.32-0.48-0.6-0.78-0.76
		C376.97,543.72,376.24,544.26,376.21,544.86z"/>
	<path class="st0" d="M380.48,532.25c-0.08-0.19-0.24-0.41-0.4-0.45c-1.4-0.34-2.6,0-3.36,1.58c-0.05,0.11,0.02,0.37,0.11,0.49
		c0.11,0.14,0.3,0.21,0.46,0.3c0.19,0,0.41,0.09,0.56,0c0.84-0.47,1.66-0.96,2.48-1.48C380.42,532.63,380.52,532.35,380.48,532.25z"
		/>
	<path class="st0" d="M377.41,561.63c-0.02-0.01-0.28,0.26-0.36,0.45c-0.16,0.39-0.27,0.8-0.4,1.2c-0.2,0.37-0.46,0.71-0.58,1.11
		c-0.1,0.37,0.17,0.66,0.59,0.76c0.18,0.04,0.42,0.1,0.54,0.01c0.46-0.36,0.89-0.77,1.32-1.18c0.37-0.35,0.43-0.76,0.13-1.11
		C378.27,562.42,377.84,562.02,377.41,561.63z"/>
	<path class="st0" d="M372.48,534.91c0.02,0.02,0.22-0.29,0.33-0.43c0.01-0.63,0.08-1.26,0.01-1.86c-0.03-0.24-0.38-0.42-0.58-0.63
		c-0.12,0.16-0.32,0.3-0.33,0.47c-0.05,0.61-0.1,1.24-0.03,1.84C371.9,534.54,372.25,534.74,372.48,534.91z"/>
	<path class="st0" d="M374.91,575c-0.09-0.02-0.29,0.18-0.31,0.31c-0.02,0.11,0.16,0.26,0.25,0.39l0.37-0.32
		C375.11,575.25,375.03,575.03,374.91,575z"/>
	<path class="st0" d="M377.67,536.31c-0.02,0.11,0.16,0.26,0.24,0.39l0.37-0.32l-0.29-0.41
		C377.88,536.08,377.7,536.17,377.67,536.31z"/>
	<path class="st0" d="M378.83,687.39c0.54-0.62,1.49-0.64,1.96,0.06c0.23,0.35,0.38,0.78,0.58,1.15c0.25,0.45,0.59,0.5,1.01,0.37
		c0.36-0.11,0.72-0.27,0.78-0.76c0.11-0.86,0.07-1.75-0.38-2.54c-0.42-0.75-0.83-1.49-1.25-2.24c-0.28-0.52-0.55-0.62-0.88-0.27
		c-0.74,0.79-1.56,1.13-2.51,0.37c-0.41-0.33-0.68-0.34-0.97,0.06c-0.48,0.66-0.96,1.32-0.91,2.28c0.05,0.66,0.11,1.32,0.19,2.4
		c0.12,0.45,0.33,1.29,0.55,2.13c0.13,0.51,1.07,0.67,1.46,0.23c0.1-0.11,0.18-0.43,0.12-0.49
		C377.69,689.04,378.11,688.21,378.83,687.39z"/>
	<path class="st0" d="M380.11,678.96c0.06,0.27,0.55,0.52,0.87,0.64c0.51,0.19,1.12-0.45,1.1-1.05c-0.02-0.44-0.04-0.87-0.06-1.42
		c-0.1-0.54-0.14-1.23-0.37-1.82c-0.12-0.31-0.56-0.53-0.88-0.64c-0.5-0.18-1.15,0.46-1.09,1.05
		C379.77,676.81,379.88,677.9,380.11,678.96z"/>
	<path class="st0" d="M382.13,662.64c-0.1-0.17-0.3-0.37-0.46-0.39c-1.44-0.14-2.58,0.36-3.11,2.03c-0.04,0.11,0.07,0.37,0.18,0.47
		c0.13,0.13,0.33,0.16,0.49,0.24c0.19-0.02,0.41,0.03,0.55-0.08c0.76-0.58,1.51-1.19,2.25-1.81
		C382.12,663.02,382.18,662.73,382.13,662.64z"/>
	<path class="st0" d="M382.91,692.65c-0.1,0.4-0.16,0.83-0.23,1.25c-0.15,0.39-0.36,0.77-0.41,1.18c-0.05,0.38,0.26,0.63,0.69,0.67
		c0.18,0.02,0.43,0.04,0.54-0.07c0.4-0.42,0.77-0.89,1.14-1.35c0.31-0.4,0.32-0.81-0.03-1.11c-0.45-0.39-0.93-0.72-1.41-1.05
		C383.18,692.15,382.96,692.46,382.91,692.65z"/>
	<path class="st0" d="M382.95,706.09c-0.12-0.12-0.23-0.33-0.35-0.34c-0.09-0.01-0.26,0.21-0.27,0.35c0,0.11,0.19,0.23,0.3,0.35
		L382.95,706.09z"/>
	<path class="st0" d="M380.21,667.4l0.32-0.37l-0.35-0.37c-0.1,0.13-0.26,0.25-0.27,0.38C379.92,667.16,380.11,667.29,380.21,667.4z
		"/>
	<path class="st0" d="M673.27,481.85c-0.69,1-1.57,0.91-2.51,0.35c-0.41-0.24-0.64-0.07-0.76,0.51c-0.19,0.84-0.38,1.67-0.57,2.5
		c-0.2,0.89,0,1.75,0.35,2.55c0.2,0.45,0.59,0.5,0.97,0.5c0.45,0,0.75-0.14,0.87-0.64c0.1-0.42,0.11-0.87,0.24-1.27
		c0.25-0.8,1.17-1.05,1.86-0.61c0.92,0.59,1.56,1.26,0.99,2.57c-0.03,0.08,0.13,0.36,0.26,0.44c0.5,0.31,1.36-0.11,1.34-0.64
		c-0.03-0.87-0.06-1.74-0.08-2.2c-0.22-1.06-0.35-1.71-0.49-2.36c-0.22-0.93-0.86-1.43-1.51-1.93
		C673.83,481.33,673.58,481.41,673.27,481.85z"/>
	<path class="st0" d="M670.13,478.02c-0.08-1.08-0.29-2.17-0.49-3.24c-0.11-0.59-0.91-1.02-1.34-0.71c-0.28,0.2-0.64,0.54-0.66,0.87
		c-0.05,0.63,0.1,1.3,0.15,1.85c0.13,0.53,0.23,0.96,0.34,1.38c0.15,0.58,0.92,1.03,1.35,0.7
		C669.75,478.67,670.15,478.3,670.13,478.02z"/>
	<polygon class="st0" points="664.46,449.91 664.47,449.9 664.46,449.88 664.45,449.89 	"/>
	<path class="st0" d="M671.28,491.94c-0.1-0.17-0.4-0.41-0.42-0.39c-0.37,0.45-0.74,0.91-1.05,1.4c-0.25,0.39-0.13,0.78,0.29,1.08
		c0.48,0.34,0.97,0.69,1.47,0.98c0.14,0.08,0.37-0.02,0.54-0.08c0.4-0.15,0.63-0.49,0.47-0.83c-0.17-0.38-0.48-0.68-0.73-1.02
		C671.66,492.7,671.49,492.3,671.28,491.94z"/>
	<path class="st0" d="M671.9,464.4c0.2-0.2,0.51-0.45,0.51-0.69c-0.01-0.6-0.15-1.22-0.29-1.82c-0.04-0.16-0.26-0.28-0.39-0.41
		c-0.17,0.24-0.49,0.47-0.48,0.71c0.01,0.61,0.17,1.22,0.28,1.84C671.64,464.15,671.88,464.42,671.9,464.4z"/>
	<path class="st0" d="M675.02,504.85l0.41,0.26c0.07-0.14,0.22-0.32,0.19-0.42c-0.04-0.13-0.27-0.29-0.35-0.26
		C675.15,504.47,675.1,504.7,675.02,504.85z"/>
	<path class="st0" d="M666.36,466.69l0.41,0.27c0.07-0.14,0.22-0.32,0.18-0.42c-0.04-0.13-0.24-0.2-0.36-0.29L666.36,466.69z"/>
	<path class="st0" d="M426.55,350.07c0.18,0.34,0.48,0.61,0.76,0.86c0.14,0.12,0.35,0.19,0.53,0.17c0.52-0.04,0.62-0.33,0.57-0.85
		c-0.21-2.39-0.06-2.54,2.06-2.47c0.19,0.01,0.38,0.12,0.56,0.08c0.97-0.19,1.83-0.66,2.46-1.62c0.05-0.23,0.14-0.44,0.14-0.66
		c0.01-0.2-0.01-0.5-0.12-0.58c-1.65-1.19-2.03-3.47-3.14-5.11c-0.21-0.31-0.58-0.22-1,0.03c-0.88,0.54-1.15,0.89-0.98,1.4
		c0.23,0.6,0.44,1.16,0.67,1.75c0.27,0.75,0.13,1.17-0.68,1.26c-1.59,0.18-2.07,1.81-2.99,2.87c-0.07,0.08,0.04,0.42,0.12,0.61
		C425.84,348.58,426.16,349.35,426.55,350.07z"/>
	<path class="st0" d="M411.83,389.01c0.17-0.6,0.4-1.19,0.48-1.79c0.03-0.24-0.26-0.5-0.4-0.76c-0.15,0.12-0.38,0.21-0.44,0.37
		c-0.21,0.58-0.42,1.17-0.5,1.77c-0.03,0.24,0.25,0.52,0.42,0.74C411.43,389.36,411.69,389.12,411.83,389.01z"/>
	<path class="st0" d="M403.55,428.74c-0.08-0.04-0.33,0.1-0.38,0.22c-0.04,0.1,0.09,0.29,0.14,0.44l0.43-0.21
		C403.68,429.02,403.65,428.79,403.55,428.74z"/>
	<path class="st0" d="M683.76,721.82c-0.1,0.06-0.19,0.32-0.17,0.47c0.02,0.18,0.14,0.34,0.22,0.5c0.16,0.11,0.29,0.3,0.47,0.31
		c0.95,0.07,1.92,0.1,2.88,0.12c0.12,0,0.35-0.18,0.37-0.28c0.04-0.2,0.02-0.47-0.09-0.59C686.45,721.3,685.26,720.92,683.76,721.82
		z"/>
</g>
</svg>
